<svg width="65" height="65" xmlns="http://www.w3.org/2000/svg">

 <g>
  <title>background</title>
  <rect fill="none" id="canvas_background" height="402" width="582" y="-1" x="-1"/>
 </g>
 <g>
  <title>Layer 1</title>
  <path id="svg_2" fill="#9fffe0" d="m56.427,36.535l0,-2.978c-1.71,-0.029 -3.479,-0.56 -4.511,-1.297l0.708,-1.976c1.062,0.708 2.594,1.268 4.245,1.268c2.093,0 3.508,-1.208 3.508,-2.889c0,-1.621 -1.15,-2.623 -3.331,-3.508c-3.007,-1.18 -4.864,-2.535 -4.864,-5.1c0,-2.447 1.739,-4.305 4.451,-4.747l0,-2.978l1.828,0l0,2.859c1.769,0.06 2.978,0.531 3.832,1.032l-0.737,1.946c-0.619,-0.354 -1.828,-1.003 -3.714,-1.003c-2.27,0 -3.125,1.356 -3.125,2.535c0,1.533 1.091,2.3 3.655,3.36c3.037,1.238 4.57,2.771 4.57,5.396c0,2.329 -1.622,4.511 -4.658,5.011l0,3.066l-1.857,0l0,0.003z"/>
  <path id="svg_3" fill="#cccccc" d="m14.994,50.546c-0.251,0.212 -0.549,0.408 -0.894,0.582c0.458,0.309 0.719,0.638 0.719,0.917c0,0.778 -1.958,1.955 -4.909,1.955s-4.91,-1.177 -4.91,-1.955c0,-0.279 0.26,-0.608 0.719,-0.917c-0.345,-0.174 -0.643,-0.37 -0.894,-0.582c-0.521,0.439 -0.825,0.951 -0.825,1.499c0,1.633 2.646,2.955 5.909,2.955s5.909,-1.322 5.909,-2.955c0,-0.548 -0.304,-1.06 -0.824,-1.499z"/>
  <path id="svg_4" fill="#cccccc" d="m14.994,47.546c-0.251,0.212 -0.549,0.408 -0.894,0.582c0.458,0.309 0.719,0.638 0.719,0.917c0,0.778 -1.958,1.955 -4.909,1.955s-4.91,-1.177 -4.91,-1.955c0,-0.279 0.26,-0.608 0.719,-0.917c-0.345,-0.174 -0.643,-0.37 -0.894,-0.582c-0.521,0.439 -0.825,0.951 -0.825,1.499c0,1.633 2.646,2.955 5.909,2.955s5.909,-1.322 5.909,-2.955c0,-0.548 -0.304,-1.06 -0.824,-1.499z"/>
  <path id="svg_5" fill="#cccccc" d="m9.909,44.091c2.951,0 4.909,1.176 4.909,1.954s-1.958,1.955 -4.909,1.955s-4.909,-1.177 -4.909,-1.955s1.958,-1.954 4.909,-1.954m0,-1c-3.263,0 -5.909,1.323 -5.909,2.954c0,1.633 2.646,2.955 5.909,2.955s5.909,-1.322 5.909,-2.955c0,-1.631 -2.646,-2.954 -5.909,-2.954l0,0z"/>
  <path id="svg_6" fill="#cccccc" d="m30.994,50.546c-0.251,0.212 -0.549,0.408 -0.894,0.582c0.458,0.309 0.719,0.638 0.719,0.917c0,0.778 -1.958,1.955 -4.909,1.955s-4.91,-1.177 -4.91,-1.955c0,-0.279 0.26,-0.608 0.719,-0.917c-0.345,-0.174 -0.643,-0.37 -0.894,-0.582c-0.521,0.439 -0.825,0.951 -0.825,1.499c0,1.633 2.646,2.955 5.909,2.955s5.909,-1.322 5.909,-2.955c0,-0.548 -0.304,-1.06 -0.824,-1.499z"/>
  <path id="svg_7" fill="#cccccc" d="m30.994,47.546c-0.251,0.212 -0.549,0.408 -0.894,0.582c0.458,0.309 0.719,0.638 0.719,0.917c0,0.778 -1.958,1.955 -4.909,1.955s-4.91,-1.177 -4.91,-1.955c0,-0.279 0.26,-0.608 0.719,-0.917c-0.345,-0.174 -0.643,-0.37 -0.894,-0.582c-0.521,0.439 -0.825,0.951 -0.825,1.499c0,1.633 2.646,2.955 5.909,2.955s5.909,-1.322 5.909,-2.955c0,-0.548 -0.304,-1.06 -0.824,-1.499z"/>
  <path id="svg_8" fill="#cccccc" d="m30.994,44.546c-0.251,0.212 -0.549,0.408 -0.894,0.582c0.458,0.309 0.719,0.638 0.719,0.917c0,0.778 -1.958,1.955 -4.909,1.955s-4.91,-1.177 -4.91,-1.955c0,-0.279 0.26,-0.608 0.719,-0.917c-0.345,-0.174 -0.643,-0.37 -0.894,-0.582c-0.521,0.439 -0.825,0.951 -0.825,1.499c0,1.633 2.646,2.955 5.909,2.955s5.909,-1.322 5.909,-2.955c0,-0.548 -0.304,-1.06 -0.824,-1.499z"/>
  <path id="svg_9" fill="#cccccc" d="m30.994,41.546c-0.251,0.212 -0.549,0.408 -0.894,0.582c0.458,0.309 0.719,0.638 0.719,0.917c0,0.778 -1.958,1.955 -4.909,1.955s-4.91,-1.177 -4.91,-1.955c0,-0.279 0.26,-0.608 0.719,-0.917c-0.345,-0.174 -0.643,-0.37 -0.894,-0.582c-0.521,0.439 -0.825,0.951 -0.825,1.499c0,1.633 2.646,2.955 5.909,2.955s5.909,-1.322 5.909,-2.955c0,-0.548 -0.304,-1.06 -0.824,-1.499z"/>
  <path id="svg_10" fill="#cccccc" d="m25.909,38.091c2.951,0 4.909,1.176 4.909,1.954s-1.958,1.955 -4.909,1.955s-4.909,-1.177 -4.909,-1.955s1.958,-1.954 4.909,-1.954m0,-1c-3.263,0 -5.909,1.323 -5.909,2.954c0,1.633 2.646,2.955 5.909,2.955s5.909,-1.322 5.909,-2.955c0,-1.631 -2.646,-2.954 -5.909,-2.954l0,0z"/>
  <path id="svg_11" fill="#cccccc" d="m46.994,50.546c-0.251,0.212 -0.549,0.408 -0.894,0.582c0.458,0.309 0.719,0.638 0.719,0.917c0,0.778 -1.958,1.955 -4.909,1.955s-4.91,-1.177 -4.91,-1.955c0,-0.279 0.26,-0.608 0.719,-0.917c-0.345,-0.174 -0.643,-0.37 -0.894,-0.582c-0.521,0.439 -0.825,0.951 -0.825,1.499c0,1.633 2.646,2.955 5.909,2.955s5.909,-1.322 5.909,-2.955c0,-0.548 -0.304,-1.06 -0.824,-1.499z"/>
  <path id="svg_12" fill="#cccccc" d="m46.994,47.546c-0.251,0.212 -0.549,0.408 -0.894,0.582c0.458,0.309 0.719,0.638 0.719,0.917c0,0.778 -1.958,1.955 -4.909,1.955s-4.91,-1.177 -4.91,-1.955c0,-0.279 0.26,-0.608 0.719,-0.917c-0.345,-0.174 -0.643,-0.37 -0.894,-0.582c-0.521,0.439 -0.825,0.951 -0.825,1.499c0,1.633 2.646,2.955 5.909,2.955s5.909,-1.322 5.909,-2.955c0,-0.548 -0.304,-1.06 -0.824,-1.499z"/>
  <path id="svg_13" fill="#cccccc" d="m46.994,44.546c-0.251,0.212 -0.549,0.408 -0.894,0.582c0.458,0.309 0.719,0.638 0.719,0.917c0,0.778 -1.958,1.955 -4.909,1.955s-4.91,-1.177 -4.91,-1.955c0,-0.279 0.26,-0.608 0.719,-0.917c-0.345,-0.174 -0.643,-0.37 -0.894,-0.582c-0.521,0.439 -0.825,0.951 -0.825,1.499c0,1.633 2.646,2.955 5.909,2.955s5.909,-1.322 5.909,-2.955c0,-0.548 -0.304,-1.06 -0.824,-1.499z"/>
  <path id="svg_14" fill="#cccccc" d="m61.994,50.546c-0.251,0.212 -0.549,0.408 -0.894,0.582c0.458,0.309 0.719,0.638 0.719,0.917c0,0.778 -1.958,1.955 -4.909,1.955s-4.91,-1.177 -4.91,-1.955c0,-0.279 0.26,-0.608 0.719,-0.917c-0.345,-0.174 -0.643,-0.37 -0.894,-0.582c-0.521,0.439 -0.825,0.951 -0.825,1.499c0,1.633 2.646,2.955 5.909,2.955s5.909,-1.322 5.909,-2.955c0,-0.548 -0.304,-1.06 -0.824,-1.499z"/>
  <path id="svg_15" fill="#cccccc" d="m61.994,47.546c-0.251,0.212 -0.549,0.408 -0.894,0.582c0.458,0.309 0.719,0.638 0.719,0.917c0,0.778 -1.958,1.955 -4.909,1.955s-4.91,-1.177 -4.91,-1.955c0,-0.279 0.26,-0.608 0.719,-0.917c-0.345,-0.174 -0.643,-0.37 -0.894,-0.582c-0.521,0.439 -0.825,0.951 -0.825,1.499c0,1.633 2.646,2.955 5.909,2.955s5.909,-1.322 5.909,-2.955c0,-0.548 -0.304,-1.06 -0.824,-1.499z"/>
  <path id="svg_16" fill="#cccccc" d="m61.994,44.546c-0.251,0.212 -0.549,0.408 -0.894,0.582c0.458,0.309 0.719,0.638 0.719,0.917c0,0.778 -1.958,1.955 -4.909,1.955s-4.91,-1.177 -4.91,-1.955c0,-0.279 0.26,-0.608 0.719,-0.917c-0.345,-0.174 -0.643,-0.37 -0.894,-0.582c-0.521,0.439 -0.825,0.951 -0.825,1.499c0,1.633 2.646,2.955 5.909,2.955s5.909,-1.322 5.909,-2.955c0,-0.548 -0.304,-1.06 -0.824,-1.499z"/>
  <path id="svg_17" fill="#cccccc" d="m56.784,40.966c2.951,0 4.909,1.176 4.909,1.954s-1.958,1.955 -4.909,1.955s-4.909,-1.177 -4.909,-1.955s1.958,-1.954 4.909,-1.954m0,-1c-3.263,0 -5.909,1.323 -5.909,2.954c0,1.633 2.646,2.955 5.909,2.955s5.909,-1.322 5.909,-2.955c0,-1.631 -2.646,-2.954 -5.909,-2.954l0,0z"/>
  <path id="svg_18" fill="#cccccc" d="m46.869,41.546c-0.251,0.212 -0.549,0.408 -0.894,0.582c0.458,0.309 0.719,0.638 0.719,0.917c0,0.778 -1.958,1.955 -4.909,1.955s-4.91,-1.177 -4.91,-1.955c0,-0.279 0.26,-0.608 0.719,-0.917c-0.345,-0.174 -0.643,-0.37 -0.894,-0.582c-0.521,0.439 -0.825,0.951 -0.825,1.499c0,1.633 2.646,2.955 5.909,2.955s5.909,-1.322 5.909,-2.955c0,-0.548 -0.304,-1.06 -0.824,-1.499z"/>
  <path id="svg_19" fill="#cccccc" d="m46.994,38.546c-0.251,0.212 -0.549,0.408 -0.894,0.582c0.458,0.309 0.719,0.638 0.719,0.917c0,0.778 -1.958,1.955 -4.909,1.955s-4.91,-1.177 -4.91,-1.955c0,-0.279 0.26,-0.608 0.719,-0.917c-0.345,-0.174 -0.643,-0.37 -0.894,-0.582c-0.521,0.439 -0.825,0.951 -0.825,1.499c0,1.633 2.646,2.955 5.909,2.955s5.909,-1.322 5.909,-2.955c0,-0.548 -0.304,-1.06 -0.824,-1.499z"/>
  <path id="svg_20" fill="#cccccc" d="m46.994,35.546c-0.251,0.212 -0.549,0.408 -0.894,0.582c0.458,0.309 0.719,0.638 0.719,0.917c0,0.778 -1.958,1.955 -4.909,1.955s-4.91,-1.177 -4.91,-1.955c0,-0.279 0.26,-0.608 0.719,-0.917c-0.345,-0.174 -0.643,-0.37 -0.894,-0.582c-0.521,0.439 -0.825,0.951 -0.825,1.499c0,1.633 2.646,2.955 5.909,2.955s5.909,-1.322 5.909,-2.955c0,-0.548 -0.304,-1.06 -0.824,-1.499z"/>
  <path id="svg_21" fill="#cccccc" d="m41.909,32.091c2.951,0 4.909,1.176 4.909,1.954s-1.958,1.955 -4.909,1.955s-4.909,-1.177 -4.909,-1.955s1.958,-1.954 4.909,-1.954m0,-1c-3.263,0 -5.909,1.323 -5.909,2.954c0,1.633 2.646,2.955 5.909,2.955s5.909,-1.322 5.909,-2.955c0,-1.631 -2.646,-2.954 -5.909,-2.954l0,0z"/>
  <line id="svg_23" y2="21" y1="38" x2="46" x1="4" fill="#FFFFFF"/>
  <path id="svg_24" fill="#9fffe0" d="m4,39c-0.396,0 -0.77,-0.235 -0.927,-0.625c-0.208,-0.512 0.04,-1.095 0.552,-1.302l42,-17c0.512,-0.207 1.096,0.04 1.302,0.552c0.208,0.512 -0.04,1.095 -0.552,1.302l-42,17c-0.123,0.05 -0.25,0.073 -0.375,0.073z"/>
  <path id="svg_25" fill="#9fffe0" d="m45,26c-0.116,0 -0.233,-0.02 -0.348,-0.063c-0.518,-0.191 -0.782,-0.768 -0.59,-1.285l1.238,-3.339l-3.653,-1.378c-0.517,-0.194 -0.777,-0.771 -0.583,-1.288c0.195,-0.518 0.774,-0.778 1.289,-0.583l4.583,1.729c0.515,0.194 0.776,0.768 0.584,1.283l-1.583,4.271c-0.149,0.404 -0.531,0.653 -0.937,0.653z"/>
 </g>
</svg>