<svg width="64" height="64" xmlns="http://www.w3.org/2000/svg">

 <g>
  <title>background</title>
  <rect fill="none" id="canvas_background" height="402" width="582" y="-1" x="-1"/>
 </g>
 <g>
  <title>Layer 1</title>
  <path fill="#cccccc" id="svg_2" d="m61.493,41.902l-1.624,-3.073c0.077,-0.265 0.131,-0.54 0.131,-0.829c0,-0.771 -0.301,-1.468 -0.78,-2c0.48,-0.532 0.78,-1.229 0.78,-2s-0.301,-1.468 -0.78,-2c0.48,-0.532 0.78,-1.229 0.78,-2c0,-0.395 -0.081,-0.77 -0.22,-1.116c1.275,-0.346 2.22,-1.501 2.22,-2.884c0,-1.654 -1.346,-3 -3,-3l-0.277,0l2.882,-5.042c0.258,-0.452 0.395,-0.967 0.395,-1.489l0,-0.469c0,-1.654 -1.346,-3 -3,-3c-1.506,0 -2.32,0.724 -2.915,1.252c-0.507,0.451 -0.842,0.748 -1.588,0.748c-0.745,0 -1.08,-0.297 -1.587,-0.748c-0.595,-0.528 -1.409,-1.252 -2.915,-1.252c-1.505,0 -2.319,0.724 -2.914,1.252c-0.507,0.451 -0.841,0.748 -1.586,0.748c-0.743,0 -1.077,-0.297 -1.582,-0.747c-0.595,-0.529 -1.408,-1.253 -2.913,-1.253c-1.654,0 -3,1.346 -3,3l0,0.469c0,0.522 0.137,1.037 0.396,1.488l1.167,2.043l-1.327,0c-1.097,0 -2.192,0.19 -3.236,0.529l0,-14.529c0,-2.757 -2.243,-5 -5,-5l-24,0c-2.757,0 -5,2.243 -5,5l0,52c0,2.757 2.243,5 5,5l24,0c2.757,0 5,-2.243 5,-5l0,-19.189c0.171,0.086 0.346,0.162 0.511,0.261l0.949,0.57c0.832,0.499 1.737,0.851 2.672,1.076l-0.625,1.183c-0.986,1.866 -1.507,3.966 -1.507,6.099c0,7.168 5.832,13 13,13s13,-5.832 13,-13.024c0,-2.109 -0.521,-4.209 -1.507,-6.074zm-21.493,-25.902c0,-0.551 0.448,-1 1,-1c0.743,0 1.078,0.297 1.583,0.747c0.595,0.529 1.408,1.253 2.912,1.253c1.505,0 2.319,-0.724 2.914,-1.252c0.507,-0.451 0.841,-0.748 1.586,-0.748s1.08,0.297 1.587,0.748c0.595,0.528 1.409,1.252 2.915,1.252s2.321,-0.724 2.916,-1.252c0.507,-0.451 0.842,-0.748 1.587,-0.748c0.552,0 1,0.449 1,1l0,0.469c0,0.174 -0.046,0.345 -0.132,0.496l-3.448,6.035l-12.84,0l-3.448,-6.036c-0.086,-0.15 -0.132,-0.321 -0.132,-0.495l0,-0.469zm-34,-13l24,0c1.654,0 3,1.346 3,3l0,3l-30,0l0,-3c0,-1.654 1.346,-3 3,-3zm24,58l-24,0c-1.654,0 -3,-1.346 -3,-3l0,-3l30,0l0,3c0,1.654 -1.346,3 -3,3zm3,-8l-30,0l0,-42l30,0l0,10.343c-0.642,0.265 -1.313,0.453 -2,0.555l0,-8.898l-26,0l0,38l26,0l0,-13l0.639,0c0.459,0 0.913,0.057 1.361,0.14l0,14.86zm-18,-33l0,20l12,0l0,-2l2,0l0,11l-22,0l0,-34l22,0l0,7l-2,0l0,-2l-12,0zm6,6l0,12l-4,0l0,-16l4,0l0,2l2,0l0,-2l2,0l0,16l-2,0l0,-12l-2,0zm15.54,11.357c-1.48,-0.888 -3.176,-1.357 -4.901,-1.357l-4.639,0l0,-12l2.764,0c1.617,0 3.237,-0.382 4.684,-1.105c1.17,-0.585 2.48,-0.895 3.789,-0.895l2.469,0l1.714,3l16.58,0c0.552,0 1,0.449 1,1s-0.448,1 -1,1l-2,0l-6,0l-6,0l0,2l6,0l6,0c0.552,0 1,0.449 1,1s-0.448,1 -1,1l-6,0l-6,0l0,2l6,0l6,0c0.552,0 1,0.449 1,1s-0.448,1 -1,1l-12,0l0,2l12,0c0.552,0 1,0.449 1,1s-0.448,1 -1,1l-15.639,0c-1.363,0 -2.703,-0.371 -3.872,-1.072l-0.949,-0.571zm13.46,21.643c-6.065,0 -11,-4.935 -11,-11.024c0,-1.784 0.44,-3.562 1.274,-5.139l0.974,-1.844c0.038,0 0.075,0.008 0.112,0.008l15.64,0c0.56,0 1.078,-0.164 1.527,-0.432l1.199,2.268c0.834,1.577 1.274,3.354 1.274,5.163c0,6.065 -4.935,11 -11,11z"/>
  <path fill="#9fffe0" id="svg_3" d="m50,47c0.552,0 1,0.449 1,1l2,0c0,-1.302 -0.839,-2.402 -2,-2.816l0,-2.184l-2,0l0,2.184c-1.161,0.414 -2,1.514 -2,2.816c0,1.654 1.346,3 3,3c0.552,0 1,0.449 1,1s-0.448,1 -1,1s-1,-0.449 -1,-1l-2,0c0,1.302 0.839,2.402 2,2.816l0,2.184l2,0l0,-2.184c1.161,-0.414 2,-1.514 2,-2.816c0,-1.654 -1.346,-3 -3,-3c-0.552,0 -1,-0.449 -1,-1s0.448,-1 1,-1z"/>
  <rect fill="#cccccc" id="svg_4" y="5" x="14" width="8" height="2"/>
  <rect fill="#cccccc" id="svg_5" y="5" x="24" width="2" height="2"/>
  <rect fill="#cccccc" id="svg_6" y="5" x="10" width="2" height="2"/>
  <rect fill="#cccccc" id="svg_7" y="57" x="15" width="6" height="2"/>
 </g>
</svg>