<?xml version="1.0" encoding="UTF-8" standalone="no"?>
<!DOCTYPE svg PUBLIC "-//W3C//DTD SVG 1.1//EN" "http://www.w3.org/Graphics/SVG/1.1/DTD/svg11.dtd">
<svg width="100%" height="100%" viewBox="0 0 117 98" version="1.1" xmlns="http://www.w3.org/2000/svg" xmlns:xlink="http://www.w3.org/1999/xlink" xml:space="preserve" xmlns:serif="http://www.serif.com/" style="fill-rule:evenodd;clip-rule:evenodd;stroke-linejoin:round;stroke-miterlimit:2;">
    <g transform="matrix(0.120518,0,0,0.120518,-9.95081,-1.45875)">
        <path d="M89.15,820.67L86.021,819.303L82.567,810.261L86.074,799.606L94.516,791.106L103.712,791.106L110.78,794.476L110.78,796.106L104.689,796.106L102.234,798.56L99.78,801.015L99.81,806.606L101.71,809.606L119.28,809.529L134.533,803.934L140.83,800.105L142.78,794.975L142.78,788.551L145.893,784.106L149.64,784.106L162.28,789.912L174.28,794.895L190.911,799.36L205.28,798.357L216.734,793.979L220.981,788.015L221.175,781.155L216.432,776.106L208.455,776.106L198.933,782.216L190.498,791.367L191.207,788.486L191.916,785.606L198.28,773.007L207.833,760.247L217.28,752.378L229.324,746.14L240.053,744.105L253.462,744.105L262.744,746.898L279.211,762.197L290.138,769.45L304.204,775.36L316.279,775.448L322.658,772.117L325.779,767.66L325.779,763.841L321.444,756.605L318.862,753.997L316.279,751.389L301.779,742.118L301.779,741.268L315.279,736.662L333.279,736.69L350.985,742.232L351.944,741.274L329.279,725.196L309.279,714.813L296.279,706.172L283.259,693.606L272.216,680.606L263.968,668.558L253.092,647.536L246.825,630.606L242.279,612.606L242.343,575.606L247.866,556.606L261.712,528.606L263.683,522.42L265.655,516.234L267.793,497.058L265.717,478.606L260.106,466.606L250.722,456.971L239.722,452.106L228.092,452.106L216.702,456.025L210.921,460.142L206.78,466.842L206.78,478.166L211.78,490.045L211.75,498.605L209.28,503.409L207.78,504.222L206.28,505.034L175.28,519.958L163.168,527.811L149.558,540.543L141.825,551.93L136.78,566.958L136.78,570.723L133.997,574.53L131.177,572.19L116.891,569.83L107.719,556.037L101.78,545.06L101.788,537.605L106.053,530.605L118.448,516.605L124.512,507.605L129.856,497.023L129.281,468.396L136.847,453.881L148.18,440.105L149.515,440.105L158.637,426.509L169.729,404.442L174.776,385.605L174.782,375.18L170.696,364.26L162.853,357.175L157.568,354.39L152.28,351.605L160.2,350.959L172.28,354.335L180.064,358.291L189.661,367.267L196.242,382.605L196.28,405.954L202.132,398.605L213.342,387.459L230.386,376.35L248.279,368.028L251.751,366.107L271.28,360.955L287.28,360.022L282.418,363.606L263.279,371.62L250.842,378.351L235.779,391.255L235.779,393.339L240.279,392.026L253.279,389.857L273.279,390.898L291.285,395.997L303.26,401.293L319.665,411.986L337.201,429.017L335.842,430.377L331.279,427.429L321.279,423.761L319.279,422.339L299.294,416.039L284.779,414.812L284.779,417.879L298.279,420.372L311.227,425.185L321.279,431.553L333.033,442.606L344.44,457.606L352.05,469.568L360.779,485.349L360.779,486.48L355.279,481.427L343.279,472.433L329.477,464.764L330.884,470.605L342.438,491.605L346.574,501.605L348.642,512.605L349.848,526.605L347.637,546.605L342.572,561.605L335.535,574.367L329.673,583.053L327.779,584.223L327.779,581.203L330.925,569.605L332.067,539.105L327.752,539.105L323.067,549.605L317.803,566.605L315.819,580.605L315.779,595.738L317.969,607.605L322.735,618.938L328.586,627.605L341.339,639.848L352.547,647.017L366.28,653.684L381.28,658.963L399.28,663.943L425.28,669.022L456.28,673.245L474.149,675.202L482.03,674.605L487.28,664.605L487.28,643.605L480.52,631.675L473.491,623.266L460.279,612.526L438.279,596.699L411.159,569.604L397.08,550.604L387.621,535.836L377.846,516.604L373.59,506.604L367.925,490.604L361.866,466.604L359.882,450.604L357.579,424.936L359.868,397.604L361.938,380.604L367.733,356.604L375.904,334.604L383.949,310.604L389.874,284.604L391.926,262.758L389.782,243.603L385.078,228.603L379.984,218.574L370.43,205.865L355.74,193.331L342.279,186.322L325.279,181.231L308.877,179.022L298.527,180.395L281.279,194.328L276.279,196.259L264.59,199.267L258.712,196.833L254.627,191.603L229.372,165.603L215.013,153.593L199.724,144.846L182.279,138.703L151.779,138.983L151.761,126.603L150.593,116.603L155.278,110.221L167.227,95.603L171.278,92.058L179.168,87.864L189.62,88.943L212.278,98.932L227.278,103.554L245.278,103.528L262.278,94.604L283.278,94.603L300.278,100.413L316.965,108.136L325.277,110.055L340.277,110.096L357.277,107.315L371.277,102.795L383.269,96.603L398.778,81.838L398.778,88.684L395.795,100.138L390.886,109.825L380.535,121.151L368.464,128.226L358.778,130.704L361.178,133.104L363.858,133.104L372.278,137.4L390.278,141.964L405.556,146.074L433.278,155.333L454.415,163.933L473.831,173.38L474.897,175.104L472.279,175.073L456.442,171.083L438.279,168.982L419.279,169.604L419.611,171.604L445.349,184.668L461.279,196.555L479.38,214.604L488.632,227.653L495.862,240.445L501.617,254.604L502.993,259.354L500.813,258.007L492.119,244.604L481.72,233.26L470.704,225.948L458.704,221.895L451.848,223.182L450.926,224.674L465.003,235.604L477.713,249.453L484.688,263.604L487.905,275.604L488.999,303.604L485.745,328.2L483.505,337.605L482.992,339.105L482.478,340.605L480.03,320.605L474.821,299.11L470.552,290.605L466.487,286.167L465.161,286.986L471.084,319.605L471.25,354.605L466.7,374.433L460.469,389.401L450.821,403.825L447.479,406.599L448.239,403.103L448.999,399.606L449.459,377.226L449.918,354.846L448.155,353.083L443.864,363.606L437.94,382.606L433.839,399.606L431.727,412.606L431.114,426.106L430.5,439.606L432.898,460.158L438.987,480.606L448.841,500.276L460.536,517.606L475.544,534.606L489.174,546.606L500.62,555.606L512.235,563.606L526.183,572.35L537.277,578.367L556.277,587.908L577.237,597.307L603.862,610.354L605.218,608.998L600.563,590.606L591.089,571.606L586.239,564.606L560.464,530.106L558.776,530.106L558.784,545.606L563.639,574.606L568.069,586.147L567.566,586.65L567.062,587.153L564.276,586.033L552.899,570.316L543.903,553.607L537.839,536.899L533.862,510.607L533.898,501.607L536.874,478.607L538.953,471.607L556.703,434.607L558.048,428.886L553.275,430.321L543.275,436.496L530.282,446.607L518.792,457.107L516.598,457.107L529.013,433.607L539.503,417.455L551.072,401.607L572.303,380.607L587.853,369.933L605.336,361.246L621.275,355.458L633.507,352.89L636.274,351.134L630.274,346.072L624.274,342.741L600.716,341.858L579.593,346.312L564.274,352.01L549.567,358.106L548.775,358.106L548.775,356.391L562.911,345.128L575.87,337.88L592.274,330.923L604.774,327.026L604.649,325.606L591.274,314.076L583.274,306.519L566.274,288.519L556.307,276.173L554.893,277.606L557.84,300.606L562.925,320.606L568.54,334.606L567.572,335.606L552.953,320.145L543.969,306.606L538.607,296.606L532.889,282.343L528.273,263.605L528.344,222.605L532.86,188.605L537.737,168.735L536.837,167.836L530.273,170.467L512.273,180.484L502.273,187.031L492.773,194.125L492.773,191.722L503.205,175.606L518.263,155.606L541.273,132.501L558.807,120.098L575.273,111.211L592.273,105.227L614.273,100.014L636.273,97.831L639.273,96.24L636.273,95.384L623.273,91.895L602.273,86.179L575.587,86.106L555.273,90.17L532.62,97.286L531.633,96.299L540.273,90.451L551.273,84.26L561.982,80.052L580.273,75.199L603.273,72.863L634.273,74.139L646.273,75.98L669.143,80.197L688.744,86.02L692.642,88.106L695.773,88.106L695.773,79.049L689.57,66.759L673.274,50.529L650.913,34.606L647.273,32.223L652.273,32.141L665.851,35.018L684.764,44.279L688.561,49.106L691.171,49.106L732.272,89.623L749.272,99.393L767.272,110.477L774.772,116.274L774.772,114.398L764.025,91.605L757.863,72.605L753.704,55.605L751.475,36.605L752.201,29.879L752.927,23.152L758.273,12.694L760.273,12.104L759.6,29.605L764.63,48.605L769.569,61.605L780.91,84.143L796.659,107.978L810.752,122.814L823.273,129.43L840.143,140.474L855.498,155.829L860.892,167.232L864.626,186.605L868.086,193.605L878.636,205.756L889.274,213.924L915.274,230.191L923.527,238.728L924.651,243.97L925.776,249.212L921.614,269.605L918.977,277.605L916.808,285.691L910.26,288.059L895.274,297.072L893.173,297.105L888.573,287.605L879.827,275.321L864.806,261.48L849.549,252.751L832.991,246.177L809.273,240.299L780.273,236.009L766.771,233.924L762.889,230.605L756.273,217.605L756.273,184.605L751.77,176.18L743.598,168.089L729.273,158.786L715.273,151.266L698.273,146.146L682.273,143.888L665.682,145.124L651.476,150.087L641.695,156.363L634.79,164.789L628.296,178.605L628.273,207.605L634.901,225.605L643.69,241.761L655.273,257.931L673.106,278.229L681.718,285.81L696.272,290.296L714.272,296.465L730.272,302.222L738.995,305.077L755.272,307.062L782.648,309.21L788.905,311.004L788.589,310.205L788.272,309.405L767.821,293.004L754.763,278.032L748.547,265.717L747.561,254.605L749.399,247.605L752.247,247.605L753.614,257.16L759.05,266.436L767.329,274.715L779.057,283.379L799.756,293.142L814.166,298.34L829.272,301.036L842.272,301.172L865.513,305.86L879.97,313.457L886.123,319.605L896.703,333.906L902.116,338.164L911.272,342.291L920.272,344.914L939.272,348.048L961.949,349.927L971.254,355.68L976.618,366.605L978.846,378.605L981.075,390.605L981.518,394.252L981.962,397.899L973.272,408.61L968.275,418.105L967.072,418.105L958.48,411.881L949.272,406.472L934.272,401.129L921.272,399.12L901.917,399.104L886.272,401.215L864.272,407.218L842.272,415.004L830.474,418.332L823.752,415.127L814.593,406.684L809.759,397.146L805.778,386.506L799.739,376.984L787.271,371.192L774.271,369.119L768.021,369.111L761.771,369.105L761.771,370.331L771.482,387.605L775.937,397.605L782.694,416.605L787.639,437.605L790.051,461.605L788.785,486.605L785.89,531.605L783.699,560.605L780.796,582.605L776.765,605.359L773.771,614.176L773.767,617.606L762.729,650.222L751.149,674.605L740.529,692.605L727.914,711.105L733.273,711.065L759.273,708.175L786.273,703.27L800.576,699.355L815.273,693.743L826.458,687.194L836.712,677.974L843.274,664.646L843.199,643.604L837.502,627.604L832.132,617.604L825.583,606.104L823.508,604.822L824.966,616.492L829.539,636.604L832.972,647.008L832.592,648.148L832.212,649.289L824.613,641.459L814.832,626.795L808.462,611.604L805.844,599.604L805.774,581.28L808.706,565.953L814.867,547.864L814.151,547.148L806.98,556.604L792.639,578.302L791.575,577.238L794.075,569.604L805.861,543.604L814.167,529.604L820.166,521.604L829.252,511.604L838.129,504.193L849.774,497.987L849.774,495.825L840.274,496.966L828.274,502.425L810.274,512.401L806.774,515.414L806.774,512.324L815.443,500.604L829.536,487.364L838.274,481.431L848.274,476.156L862.274,471.241L878.274,469.084L890.274,468.604L878.511,460.961L866.274,455.431L850.274,451.097L841.774,449.027L841.774,447.354L848.024,446.104L859.558,446.104L880.117,450.226L892.274,454.329L908.274,461.43L914.274,465.564L925.879,475.333L926.691,474.521L923.846,462.604L923.774,453.315L927.753,440.434L933.661,432.278L943.093,425.788L957.774,421.259L957.774,423.008L949.005,429.042L943.923,435.081L941.487,445.966L943.868,458.066L949.085,469.604L959.037,484.604L964.052,490.82L969.068,497.035L976.786,502.384L983.888,509.86L990.99,517.337L993.002,521.886L995.015,526.435L995.775,536.112L996.536,545.789L997.792,548.196L999.048,550.604L1005.88,560.019L1024.75,576.159L1027.77,582.005L1027.77,587.953L1024.82,595.279L1021.87,602.604L1017.84,610.869L1011.08,612.137L1002.87,616.104L1002.01,616.104L997.472,604.604L990.786,594.282L978.502,583.166L969.888,578.75L961.274,574.335L949.274,570.242L928.274,563.913L925.881,561.604L923.368,552.136L926.784,542.604L926.774,535.005L923.846,529.343L917.853,524.3L908.77,520.831L896.002,521.856L885.346,527.605L879.01,535.952L874.775,548.493L874.815,563.605L879.544,581.605L884.942,593.605L896.856,610.055L902.811,622.781L905.998,636.606L906.97,651.758L902.582,673.434L896.809,687.852L889.785,700.278L880.274,714.552L859.385,736.237L846.815,745.605L821.692,758.605L815.273,762.009L816.393,762.105L847.86,751.114L866.757,748.885L869.773,750.042L869.773,752.191L859.577,761.584L854.773,769.781L854.773,776.059L859.561,779.196L865.273,777.825L871.273,774.801L881.876,766.171L888.456,764.354L898.273,765.923L919.273,775.839L929.273,779.883L955.273,789.979L966.273,793.996L991.273,800.544L1013.27,800.605L1019,797.922L1024.72,795.24L1028.77,788.605L1028.77,783.259L1026.13,780.133L1023.5,777.007L1013.67,772.02L1001.26,770.866L993.765,774.003L993.765,778.809L998.345,785.605L1005.19,785.605L1007.54,782.105L1009.9,778.605L1012.26,778.605L1012.56,782.637L1012.86,786.668L1008.26,790.904L1003.48,792.504L998.695,794.105L990.701,794.105L983.887,791.258L981.217,787.029L978.548,782.801L978.02,776.985L977.493,771.169L980.934,765.917L992.265,760.605L1016.26,760.694L1032.13,767.23L1038.27,771.422L1044.94,777.605L1049.24,785.605L1049.27,802.605L1044.64,811.986L1038.48,818.012L1031.27,821.605L92.266,822.037L89.136,820.67L89.15,820.67ZM690.55,546.69L695.743,536.272L700.074,525.609L706.749,503.609L711.178,467.994L707.638,443.609L702.535,428.609L694.702,412.609L683.278,395.728L679.969,393.74L662.278,405.448L651.278,413.978L642.09,422.609L633.769,433.3L626.914,445.609L623.778,459.234L623.778,465.255L627.996,482.609L634.792,495.609L644.596,508.609L670.956,537.609L683.802,557.109L685.358,557.109L690.55,546.69ZM981.841,547.109L982.879,544.405L980.692,538.007L978.505,531.608L971.776,522.336L966.883,519.131L964.05,520.218L961.779,525.202L961.779,530.108L964.625,530.108L970.835,535.334L979.895,547.109L981.841,547.109ZM147.471,494.109L150.489,490.609L156.28,479.609L165.78,470.014L165.78,467.573L160.827,460.284L156.685,461.367L151.86,467.693L146.888,478.609L146.196,486.359L145.505,494.109L147.471,494.109ZM883.831,351.964L877.629,344.134L870.281,338.013L855.64,331.019L845.281,329.128L839.281,330.745L838.687,337.668L841.301,345.613L854.281,344.965L862.281,347.025L882.281,352.887L883.056,352.426L883.831,351.964ZM839.916,182.539L835.924,174.219L822.669,160.964L815.845,158.113L812.151,158.113L808.944,164.837L808.249,169.475L807.553,174.112L812.388,174.112L822.28,179.072L843.28,198.845L843.594,194.852L843.908,190.858L839.916,182.539ZM284.572,135.113L290.78,128.043L290.78,124.258L285.729,120.285L271.309,117.853L255.885,119.042L248.604,122.084L249.425,124.55L274.317,130.613L281.279,135.079L282.926,135.096L284.572,135.113Z" style="fill:rgb(121,68,252);fill-rule:nonzero;"/>
    </g>
</svg>
