<svg width="512" height="512" xmlns="http://www.w3.org/2000/svg">

 <g>
  <title>background</title>
  <rect fill="none" id="canvas_background" height="402" width="582" y="-1" x="-1"/>
 </g>
 <g>
  <title>Layer 1</title>
  <path id="svg_2" fill="none" stroke="#000000" stroke-width="20" stroke-linecap="round" stroke-linejoin="round" stroke-miterlimit="10" d="m485.998,51.363l0,409.173c0,14.065 -11.396,25.36 -25.36,25.36l-117.258,0l0,-178.043l59.757,0l8.935,-69.41l-68.795,0l0,-44.357c0,-20.125 5.545,-33.78 34.397,-33.78l36.759,0l0,-62.122c-6.367,-0.821 -28.134,-2.771 -53.599,-2.771c-52.981,0 -89.33,32.343 -89.33,91.794l0,51.236l-59.963,0l0,69.41l59.963,0l0,178.146l-220.14,0c-13.965,0 -25.362,-11.397 -25.362,-25.362l0,-409.274c0,-13.965 11.397,-25.362 25.362,-25.362l409.171,0c14.068,0 25.463,11.397 25.463,25.362z"/>
 </g>
</svg>