<svg width="32" height="32" xmlns="http://www.w3.org/2000/svg">

 <g>
  <title>background</title>
  <rect fill="none" id="canvas_background" height="402" width="582" y="-1" x="-1"/>
 </g>
 <g>
  <title>Layer 1</title>
  <path id="svg_2" fill="#263238" d="m15.5,30l-11,0c-1.378,0 -2.5,-1.121 -2.5,-2.5l0,-19.5c0,-0.276 0.224,-0.5 0.5,-0.5s0.5,0.224 0.5,0.5l0,19.5c0,0.827 0.673,1.5 1.5,1.5l11,0c0.276,0 0.5,0.224 0.5,0.5s-0.224,0.5 -0.5,0.5z"/>
  <path id="svg_3" fill="#263238" d="m27.5,30l-6,0c-0.276,0 -0.5,-0.224 -0.5,-0.5l0,-10c0,-0.276 0.224,-0.5 0.5,-0.5l3.059,0l0.375,-3l-3.434,0c-0.276,0 -0.5,-0.224 -0.5,-0.5l0,-4c0,-0.827 0.673,-1.5 1.5,-1.5l2.5,0l0,-3l-3.5,0c-1.93,0 -3.5,1.57 -3.5,3.5l0,5c0,0.276 -0.224,0.5 -0.5,0.5l-3.5,0l0,3l3.5,0c0.276,0 0.5,0.224 0.5,0.5l0,10c0,0.276 -0.224,0.5 -0.5,0.5s-0.5,-0.224 -0.5,-0.5l0,-9.5l-3.5,0c-0.276,0 -0.5,-0.224 -0.5,-0.5l0,-4c0,-0.276 0.224,-0.5 0.5,-0.5l3.5,0l0,-4.5c0,-2.481 2.019,-4.5 4.5,-4.5l4,0c0.276,0 0.5,0.224 0.5,0.5l0,4c0,0.276 -0.224,0.5 -0.5,0.5l-3,0c-0.276,0 -0.5,0.225 -0.5,0.5l0,3.5l3.5,0c0.144,0 0.28,0.062 0.375,0.169c0.095,0.107 0.139,0.251 0.121,0.394l-0.5,4c-0.031,0.25 -0.244,0.437 -0.496,0.437l-3,0l0,9l5.5,0c0.827,0 1.5,-0.673 1.5,-1.5l0,-23c0,-0.827 -0.673,-1.5 -1.5,-1.5l-23,0c-0.827,0 -1.5,0.673 -1.5,1.5l0,1c0,0.276 -0.224,0.5 -0.5,0.5s-0.5,-0.224 -0.5,-0.5l0,-1c0,-1.379 1.122,-2.5 2.5,-2.5l23,0c1.378,0 2.5,1.121 2.5,2.5l0,23c0,1.379 -1.122,2.5 -2.5,2.5z"/>
 </g>
</svg>