<svg width="48" height="48" xmlns="http://www.w3.org/2000/svg">

 <g>
  <title>background</title>
  <rect fill="none" id="canvas_background" height="402" width="582" y="-1" x="-1"/>
 </g>
 <g>
  <title>Layer 1</title>
  <path fill="#9fffe0" id="svg_3" d="m20,28c-1.104,0 -2,0.896 -2,2s0.896,2 2,2s2,-0.896 2,-2s-0.896,-2 -2,-2l0,0z"/>
  <path fill="#cccccc" id="svg_6" d="m20,26c2.206,0 4,1.794 4,4s-1.794,4 -4,4s-4,-1.794 -4,-4s1.794,-4 4,-4m0,-2c-3.314,0 -6,2.687 -6,6c0,3.314 2.686,6 6,6c3.313,0 6,-2.686 6,-6c0,-3.314 -2.687,-6 -6,-6l0,0z"/>
  <path fill="#cccccc" id="svg_9" d="m20,20c5.514,0 10,4.486 10,10s-4.486,10 -10,10s-10,-4.486 -10,-10s4.486,-10 10,-10m0,-2c-6.627,0 -12,5.373 -12,12s5.373,12 12,12s12,-5.373 12,-12s-5.373,-12 -12,-12l0,0z"/>
  <path fill="#cccccc" id="svg_12" d="m20,14c8.822,0 16,7.178 16,16s-7.178,16 -16,16s-16,-7.178 -16,-16s7.178,-16 16,-16m0,-2c-9.94,0 -18,8.06 -18,18s8.06,18 18,18c9.94,0 18,-8.06 18,-18s-8.06,-18 -18,-18l0,0z"/>
  <rect fill="#cccccc" id="svg_14" y="3.372454" x="29.928454" width="2" transform="matrix(0.7071,0.7071,-0.7071,0.7071,22.5147,-16.3553) " height="31.113"/>
  <path fill="#9fffe0" id="svg_17" d="m41,4.911l0,2.089l0,2l2,0l2.084,0c-1.31,2.891 -3.447,6.24 -5.66,6.24c-0.899,0 -1.912,-0.557 -3.01,-1.654c-1.975,-1.975 -1.683,-3.165 -1.587,-3.556c0.486,-1.983 3.44,-3.884 6.173,-5.119m2,-2.911c0,0 -16,5 -8,13c1.6,1.6 3.08,2.24 4.424,2.24c5.376,0 8.576,-10.24 8.576,-10.24l-5,0l0,-5l0,0z"/>
  <rect fill="#9fffe0" id="svg_19" y="5" x="37" width="2" height="7"/>
  <path fill="#cccccc" id="svg_21" d="m3,48c-0.256,0 -0.512,-0.098 -0.707,-0.293c-0.391,-0.391 -0.391,-1.023 0,-1.414l4.272,-4.272c0.391,-0.391 1.023,-0.391 1.414,0s0.391,1.023 0,1.414l-4.272,4.272c-0.195,0.195 -0.451,0.293 -0.707,0.293z"/>
  <path fill="#cccccc" id="svg_23" d="m37,48c-0.256,0 -0.512,-0.098 -0.707,-0.293l-4.273,-4.273c-0.391,-0.391 -0.391,-1.023 0,-1.414s1.023,-0.391 1.414,0l4.273,4.273c0.391,0.391 0.391,1.023 0,1.414c-0.195,0.195 -0.451,0.293 -0.707,0.293z"/>
 </g>
</svg>