<svg width="335.45" height="368.09" xmlns="http://www.w3.org/2000/svg">

 <title/>
 <g>
  <title>background</title>
  <rect fill="none" id="canvas_background" height="402" width="582" y="-1" x="-1"/>
 </g>
 <g>
  <title>Layer 1</title>
  <rect fill="#ffffff" id="svg_1" y="12.18" x="7.92" width="265" ry="36.38" rx="36.38" height="350" class="cls-1"/>
  <path fill="#e5e5e5" id="svg_2" d="m5.18,326.17l0,-22.17a37.59,37.59 0 0 0 37.59,37.6l195,0a37.59,37.59 0 0 0 37.56,-37.6l0,22.15a37.59,37.59 0 0 1 -37.59,37.59l-195,0a37.59,37.59 0 0 1 -37.56,-37.57z" class="cls-2"/>
  <path stroke="#000000" fill="#000000" id="svg_3" d="m238.56,367.382308l-195,0a43.64,43.64 0 0 1 -43.56,-43.58l0,-280.92a43.64,43.64 0 0 1 43.59,-43.59l195,0a43.64,43.64 0 0 1 43.59,43.59l0,79.41l-12,0l0,-79.41a31.62,31.62 0 0 0 -31.62,-31.59l-195,0a31.62,31.62 0 0 0 -31.56,31.59l0,280.92a31.62,31.62 0 0 0 31.59,31.59l195,0a31.62,31.62 0 0 0 31.59,-31.59l0,-44.58l12,0l0,44.58a43.64,43.64 0 0 1 -43.62,43.58z" class="cls-3"/>
  <path fill="#000000" id="svg_4" d="m61.547692,112.86l0,-19.52q0,-9 4.9,-13.18t12.78,-4.16q8.1,0 13.29,3.9a12.71,12.71 0 0 1 5.19,10.72q0,3.17 -1.33,4.31t-4.42,1.14q-5.67,0 -5.74,-3.46a17.2,17.2 0 0 0 -0.07,-1.73a7.83,7.83 0 0 0 -0.44,-1.73a3.86,3.86 0 0 0 -1,-1.62a6.22,6.22 0 0 0 -2,-1.07a8.77,8.77 0 0 0 -3,-0.46q-6.63,0 -6.63,7.36l0,19.51q0,7.37 6.55,7.36t6.63,-7.36l0,-2.5l-4.38,0a3,3 0 0 1 -2.54,-1.29a5.56,5.56 0 0 1 0,-6.19a2.93,2.93 0 0 1 2.5,-1.36l12.41,0a3.18,3.18 0 0 1 2.54,1.07a3.76,3.76 0 0 1 0.92,2.54l0,7.73q0,9 -4.93,13.18t-13.18,4.2q-8.17,0 -13.11,-4.2t-4.94,-13.19z" class="cls-3"/>
  <path fill="#000000" id="svg_5" d="m103.63,126.34l0,-46.91a3,3 0 0 1 1.37,-2.43a5.92,5.92 0 0 1 3.61,-1l13,0q8.25,0 13.18,4.2t4.93,13.18l0,19.07q0,9 -4.93,13.18t-13.18,4.2l-13,0a5.92,5.92 0 0 1 -3.61,-1a3,3 0 0 1 -1.37,-2.49zm11.49,-6.55l6.55,0q6.63,0 6.63,-7.36l0,-19.09q0,-7.36 -6.63,-7.36l-6.55,0l0,33.81z" class="cls-3"/>
  <path fill="#000000" id="svg_6" d="m147.08,126.26l0,-46.83a3.14,3.14 0 0 1 1.17,-2.43a4.52,4.52 0 0 1 3.09,-1l15.24,0q7.88,0 12.63,4.09t4.79,12.81l0,0.37q0,8.76 -5,12.92t-13.15,4.16l-7.29,0l0,15.91a2.86,2.86 0 0 1 -1.69,2.61a9.37,9.37 0 0 1 -8.1,0a2.86,2.86 0 0 1 -1.69,-2.61zm11.49,-24.74l7.29,0q6.63,0 6.63,-7.36l0,-0.81q0,-7.36 -6.63,-7.36l-7.29,0l0,15.53z" class="cls-3"/>
  <path fill="#000000" id="svg_7" d="m189,126.26l0,-46.83a3.46,3.46 0 0 1 3.51,-3.43l15.24,0q18.12,0 18.12,15.76q0,11.49 -8.91,14.95l9,16.27a2.23,2.23 0 0 1 0.37,1.33a5.35,5.35 0 0 1 -2.32,4.05a7.58,7.58 0 0 1 -4.9,1.91a3.82,3.82 0 0 1 -3.68,-2.13l-10.09,-19.59l-4.86,0l0,17.75a2.86,2.86 0 0 1 -1.69,2.61a9.37,9.37 0 0 1 -8.1,0a2.86,2.86 0 0 1 -1.69,-2.65zm11.49,-26.58l7.29,0a7,7 0 0 0 4.93,-1.58q1.69,-1.58 1.69,-5.27t-1.69,-5.26a7,7 0 0 0 -4.96,-1.57l-7.29,0l0.03,13.68z" class="cls-3"/>
  <rect fill="#cc0066" id="svg_8" y="161.722308" x="57.46" width="92" height="12" class="cls-3"/>
  <rect fill="#cc0066" id="svg_9" y="191.39" x="57.46" width="92" height="12" class="cls-3"/>
  <rect fill="#cc0066" id="svg_10" y="220.36" x="57.46" width="92" height="12" class="cls-3"/>
  <path fill="#cc0066" id="svg_11" d="m276.81,269.38s52.64,-26.32 52.64,-65.8l0,-52.63l-52.64,-13.16l-52.64,13.16l0,52.64c0.01,39.47 52.64,65.79 52.64,65.79z" class="cls-4"/>
  <path fill="#cc0066" id="svg_12" d="m329.45,178.58l0,22c0,39.48 -52.64,65.8 -52.64,65.8s-52.63,-26.32 -52.63,-65.8l0,-22c0,39.48 52.63,65.8 52.63,65.8s52.64,-26.32 52.64,-65.8z" class="cls-5"/>
  <path fill="#000000" id="svg_13" d="m276.81,271.942308l-2.68,-1.34c-2.28,-1.14 -56,-28.47 -56,-71.16l0,-57.32l58.64,-14.66l58.64,14.66l0,57.32c0,42.7 -53.67,70 -56,71.16l-2.6,1.34zm-46.63,-120.45l0,48c0,30.5 36.33,53.16 46.63,59c10.29,-5.82 46.64,-28.55 46.64,-59l0,-48l-46.64,-11.66l-46.63,11.66z" class="cls-3"/>
  <path fill="#f9f9f9" id="svg_14" d="m250.25,163.07l15.5,-3l10.65,-2.07c1.16,-0.22 2.37,-0.37 3.51,-0.68c1.79,-0.48 1,0.38 -0.17,-0.23c1.58,0.86 3.93,1.11 5.65,1.59l10.74,3l15.52,4.37c3.72,1 5.31,-4.74 1.6,-5.79l-16,-4.5c-5.1,-1.43 -10.73,-3.92 -16,-4.5c-5,-0.55 -11.25,1.87 -16.13,2.81l-16.47,3.19c-3.79,0.73 -2.18,6.52 1.6,5.79l0,0.02z" class="cls-6"/>
  <path fill="#000000" id="svg_16" d="m40.123077,36.657692l34.77,0c3.86,0 3.87,-6 0,-6l-34.77,0c-3.86,0 -3.87,6 0,6z" class="cls-8"/>
  <path fill="#000000" opacity="0.92" id="svg_17" d="m87.17,35.95l86.34,0c3.86,0 3.87,-6 0,-6l-86.34,0c-3.86,0 -3.87,6 0,6z" class="cls-8"/>
 </g>
</svg>