<svg width="512" height="512" xmlns="http://www.w3.org/2000/svg">

 <g>
  <title>background</title>
  <rect fill="none" id="canvas_background" height="402" width="582" y="-1" x="-1"/>
 </g>
 <g>
  <title>Layer 1</title>
  <path id="svg_1" fill="#FBBB00" d="m113.47,309.408l-17.822,66.532l-65.139,1.378c-19.467,-36.107 -30.509,-77.418 -30.509,-121.318c0,-42.451 10.324,-82.483 28.624,-117.732l0.014,0l57.992,10.632l25.404,57.644c-5.317,15.501 -8.215,32.141 -8.215,49.456c0.002,18.792 3.406,36.797 9.651,53.408z"/>
  <path id="svg_2" fill="#518EF8" d="m507.527,208.176c2.94,15.486 4.473,31.479 4.473,47.824c0,18.328 -1.927,36.206 -5.598,53.451c-12.462,58.683 -45.025,109.925 -90.134,146.187l-0.014,-0.014l-73.044,-3.727l-10.338,-64.535c29.932,-17.554 53.324,-45.025 65.646,-77.911l-136.89,0l0,-101.275l138.887,0l107.012,0l0,0z"/>
  <path id="svg_3" fill="#28B446" d="m416.253,455.624l0.014,0.014c-43.871,35.263 -99.601,56.362 -160.267,56.362c-97.491,0 -182.252,-54.491 -225.491,-134.681l82.961,-67.91c21.619,57.698 77.278,98.771 142.53,98.771c28.047,0 54.323,-7.582 76.87,-20.818l83.383,68.262z"/>
  <path id="svg_4" fill="#F14336" d="m419.404,58.936l-82.933,67.896c-23.335,-14.586 -50.919,-23.012 -80.471,-23.012c-66.729,0 -123.429,42.957 -143.965,102.724l-83.397,-68.276l-0.014,0c42.606,-82.145 128.436,-138.268 227.376,-138.268c62.115,0 119.068,22.126 163.404,58.936z"/>
 </g>
</svg>