<svg width="250.8" height="312.79999999999995" xmlns="http://www.w3.org/2000/svg">

 <g>
  <title>background</title>
  <rect fill="none" id="canvas_background" height="402" width="582" y="-1" x="-1"/>
 </g>
 <g>
  <title>Layer 1</title>
  <path fill="#3c8bd9" id="svg_2" d="m85.9,28.6c2.4,-6.3 5.7,-12.1 10.6,-16.8c19.6,-19.1 52,-14.3 65.3,9.7c10,18.2 20.6,36 30.9,54c17.2,29.9 34.6,59.8 51.6,89.8c14.3,25.1 -1.2,56.8 -29.6,61.1c-17.4,2.6 -33.7,-5.4 -42.7,-21c-15.1,-26.3 -30.3,-52.6 -45.4,-78.8c-0.3,-0.6 -0.7,-1.1 -1.1,-1.6c-1.6,-1.3 -2.3,-3.2 -3.3,-4.9c-6.7,-11.8 -13.6,-23.5 -20.3,-35.2c-4.3,-7.6 -8.8,-15.1 -13.1,-22.7c-3.9,-6.8 -5.7,-14.2 -5.5,-22c0.3,-4 0.8,-8 2.6,-11.6" class="st0"/>
  <path fill="#fabc04" id="svg_3" d="m85.9,28.6c-0.9,3.6 -1.7,7.2 -1.9,11c-0.3,8.4 1.8,16.2 6,23.5c11,18.9 22,37.9 32.9,56.9c1,1.7 1.8,3.4 2.8,5c-6,10.4 -12,20.7 -18.1,31.1c-8.4,14.5 -16.8,29.1 -25.3,43.6c-0.4,0 -0.5,-0.2 -0.6,-0.5c-0.1,-0.8 0.2,-1.5 0.4,-2.3c4.1,-15 0.7,-28.3 -9.6,-39.7c-6.3,-6.9 -14.3,-10.8 -23.5,-12.1c-12,-1.7 -22.6,1.4 -32.1,8.9c-1.7,1.3 -2.8,3.2 -4.8,4.2c-0.4,0 -0.6,-0.2 -0.7,-0.5c4.8,-8.3 9.5,-16.6 14.3,-24.9c19.8,-34.4 39.6,-68.8 59.5,-103.1c0.2,-0.4 0.5,-0.7 0.7,-1.1" class="st1"/>
  <path fill="#34a852" id="svg_4" d="m11.8,158c1.9,-1.7 3.7,-3.5 5.7,-5.1c24.3,-19.2 60.8,-5.3 66.1,25.1c1.3,7.3 0.6,14.3 -1.6,21.3c-0.1,0.6 -0.2,1.1 -0.4,1.7c-0.9,1.6 -1.7,3.3 -2.7,4.9c-8.9,14.7 -22,22 -39.2,20.9c-19.7,-1.4 -35.2,-16.2 -37.9,-35.8c-1.3,-9.5 0.6,-18.4 5.5,-26.6c1,-1.8 2.2,-3.4 3.3,-5.2c0.5,-0.4 0.3,-1.2 1.2,-1.2" class="st2"/>
  <path fill="#fabc04" id="svg_5" d="m11.8,158c-0.4,0.4 -0.4,1.1 -1.1,1.2c-0.1,-0.7 0.3,-1.1 0.7,-1.6l0.4,0.4" class="st1"/>
  <path fill="#e1c025" id="svg_6" d="m81.6,201c-0.4,-0.7 0,-1.2 0.4,-1.7c0.1,0.1 0.3,0.3 0.4,0.4l-0.8,1.3" class="st3"/>
  <path fill="#757575" id="svg_7" d="m20.7,260.4c-11.3,0 -20.7,9.1 -20.7,20.3s9.4,20.2 20.7,20.2c6.1,0 10.6,-2 14.2,-5.7c3.7,-3.7 4.8,-8.8 4.8,-12.9c0,-1.3 -0.1,-2.5 -0.3,-3.5l-18.7,0l0,5.5l13.3,0c-0.4,3.1 -1.4,5.4 -3,7c-1.9,1.9 -5,4.1 -10.3,4.1c-8.2,0 -14.6,-6.6 -14.6,-14.7s6.4,-14.7 14.6,-14.7c4.4,0 7.7,1.7 10,4l3.9,-3.9c-3.3,-3.2 -7.7,-5.7 -13.9,-5.7zm33.9,14.5c-7.1,0 -13,5.5 -13,13.2c0,7.6 5.8,13.2 13,13.2s13,-5.6 13,-13.2s-5.9,-13.2 -13,-13.2m0,21.2c-3.9,0 -7.3,-3.3 -7.3,-8s3.4,-8 7.3,-8s7.3,3.2 7.3,8c0,4.7 -3.4,8 -7.3,8m28.2,-21.2c-7.2,0 -13,5.5 -13,13.2c0,7.6 5.8,13.2 13,13.2c7.1,0 13,-5.6 13,-13.2s-5.8,-13.2 -13,-13.2m0,21.2c-3.9,0 -7.3,-3.3 -7.3,-8s3.4,-8 7.3,-8s7.3,3.2 7.3,8c0,4.7 -3.3,8 -7.3,8m28.1,-21.2c-6.5,0 -12.4,5.7 -12.4,13.1c0,7.3 5.9,13 12.4,13c3.1,0 5.5,-1.4 6.8,-3l0.2,0l0,1.9c0,5 -2.6,7.7 -6.9,7.7c-3.5,0 -5.6,-2.5 -6.5,-4.6l-5,2.1c1.4,3.5 5.2,7.7 11.5,7.7c6.7,0 12.3,-4 12.3,-13.6l0,-23.4l-5.4,0l0,2.1l-0.2,0c-1.3,-1.6 -3.7,-3 -6.8,-3m0.5,21c-3.9,0 -7.2,-3.3 -7.2,-7.9s3.3,-8 7.2,-8c3.9,0 6.9,3.4 6.9,8s-3,7.9 -6.9,7.9m16.1,-33.9l5.7,0l0,38.6l-5.7,0l0,-38.6zm21,12.9c-6.8,0 -12.5,5.3 -12.5,13.2c0,7.4 5.6,13.2 13.1,13.2c6.1,0 9.6,-3.7 11,-5.8l-4.5,-3c-1.5,2.2 -3.6,3.6 -6.5,3.6c-3,0 -5.1,-1.3 -6.4,-4l17.7,-7.3l-0.6,-1.5c-1.1,-2.9 -4.5,-8.4 -11.3,-8.4m-6.8,12.8c-0.2,-5.1 4,-7.7 6.9,-7.7c2.3,0 4.3,1.1 4.9,2.8l-11.8,4.9z" class="st4"/>
  <path fill="#757575" id="svg_8" d="m170.4,300l13.2,-35.1l5.1,0l13.2,35.1l-5,0l-3.4,-9.5l-14.7,0l-3.4,9.5l-5,0zm9.9,-13.7l11.7,0l-5.7,-15.8l-0.2,0l-5.8,15.8z" class="st4"/>
  <path fill="#757575" id="svg_9" d="m206.5,297.1c-2.2,-2.5 -3.3,-5.5 -3.3,-9.1c0,-3.5 1.1,-6.5 3.3,-9.1c2.3,-2.5 4.9,-3.7 8.1,-3.7c1.8,0 3.4,0.4 4.8,1.1c1.5,0.8 2.6,1.7 3.4,3l0.2,0l-0.2,-3.3l0,-11.1l4.5,0l0,35.1l-4.3,0l0,-3.3l-0.2,0c-0.8,1.2 -1.9,2.2 -3.4,3s-3.1,1.1 -4.8,1.1c-3.2,0 -5.9,-1.2 -8.1,-3.7m14.2,-2.8c1.5,-1.6 2.2,-3.7 2.2,-6.3c0,-2.5 -0.7,-4.6 -2.2,-6.2c-1.4,-1.6 -3.2,-2.4 -5.4,-2.4s-4,0.8 -5.4,2.4c-1.5,1.6 -2.2,3.7 -2.2,6.2s0.7,4.6 2.2,6.2s3.3,2.4 5.4,2.4c2.2,0.1 4,-0.7 5.4,-2.3" class="st4"/>
  <path fill="#757575" id="svg_10" d="m248.1,298.6c-1.8,1.4 -4.1,2.2 -6.9,2.2c-2.4,0 -4.5,-0.6 -6.4,-1.9c-1.8,-1.3 -3.1,-2.9 -3.9,-5l4,-1.7c0.6,1.4 1.4,2.6 2.6,3.4c1.1,0.8 2.4,1.2 3.7,1.2c1.4,0 2.6,-0.3 3.6,-0.9s1.4,-1.4 1.4,-2.2c0,-1.5 -1.2,-2.7 -3.5,-3.4l-4.1,-1c-4.7,-1.2 -7,-3.4 -7,-6.8c0,-2.2 0.9,-3.9 2.7,-5.3c1.8,-1.3 4.1,-2 6.8,-2c2.1,0 4,0.5 5.8,1.5c1.7,1 2.9,2.4 3.6,4.1l-4,1.7c-0.5,-1 -1.2,-1.8 -2.2,-2.4s-2.2,-0.9 -3.5,-0.9c-1.2,0 -2.2,0.3 -3.2,0.9c-0.9,0.6 -1.4,1.3 -1.4,2.2c0,1.4 1.3,2.4 3.9,2.9l3.6,0.9c4.8,1.2 7.1,3.6 7.1,7.2c0.1,2.1 -0.9,3.9 -2.7,5.3" class="st4"/>
 </g>
</svg>