<svg width="32" height="32" xmlns="http://www.w3.org/2000/svg">

 <g>
  <title>background</title>
  <rect fill="none" id="canvas_background" height="402" width="582" y="-1" x="-1"/>
 </g>
 <g>
  <title>Layer 1</title>
  <path id="svg_2" fill="#263238" d="m2.066,23.314c-0.082,0 -0.166,-0.021 -0.242,-0.063c-0.242,-0.135 -0.329,-0.438 -0.194,-0.681l7.648,-13.767c0.134,-0.24 0.439,-0.326 0.68,-0.194c0.242,0.135 0.329,0.438 0.194,0.681l-7.649,13.768c-0.091,0.164 -0.261,0.256 -0.437,0.256z"/>
  <path id="svg_3" fill="#263238" d="m9.933,27.686c-0.082,0 -0.166,-0.021 -0.242,-0.063c-0.242,-0.135 -0.329,-0.438 -0.194,-0.681l4.796,-8.634c0.133,-0.24 0.438,-0.326 0.68,-0.194c0.242,0.135 0.329,0.438 0.194,0.681l-4.796,8.634c-0.092,0.164 -0.262,0.257 -0.438,0.257z"/>
  <path id="svg_7" fill="#cccccc" d="m15.709,15.761l-6.212,11.181c-0.705,1.27 -2.046,2.059 -3.5,2.059c-0.674,0 -1.345,-0.175 -1.939,-0.505c-1.928,-1.07 -2.625,-3.511 -1.554,-5.438l7.578,-13.639c0.134,-0.241 0.047,-0.546 -0.194,-0.681c-0.24,-0.133 -0.545,-0.046 -0.68,0.194l-7.579,13.639c-1.339,2.41 -0.468,5.46 1.942,6.8c0.742,0.412 1.58,0.63 2.424,0.63c1.817,0 3.493,-0.985 4.375,-2.572l5.921,-10.658l-0.582,-1.01z"/>
  <path id="svg_9" fill="#cccccc" d="m6,30c-2.757,0 -5,-2.243 -5,-5s2.243,-5 5,-5s5,2.243 5,5s-2.243,5 -5,5zm0,-9c-2.206,0 -4,1.794 -4,4s1.794,4 4,4s4,-1.794 4,-4s-1.794,-4 -4,-4z"/>
  <path id="svg_12" fill="#cccccc" d="m26.004,30.001c-1.817,0 -3.493,-0.985 -4.375,-2.572l-10,-18c-1.339,-2.41 -0.468,-5.46 1.942,-6.8c0.742,-0.412 1.581,-0.631 2.425,-0.631c1.816,0 3.492,0.986 4.374,2.573l10,18c1.339,2.41 0.468,5.46 -1.942,6.8c-0.741,0.412 -1.58,0.63 -2.424,0.63zm-10.007,-27.003c-0.675,0 -1.345,0.175 -1.94,0.506c-1.928,1.07 -2.625,3.511 -1.554,5.438l10,18c0.705,1.27 2.046,2.059 3.5,2.059c0.674,0 1.345,-0.175 1.939,-0.505c1.928,-1.07 2.625,-3.511 1.554,-5.438l-10,-18c-0.704,-1.271 -2.045,-2.06 -3.499,-2.06z"/>
 </g>
</svg>