<svg width="64" height="64" xmlns="http://www.w3.org/2000/svg">

 <g>
  <title>background</title>
  <rect fill="none" id="canvas_background" height="402" width="582" y="-1" x="-1"/>
 </g>
 <g>
  <title>Layer 1</title>
  <path id="svg_3" fill="#00F4CB" d="m58,11l-17,0l0,7l0,0l7,0l-3,3l4,4l-3,3l-4,-4l-1,1l0,5l-29,0l0,-19l-6,0c-0.553,0 -1,0.447 -1,1l0,22l54,0l0,-22c0,-0.553 -0.447,-1 -1,-1z"/>
  <path id="svg_5" fill="#00F4CB" d="m35,27l-19,0c-0.553,0 -1,-0.447 -1,-1l0,-4c0,-0.553 0.447,-1 1,-1l19,0c0.553,0 1,0.447 1,1l0,4c0,0.553 -0.447,1 -1,1z"/>
  <path id="svg_7" d="m58,7l-16,0l0,-5c0,-0.552 -0.447,-1 -1,-1l-29,0c-0.553,0 -1,0.448 -1,1l0,5l-5,0c-2.757,0 -5,2.243 -5,5l0,45c0,3.533 2.056,6 5,6l52,0c2.944,0 5,-2.467 5,-6l0,-45c0,-2.757 -2.243,-5 -5,-5zm-55,28l4,0l0,17c0,0.552 0.447,1 1,1l48,0c0.553,0 1,-0.448 1,-1l0,-17l4,0l0,20l-58,0l0,-20zm10,0l0,4l-4,0l0,-4l4,0zm6,0l0,4l-4,0l0,-4l4,0zm6,0l0,4l-4,0l0,-4l4,0zm6,0l0,4l-4,0l0,-4l4,0zm6,0l0,4l-4,0l0,-4l4,0zm6,0l0,4l-4,0l0,-4l4,0zm6,0l0,4l-4,0l0,-4l4,0zm6,0l0,4l-4,0l0,-4l4,0zm-10,16l0,-4l4,0l0,4l-4,0zm-24,0l0,-4l22,0l0,4l-22,0zm-6,0l0,-4l4,0l0,4l-4,0zm-6,0l0,-4l4,0l0,4l-4,0zm46,-6l-4,0l0,-4l4,0l0,4zm-6,0l-4,0l0,-4l4,0l0,4zm-6,0l-4,0l0,-4l4,0l0,4zm-6,0l-4,0l0,-4l4,0l0,4zm-6,0l-4,0l0,-4l4,0l0,4zm-6,0l-4,0l0,-4l4,0l0,4zm-6,0l-4,0l0,-4l4,0l0,4zm-6,0l-4,0l0,-4l4,0l0,4zm38,2l4,0l0,4l-4,0l0,-4zm-6.707,-25.293l3.293,3.293l-1.586,1.586l-3.293,-3.293c-0.195,-0.195 -0.451,-0.293 -0.707,-0.293s-0.512,0.098 -0.707,0.293l-0.999,0.999c-0.001,0.001 -0.001,0.001 -0.002,0.002l-0.292,0.292l0,-5.586l5.586,0l-1.293,1.293c-0.391,0.391 -0.391,1.023 0,1.414zm-5.293,-4.707c-0.553,0 -1,0.448 -1,1l0,9c0,0.404 0.243,0.769 0.617,0.924c0.374,0.154 0.803,0.07 1.09,-0.217l0.293,-0.293l0,1.586l-27,0l0,-18l27,0l0,6l-1,0zm-26,-14l27,0l0,6l-27,0l0,-6zm-7,6l5,0l0,21c0,0.552 0.447,1 1,1l29,0c0.553,0 1,-0.448 1,-1l0,-4.586l3.293,3.293c0.195,0.195 0.451,0.293 0.707,0.293s0.512,-0.098 0.707,-0.293l3,-3c0.391,-0.391 0.391,-1.023 0,-1.414l-3.293,-3.293l2.293,-2.293c0.286,-0.286 0.372,-0.716 0.217,-1.09c-0.154,-0.373 -0.52,-0.617 -0.924,-0.617l-6,0l0,-8l16,0c1.654,0 3,1.346 3,3l0,21l-58,0l0,-21c0,-1.654 1.346,-3 3,-3zm52,52l-52,0c-1.822,0 -3,-1.57 -3,-4l58,0c0,2.43 -1.178,4 -3,4z"/>
  <circle id="svg_8" r="1" cy="6" cx="16"/>
  <circle id="svg_9" r="1" cy="6" cx="20"/>
  <circle id="svg_10" r="1" cy="6" cx="24"/>
  <path id="svg_11" d="m37,13l-21,0c-0.553,0 -1,0.448 -1,1s0.447,1 1,1l21,0c0.553,0 1,-0.448 1,-1s-0.447,-1 -1,-1z"/>
  <path id="svg_12" d="m35,17l-6,0c-0.553,0 -1,0.448 -1,1s0.447,1 1,1l6,0c0.553,0 1,-0.448 1,-1s-0.447,-1 -1,-1z"/>
  <path id="svg_13" d="m23,17l-7,0c-0.553,0 -1,0.448 -1,1s0.447,1 1,1l7,0c0.553,0 1,-0.448 1,-1s-0.447,-1 -1,-1z"/>
 </g>
</svg>