<svg width="64" height="64" xmlns="http://www.w3.org/2000/svg">

 <g>
  <title>background</title>
  <rect fill="none" id="canvas_background" height="402" width="582" y="-1" x="-1"/>
 </g>
 <g>
  <title>Layer 1</title>
  <circle id="svg_3" fill="#ffff8d" r="9" cy="27" cx="50"/>
  <path id="svg_6" fill="#ffff8d" d="m42,14l-22,0c-0.553,0 -1,-0.447 -1,-1l0,-6c0,-0.553 0.447,-1 1,-1l22,0c0.553,0 1,0.447 1,1l0,6c0,0.553 -0.447,1 -1,1z"/>
  <path fill="#ffffff" id="svg_8" d="m62,50l-9,0l0,-10.363c5.724,-1.36 10,-6.503 10,-12.637s-4.276,-11.277 -10,-12.637l0,-7.363c0,-3.309 -2.691,-6 -6,-6l-40,0c-3.309,0 -6,2.691 -6,6l0,7c0,0.553 0.447,1 1,1l9,0l0,10c0,0.553 0.447,1 1,1s1,-0.447 1,-1l0,-18c0,-1.538 -0.586,-2.937 -1.54,-4l35.54,0c2.206,0 4,1.794 4,4l0,7.051c-0.331,-0.026 -0.662,-0.051 -1,-0.051c-7.168,0 -13,5.832 -13,13s5.832,13 13,13c0,0 0.001,0 0.001,0c0,0 0,0 0,0c0,0 0,0 0,0c0.337,0 0.668,-0.025 0.999,-0.051l0,10.051l-29,0c-0.553,0 -1,0.447 -1,1l0,6c0,2.206 -1.794,4 -4,4s-4,-1.794 -4,-4l0,-10c0,-0.553 -0.447,-1 -1,-1s-1,0.447 -1,1l0,10c0,3.309 2.691,6 6,6l40,0c3.309,0 6,-2.691 6,-6l0,-6c0,-0.553 -0.447,-1 -1,-1zm-51,-43l0,6l-8,0l0,-6c0,-2.206 1.794,-4 4,-4s4,1.794 4,4zm46.015,11.535c-0.414,0.342 -1.285,0.98 -2.531,1.523c-0.681,-1.555 -1.479,-2.844 -2.171,-3.808c1.759,0.377 3.364,1.174 4.702,2.285zm-7.013,-2.015c0.679,0.837 1.719,2.286 2.571,4.175c-0.779,0.184 -1.636,0.305 -2.573,0.305c-0.935,0 -1.791,-0.12 -2.568,-0.304c0.853,-1.888 1.892,-3.338 2.57,-4.176zm-4.486,3.538c-1.246,-0.543 -2.117,-1.181 -2.531,-1.523c1.338,-1.111 2.943,-1.908 4.703,-2.286c-0.693,0.965 -1.491,2.254 -2.172,3.809zm4.484,2.942c1.214,0 2.312,-0.167 3.295,-0.42c0.333,1.054 0.572,2.202 0.661,3.42l-7.913,0c0.089,-1.217 0.33,-2.365 0.664,-3.419c0.984,0.252 2.08,0.419 3.293,0.419zm3.956,5c-0.089,1.217 -0.33,2.364 -0.664,3.419c-0.983,-0.252 -2.079,-0.419 -3.292,-0.419c-1.214,0 -2.312,0.167 -3.295,0.42c-0.333,-1.054 -0.572,-2.202 -0.661,-3.42l7.912,0zm-3.956,5c0.935,0 1.791,0.12 2.568,0.304c-0.853,1.888 -1.892,3.338 -2.569,4.176c-0.679,-0.837 -1.719,-2.286 -2.571,-4.175c0.778,-0.184 1.635,-0.305 2.572,-0.305zm-2.313,4.751c-1.759,-0.378 -3.364,-1.175 -4.702,-2.286c0.414,-0.342 1.285,-0.98 2.531,-1.523c0.681,1.555 1.479,2.844 2.171,3.809zm6.797,-3.809c1.246,0.543 2.117,1.181 2.531,1.523c-1.338,1.111 -2.943,1.908 -4.703,2.286c0.693,-0.965 1.491,-2.254 2.172,-3.809zm3.953,0.104c-0.479,-0.417 -1.588,-1.279 -3.239,-1.984c0.393,-1.241 0.668,-2.606 0.76,-4.063l4.992,0c-0.208,2.29 -1.117,4.378 -2.513,6.047zm2.512,-8.046l-4.992,0c-0.092,-1.457 -0.367,-2.822 -0.76,-4.063c1.651,-0.705 2.76,-1.567 3.239,-1.984c1.397,1.67 2.306,3.758 2.513,6.047zm-19.386,-6.046c0.479,0.417 1.588,1.279 3.239,1.984c-0.393,1.241 -0.668,2.606 -0.76,4.063l-4.992,0c0.208,-2.29 1.117,-4.378 2.513,-6.047zm-2.512,8.046l4.992,0c0.092,1.457 0.367,2.822 0.76,4.063c-1.651,0.705 -2.76,1.567 -3.239,1.984c-1.397,-1.67 -2.306,-3.758 -2.513,-6.047zm21.949,29c0,2.206 -1.794,4 -4,4l-35.531,0c0.951,-1.062 1.531,-2.465 1.531,-4l0,-5l38,0l0,5z"/>
  <path fill="#ffffff" id="svg_9" d="m14,28l0,16c0,0.369 0.203,0.708 0.528,0.882c0.148,0.079 0.31,0.118 0.472,0.118c0.194,0 0.388,-0.057 0.555,-0.168l1.008,-0.672c3.101,-2.067 6.709,-3.16 10.437,-3.16l2,0c1.654,0 3,-1.346 3,-3l0,-4c0,-1.654 -1.346,-3 -3,-3l-2,0c-3.728,0 -7.336,-1.093 -10.438,-3.16l-1.008,-0.672c-0.307,-0.204 -0.702,-0.224 -1.026,-0.05c-0.325,0.174 -0.528,0.513 -0.528,0.882zm16,6l0,4c0,0.552 -0.448,1 -1,1l-1,0l0,-6l1,0c0.552,0 1,0.448 1,1zm-14,-4.144c3.021,1.882 6.449,2.94 10,3.109l0,6.069c-3.551,0.169 -6.979,1.227 -10,3.109l0,-12.287z"/>
  <path fill="#ffffff" id="svg_10" d="m11.586,37.414c-0.378,-0.378 -0.586,-0.88 -0.586,-1.414s0.208,-1.036 0.586,-1.414c0.391,-0.391 0.391,-1.023 0,-1.414s-1.023,-0.391 -1.414,0c-0.756,0.756 -1.172,1.76 -1.172,2.828s0.416,2.072 1.172,2.828c0.195,0.195 0.451,0.293 0.707,0.293s0.512,-0.098 0.707,-0.293c0.391,-0.39 0.391,-1.023 0,-1.414z"/>
  <path fill="#ffffff" id="svg_11" d="m7,36c0,-1.603 0.624,-3.109 1.758,-4.242c0.391,-0.39 0.391,-1.023 0,-1.414s-1.023,-0.391 -1.414,0c-1.512,1.51 -2.344,3.518 -2.344,5.656s0.832,4.146 2.344,5.656c0.195,0.195 0.451,0.293 0.707,0.293s0.512,-0.098 0.707,-0.293c0.391,-0.391 0.391,-1.024 0,-1.414c-1.134,-1.133 -1.758,-2.639 -1.758,-4.242z"/>
  <path fill="#ffffff" id="svg_12" d="m3,36c0,-2.67 1.04,-5.182 2.929,-7.071c0.391,-0.391 0.391,-1.023 0,-1.414s-1.023,-0.391 -1.414,0c-2.267,2.267 -3.515,5.281 -3.515,8.485s1.248,6.218 3.515,8.485c0.195,0.195 0.451,0.293 0.707,0.293s0.512,-0.098 0.707,-0.293c0.391,-0.391 0.391,-1.023 0,-1.414c-1.889,-1.889 -2.929,-4.401 -2.929,-7.071z"/>
  <path fill="#ffffff" id="svg_13" d="m36,16l-20,0c-0.553,0 -1,0.447 -1,1s0.447,1 1,1l20,0c0.553,0 1,-0.447 1,-1s-0.447,-1 -1,-1z"/>
  <path fill="#ffffff" id="svg_14" d="m16,26l20,0c0.553,0 1,-0.447 1,-1s-0.447,-1 -1,-1l-20,0c-0.553,0 -1,0.447 -1,1s0.447,1 1,1z"/>
  <path fill="#ffffff" id="svg_15" d="m16,22l8,0c0.553,0 1,-0.447 1,-1s-0.447,-1 -1,-1l-8,0c-0.553,0 -1,0.447 -1,1s0.447,1 1,1z"/>
  <path fill="#ffffff" id="svg_16" d="m36,20l-8,0c-0.553,0 -1,0.447 -1,1s0.447,1 1,1l8,0c0.553,0 1,-0.447 1,-1s-0.447,-1 -1,-1z"/>
  <path fill="#ffffff" id="svg_17" d="m31,47c0,0.553 0.447,1 1,1l16,0c0.553,0 1,-0.447 1,-1s-0.447,-1 -1,-1l-16,0c-0.553,0 -1,0.447 -1,1z"/>
  <path fill="#ffffff" id="svg_18" d="m38,42l-6,0c-0.553,0 -1,0.447 -1,1s0.447,1 1,1l6,0c0.553,0 1,-0.447 1,-1s-0.447,-1 -1,-1z"/>
  <path fill="#ffffff" id="svg_19" d="m48,44c0.553,0 1,-0.447 1,-1s-0.447,-1 -1,-1l-6,0c-0.553,0 -1,0.447 -1,1s0.447,1 1,1l6,0z"/>
 </g>
</svg>