<svg width="64" height="64" xmlns="http://www.w3.org/2000/svg">

 <g>
  <title>background</title>
  <rect fill="none" id="canvas_background" height="402" width="582" y="-1" x="-1"/>
 </g>
 <g>
  <title>Layer 1</title>
  <path fill="#cccccc" id="svg_3" d="m62,53l-1,0l0,-34c0,-2.757 -2.243,-5 -5,-5l-5,0c-0.553,0 -1,0.447 -1,1s0.447,1 1,1l5,0c1.654,0 3,1.346 3,3l0,34l-19,0l-16,0l-19,0l0,-34c0,-1.654 1.346,-3 3,-3l5,0c0.553,0 1,-0.447 1,-1s-0.447,-1 -1,-1l-5,0c-2.757,0 -5,2.243 -5,5l0,34l-1,0c-0.553,0 -1,0.447 -1,1l0,4c0,2.757 2.243,5 5,5l52,0c2.757,0 5,-2.243 5,-5l0,-4c0,-0.553 -0.447,-1 -1,-1zm-37,2l14,0l0,1c0,0.552 -0.448,1 -1,1l-12,0c-0.552,0 -1,-0.448 -1,-1l0,-1zm36,3c0,1.654 -1.346,3 -3,3l-52,0c-1.654,0 -3,-1.346 -3,-3l0,-3l20,0l0,1c0,1.654 1.346,3 3,3l12,0c1.654,0 3,-1.346 3,-3l0,-1l20,0l0,3z"/>
  <path fill="#cccccc" id="svg_4" d="m9,18c-1.103,0 -2,0.897 -2,2l0,30c0,0.553 0.447,1 1,1s1,-0.447 1,-1l0,-30l5,0c0.553,0 1,-0.447 1,-1s-0.447,-1 -1,-1l-5,0z"/>
  <path fill="#cccccc" id="svg_5" d="m56,51c0.553,0 1,-0.447 1,-1l0,-30c0,-1.103 -0.897,-2 -2,-2l-4,0c-0.553,0 -1,0.447 -1,1s0.447,1 1,1l4,0l0,30c0,0.553 0.447,1 1,1z"/>
  <path id="svg_8" fill="#d05ce3" d="m50.134907,51.134907l-36,0c-0.553,0 -1,-0.447 -1,-1l0,-48c0,-0.553 0.447,-1 1,-1l36,0c0.553,0 1,0.447 1,1l0,48c0,0.553 -0.447,1 -1,1z"/>
  <path fill="#121212" id="svg_9" d="m34.545,8.383c-0.285,-0.183 -0.642,-0.213 -0.951,-0.075l-4.346,1.932c-2.958,1.315 -6.101,1.982 -9.341,1.982l-1.907,0c-0.553,0 -1,0.447 -1,1l0,6c0,0.553 0.447,1 1,1l1.907,0c3.238,0 6.381,0.667 9.341,1.982l4.346,1.932c0.13,0.058 0.269,0.086 0.406,0.086c0.19,0 0.38,-0.055 0.545,-0.161c0.284,-0.185 0.455,-0.5 0.455,-0.839l0,-14c0,-0.339 -0.171,-0.655 -0.455,-0.839zm-15.545,9.839l0,-4l0.907,0c0.305,0 0.607,-0.013 0.91,-0.023l0,4.047c-0.303,-0.011 -0.606,-0.023 -0.91,-0.023l-0.907,0l0,-0.001zm14,3.461l-2.939,-1.307c-2.323,-1.032 -4.75,-1.691 -7.243,-1.981l0,-4.347c2.495,-0.29 4.922,-0.949 7.243,-1.981l2.939,-1.306l0,10.922z"/>
  <path fill="#121212" id="svg_11" d="m37.121,19.343c-0.256,0 -0.513,-0.098 -0.708,-0.294c-0.39,-0.391 -0.39,-1.023 0.002,-1.414c0.377,-0.377 0.585,-0.879 0.585,-1.413s-0.208,-1.036 -0.586,-1.414c-0.391,-0.391 -0.391,-1.023 0,-1.414s1.023,-0.391 1.414,0c0.756,0.755 1.172,1.759 1.172,2.828c0,1.069 -0.416,2.074 -1.173,2.829c-0.194,0.194 -0.45,0.292 -0.706,0.292z"/>
  <path fill="#121212" id="svg_13" d="m39.949,22.172c-0.256,0 -0.512,-0.098 -0.707,-0.293c-0.391,-0.391 -0.391,-1.023 0,-1.414c1.134,-1.134 1.758,-2.641 1.758,-4.243s-0.624,-3.109 -1.757,-4.242c-0.391,-0.391 -0.391,-1.023 0,-1.414s1.023,-0.391 1.414,0c1.511,1.51 2.343,3.519 2.343,5.656s-0.832,4.146 -2.344,5.657c-0.195,0.195 -0.451,0.293 -0.707,0.293z"/>
  <path fill="#121212" id="svg_15" d="m42.778,25c-0.256,0 -0.512,-0.098 -0.707,-0.293c-0.391,-0.391 -0.391,-1.023 0,-1.414c1.889,-1.889 2.929,-4.4 2.929,-7.071c0,-2.67 -1.04,-5.182 -2.929,-7.071c-0.391,-0.391 -0.391,-1.023 0,-1.414s1.023,-0.391 1.414,0c2.267,2.267 3.515,5.281 3.515,8.485c0,3.205 -1.248,6.219 -3.515,8.485c-0.195,0.195 -0.451,0.293 -0.707,0.293z"/>
  <path fill="#121212" id="svg_17" d="m46,47l-16,0c-0.553,0 -1,-0.447 -1,-1l0,-16c0,-0.553 0.447,-1 1,-1l16,0c0.553,0 1,0.447 1,1l0,16c0,0.553 -0.447,1 -1,1zm-15,-2l14,0l0,-14l-14,0l0,14z"/>
  <path fill="#121212" id="svg_19" d="m42,35l-8,0c-0.553,0 -1,-0.447 -1,-1s0.447,-1 1,-1l8,0c0.553,0 1,0.447 1,1s-0.447,1 -1,1z"/>
  <path fill="#121212" id="svg_21" d="m42,43l-8,0c-0.553,0 -1,-0.447 -1,-1s0.447,-1 1,-1l8,0c0.553,0 1,0.447 1,1s-0.447,1 -1,1z"/>
  <circle fill="#121212" id="svg_23" r="1" cy="38" cx="38"/>
  <circle fill="#121212" id="svg_25" r="1" cy="38" cx="34.134907"/>
  <circle fill="#121212" id="svg_27" r="1" cy="38" cx="42"/>
  <path fill="#121212" id="svg_29" d="m26,33l-8,0c-0.553,0 -1,-0.447 -1,-1s0.447,-1 1,-1l8,0c0.553,0 1,0.447 1,1s-0.447,1 -1,1z"/>
  <path fill="#121212" id="svg_31" d="m26,37l-8,0c-0.553,0 -1,-0.447 -1,-1s0.447,-1 1,-1l8,0c0.553,0 1,0.447 1,1s-0.447,1 -1,1z"/>
  <path fill="#121212" id="svg_33" d="m26,41l-8,0c-0.553,0 -1,-0.447 -1,-1s0.447,-1 1,-1l8,0c0.553,0 1,0.447 1,1s-0.447,1 -1,1z"/>
  <path fill="#121212" id="svg_35" d="m26,45l-8,0c-0.553,0 -1,-0.447 -1,-1s0.447,-1 1,-1l8,0c0.553,0 1,0.447 1,1s-0.447,1 -1,1z"/>
 </g>
</svg>