<svg width="24" height="24" xmlns="http://www.w3.org/2000/svg">

 <g>
  <title>background</title>
  <rect fill="none" id="canvas_background" height="402" width="582" y="-1" x="-1"/>
 </g>
 <g>
  <title>Layer 1</title>
  <path stroke="#ffffff" id="svg_3" d="m20.550589,24.052589l-17,0c-1.93,0 -3.5,-1.57 -3.5,-3.5l0,-17c0,-1.93 1.57,-3.5 3.5,-3.5l17,0c1.93,0 3.5,1.57 3.5,3.5l0,17c0,1.93 -1.57,3.5 -3.5,3.5zm-17,-23c-1.379,0 -2.5,1.122 -2.5,2.5l0,17c0,1.378 1.121,2.5 2.5,2.5l17,0c1.379,0 2.5,-1.122 2.5,-2.5l0,-17c0,-1.378 -1.121,-2.5 -2.5,-2.5l-17,0z"/>
  <path stroke="#ffffff" id="svg_5" d="m8.5,7.951411l-8,0c-0.276,0 -0.5,-0.224 -0.5,-0.5s0.224,-0.5 0.5,-0.5l8,0c0.276,0 0.5,0.224 0.5,0.5s-0.224,0.5 -0.5,0.5z"/>
  <path stroke="#ffffff" id="svg_7" d="m23.5,8.002l-8,0c-0.276,0 -0.5,-0.224 -0.5,-0.5s0.224,-0.5 0.5,-0.5l8,0c0.276,0 0.5,0.224 0.5,0.5s-0.224,0.5 -0.5,0.5z"/>
  <path stroke="#ffffff" id="svg_9" d="m20.5,6.002l-3,0c-0.276,0 -0.5,-0.224 -0.5,-0.5l0,-3c0,-0.276 0.224,-0.5 0.5,-0.5l3,0c0.276,0 0.5,0.224 0.5,0.5l0,3c0,0.276 -0.224,0.5 -0.5,0.5zm-2.5,-1l2,0l0,-2l-2,0l0,2z"/>
  <path stroke="#ffffff" id="svg_11" d="m2.5,5.002c-0.276,0 -0.5,-0.224 -0.5,-0.5l0,-3.5c0,-0.276 0.224,-0.5 0.5,-0.5s0.5,0.224 0.5,0.5l0,3.5c0,0.276 -0.224,0.5 -0.5,0.5z"/>
  <path stroke="#ffffff" id="svg_13" d="m4.5,5.002c-0.276,0 -0.5,-0.224 -0.5,-0.5l0,-4c0,-0.276 0.224,-0.5 0.5,-0.5s0.5,0.224 0.5,0.5l0,4c0,0.276 -0.224,0.5 -0.5,0.5z"/>
  <path stroke="#ffffff" id="svg_15" d="m6.5,4.951411c-0.276,0 -0.5,-0.224 -0.5,-0.5l0,-4c0,-0.276 0.224,-0.5 0.5,-0.5s0.5,0.224 0.5,0.5l0,4c0,0.276 -0.224,0.5 -0.5,0.5z"/>
  <path stroke="#ffffff" id="svg_17" d="m12,18.002c-3.309,0 -6,-2.691 -6,-6s2.691,-6 6,-6s6,2.691 6,6s-2.691,6 -6,6zm0,-11c-2.757,0 -5,2.243 -5,5s2.243,5 5,5s5,-2.243 5,-5s-2.243,-5 -5,-5z"/>
  <path stroke="#ffffff" id="svg_19" d="m12,15.002c-1.654,0 -3,-1.346 -3,-3s1.346,-3 3,-3s3,1.346 3,3s-1.346,3 -3,3zm0,-5c-1.103,0 -2,0.897 -2,2s0.897,2 2,2s2,-0.897 2,-2s-0.897,-2 -2,-2z"/>
 </g>
</svg>