<svg width="60" height="60" xmlns="http://www.w3.org/2000/svg">

 <g>
  <title>background</title>
  <rect fill="none" id="canvas_background" height="402" width="582" y="-1" x="-1"/>
 </g>
 <g>
  <title>Layer 1</title>
  <path stroke-miterlimit="10" stroke-linejoin="round" stroke-linecap="round" stroke-width="1.5" stroke="#231f20" fill="none" id="svg_4" d="m43.274,23.369c4.818,10.359 -2.474,22.896 -15.122,21.662c-8.136,-0.796 -15.578,-9.54 -12.277,-19.475c0.207,-0.628 0.649,-1.316 0.987,-1.977" class="st0"/>
  <path stroke-miterlimit="10" stroke-linejoin="round" stroke-linecap="round" stroke-width="1.5" stroke="#263238" fill="none" id="svg_5" d="m1.197,19.646l0,29.337c0.549,5.328 4.739,9.513 10.162,10.017l18.768,0l18.771,0c5.431,-0.558 9.48,-5.077 10.02,-9.879c0,0 0,-24.745 0,-29.475" class="st0"/>
  <path stroke-miterlimit="10" stroke-linejoin="round" stroke-linecap="round" stroke-width="1.5" stroke="#263238" fill="none" id="svg_7" d="m28.576,19.063c-2.217,0.268 -3.408,0.747 -4.516,1.412c-2.543,1.527 -4.936,4.373 -5.363,8.183c-0.865,7.697 4.779,12.985 11.29,12.985c5.186,0 11.495,-3.705 11.431,-11.431c-0.059,-7.033 -5.672,-12.009 -12.842,-11.149zm9.738,13.406c-0.945,3.893 -5.268,6.838 -9.738,6.21c-4.273,-0.599 -8.865,-5.912 -6.352,-11.853c0.928,-2.187 3.016,-4.64 7.338,-4.939c5.311,-0.368 10.257,4.377 8.752,10.582z" class="st0"/>
  <path stroke-miterlimit="10" stroke-linejoin="round" stroke-linecap="round" stroke-width="1.5" stroke="#263238" fill="none" id="svg_9" d="m11.312384,15.681l0,-14.145m-4.845,14.145l0,-12.987c-0.762,0.47 -1.439,1.001 -1.988,1.552c-3.19,3.19 -3.448,8.68 -3.245,15.667l17.923,0c0.728,-0.173 1.601,-1.067 2.259,-1.554c2.415,-1.777 5.52,-2.749 8.674,-2.783l0.089,0c3.153,0.034 6.259,1.006 8.673,2.783c0.658,0.486 1.53,1.381 2.257,1.554l17.925,0c0.079,-7.058 -0.054,-12.477 -3.247,-15.667c-1.557,-1.556 -4.104,-2.983 -6.916,-3.246l-18.713,0l-0.051,0l-13.408,0l0,14.681m36.627,-1.914c0,0.822 -0.667,1.49 -1.487,1.49l-6.2,0c-0.82,0 -1.487,-0.668 -1.487,-1.49l0,-6.2c0,-0.821 0.667,-1.489 1.487,-1.489l6.2,0c0.82,0 1.487,0.668 1.487,1.489l0,6.2z" class="st0"/>
 </g>
</svg>