<?xml version="1.0" encoding="UTF-8" standalone="no"?>
<!DOCTYPE svg PUBLIC "-//W3C//DTD SVG 1.1//EN" "http://www.w3.org/Graphics/SVG/1.1/DTD/svg11.dtd">
<svg width="100%" height="100%" viewBox="0 0 557 54" version="1.1" xmlns="http://www.w3.org/2000/svg" xmlns:xlink="http://www.w3.org/1999/xlink" xml:space="preserve" xmlns:serif="http://www.serif.com/" style="fill-rule:evenodd;clip-rule:evenodd;stroke-linejoin:round;stroke-miterlimit:2;">
    <g transform="matrix(3.9024,0,0,3.9024,-100.229,-24.9051)">
        <g transform="matrix(16,0,0,16,26.1109,18.7872)">
            <path d="M0.236,-0.487L0.236,0L0.053,0L0.053,-0.487L0.236,-0.487ZM0.145,-0.704C0.17,-0.704 0.191,-0.695 0.209,-0.678C0.227,-0.661 0.236,-0.64 0.236,-0.616C0.236,-0.591 0.228,-0.57 0.211,-0.554C0.194,-0.537 0.172,-0.529 0.145,-0.529C0.118,-0.529 0.096,-0.537 0.079,-0.554C0.062,-0.57 0.054,-0.591 0.054,-0.616C0.054,-0.64 0.063,-0.661 0.081,-0.678C0.099,-0.695 0.12,-0.704 0.145,-0.704Z" style="fill:none;fill-rule:nonzero;stroke:black;stroke-width:0.02px;"/>
        </g>
        <g transform="matrix(16,0,0,16,30.7515,18.7872)">
            <path d="M0.459,-0.487L0.31,-0.191L0.482,-0.191L0.482,0L0.013,0L0.161,-0.296L0.007,-0.296L0.007,-0.487L0.459,-0.487Z" style="fill:none;fill-rule:nonzero;stroke:black;stroke-width:0.02px;"/>
        </g>
        <g transform="matrix(16,0,0,16,38.6734,18.7872)">
            <path d="M0.32,-0.492L0.32,-0.296C0.308,-0.304 0.296,-0.307 0.286,-0.307C0.252,-0.307 0.236,-0.282 0.236,-0.231L0.236,0L0.053,0L0.053,-0.266C0.053,-0.336 0.072,-0.392 0.111,-0.434C0.149,-0.476 0.201,-0.497 0.265,-0.497C0.279,-0.497 0.298,-0.495 0.32,-0.492Z" style="fill:none;fill-rule:nonzero;stroke:black;stroke-width:0.02px;"/>
        </g>
        <g transform="matrix(16,0,0,16,43.8062,18.7872)">
            <path d="M0.324,-0.183L0.324,0.006C0.309,0.009 0.295,0.01 0.283,0.01C0.209,0.01 0.148,-0.014 0.1,-0.062C0.051,-0.11 0.026,-0.171 0.026,-0.243C0.026,-0.314 0.051,-0.374 0.1,-0.423C0.15,-0.472 0.21,-0.497 0.28,-0.497C0.359,-0.497 0.421,-0.474 0.467,-0.427C0.512,-0.381 0.535,-0.319 0.535,-0.239L0.535,0L0.352,0L0.352,-0.226C0.352,-0.251 0.346,-0.272 0.333,-0.287C0.321,-0.302 0.304,-0.31 0.283,-0.31C0.264,-0.31 0.247,-0.303 0.233,-0.289C0.219,-0.275 0.212,-0.258 0.212,-0.239C0.212,-0.219 0.218,-0.202 0.231,-0.189C0.244,-0.176 0.26,-0.17 0.279,-0.17C0.295,-0.17 0.31,-0.174 0.324,-0.183Z" style="fill:none;fill-rule:nonzero;stroke:black;stroke-width:0.02px;"/>
        </g>
        <g transform="matrix(16,0,0,16,53.2125,18.7872)">
            <path d="M0.353,-0.667L0.536,-0.667L0.536,-0.261C0.536,-0.186 0.516,-0.125 0.477,-0.079C0.455,-0.052 0.426,-0.03 0.391,-0.014C0.357,0.002 0.321,0.01 0.285,0.01C0.212,0.01 0.151,-0.015 0.101,-0.063C0.051,-0.112 0.026,-0.172 0.026,-0.243C0.026,-0.312 0.051,-0.371 0.101,-0.421C0.15,-0.472 0.209,-0.497 0.276,-0.497C0.287,-0.497 0.303,-0.496 0.325,-0.494L0.325,-0.292C0.31,-0.304 0.295,-0.31 0.28,-0.31C0.261,-0.31 0.245,-0.303 0.232,-0.289C0.218,-0.275 0.211,-0.259 0.211,-0.239C0.211,-0.22 0.218,-0.204 0.232,-0.191C0.246,-0.177 0.263,-0.17 0.283,-0.17C0.33,-0.17 0.353,-0.203 0.353,-0.268L0.353,-0.667Z" style="fill:none;fill-rule:nonzero;stroke:black;stroke-width:0.02px;"/>
        </g>
        <g transform="matrix(16,0,0,16,62.4703,18.7872)">
            <path d="M0.324,-0.183L0.324,0.006C0.309,0.009 0.295,0.01 0.283,0.01C0.209,0.01 0.148,-0.014 0.1,-0.062C0.051,-0.11 0.026,-0.171 0.026,-0.243C0.026,-0.314 0.051,-0.374 0.1,-0.423C0.15,-0.472 0.21,-0.497 0.28,-0.497C0.359,-0.497 0.421,-0.474 0.467,-0.427C0.512,-0.381 0.535,-0.319 0.535,-0.239L0.535,0L0.352,0L0.352,-0.226C0.352,-0.251 0.346,-0.272 0.333,-0.287C0.321,-0.302 0.304,-0.31 0.283,-0.31C0.264,-0.31 0.247,-0.303 0.233,-0.289C0.219,-0.275 0.212,-0.258 0.212,-0.239C0.212,-0.219 0.218,-0.202 0.231,-0.189C0.244,-0.176 0.26,-0.17 0.279,-0.17C0.295,-0.17 0.31,-0.174 0.324,-0.183Z" style="fill:none;fill-rule:nonzero;stroke:black;stroke-width:0.02px;"/>
        </g>
        <g transform="matrix(16,0,0,16,75.8765,18.7872)">
            <path d="M0.053,-0.48L0.236,-0.48L0.236,-0.218C0.236,-0.197 0.238,-0.183 0.242,-0.175C0.246,-0.167 0.254,-0.163 0.265,-0.163C0.286,-0.163 0.296,-0.181 0.296,-0.218L0.296,-0.48L0.479,-0.48L0.479,-0.218C0.479,-0.197 0.481,-0.183 0.485,-0.175C0.49,-0.167 0.497,-0.163 0.508,-0.163C0.528,-0.163 0.539,-0.181 0.539,-0.218L0.539,-0.48L0.721,-0.48L0.721,-0.18C0.721,-0.125 0.703,-0.079 0.666,-0.041C0.629,-0.003 0.585,0.017 0.532,0.017C0.478,0.017 0.43,-0.006 0.387,-0.052C0.339,-0.006 0.291,0.017 0.243,0.017C0.182,0.017 0.133,-0.006 0.097,-0.05C0.068,-0.085 0.053,-0.135 0.053,-0.201L0.053,-0.48Z" style="fill:none;fill-rule:nonzero;stroke:black;stroke-width:0.02px;"/>
        </g>
        <g transform="matrix(16,0,0,16,88.275,18.7872)">
            <path d="M0.532,-0.214L0.255,-0.214C0.251,-0.228 0.249,-0.241 0.249,-0.252C0.249,-0.269 0.251,-0.285 0.257,-0.3L0.35,-0.3C0.344,-0.336 0.323,-0.354 0.289,-0.354C0.266,-0.354 0.248,-0.345 0.233,-0.325C0.219,-0.306 0.212,-0.281 0.212,-0.251C0.212,-0.219 0.219,-0.194 0.233,-0.174C0.247,-0.155 0.265,-0.145 0.287,-0.145C0.305,-0.145 0.323,-0.154 0.34,-0.172L0.444,-0.047C0.395,-0.009 0.341,0.01 0.282,0.01C0.21,0.01 0.149,-0.014 0.1,-0.063C0.051,-0.111 0.026,-0.172 0.026,-0.243C0.026,-0.314 0.051,-0.375 0.101,-0.424C0.15,-0.473 0.211,-0.498 0.284,-0.498C0.354,-0.498 0.414,-0.474 0.462,-0.426C0.51,-0.378 0.534,-0.318 0.534,-0.248C0.534,-0.241 0.533,-0.229 0.532,-0.214Z" style="fill:none;fill-rule:nonzero;stroke:black;stroke-width:0.02px;"/>
        </g>
        <g transform="matrix(16,0,0,16,97.1422,18.7872)">
            <path d="M0.225,-0.667L0.225,-0.268C0.225,-0.203 0.248,-0.17 0.295,-0.17C0.315,-0.17 0.332,-0.177 0.345,-0.191C0.359,-0.204 0.366,-0.221 0.366,-0.24C0.366,-0.26 0.36,-0.276 0.347,-0.29C0.334,-0.303 0.318,-0.31 0.299,-0.31C0.285,-0.31 0.27,-0.304 0.253,-0.292L0.253,-0.494C0.274,-0.496 0.291,-0.497 0.302,-0.497C0.37,-0.497 0.429,-0.472 0.478,-0.422C0.527,-0.373 0.552,-0.313 0.552,-0.244C0.552,-0.172 0.527,-0.112 0.477,-0.063C0.427,-0.015 0.366,0.01 0.293,0.01C0.257,0.01 0.221,0.002 0.187,-0.014C0.152,-0.03 0.124,-0.052 0.101,-0.079C0.062,-0.125 0.042,-0.186 0.042,-0.261L0.042,-0.667L0.225,-0.667Z" style="fill:none;fill-rule:nonzero;stroke:black;stroke-width:0.02px;"/>
        </g>
        <g transform="matrix(16,0,0,16,110.4,18.7872)">
            <path d="M0.358,-0.48L0.358,-0.288C0.333,-0.288 0.315,-0.283 0.305,-0.273C0.296,-0.264 0.29,-0.245 0.287,-0.216C0.279,-0.122 0.242,-0.056 0.178,-0.017C0.144,0.003 0.095,0.013 0.032,0.013L0.007,0.013L0.007,-0.18L0.015,-0.18C0.044,-0.18 0.065,-0.186 0.078,-0.198C0.09,-0.211 0.098,-0.232 0.1,-0.263C0.102,-0.313 0.107,-0.347 0.114,-0.368C0.12,-0.388 0.134,-0.408 0.154,-0.428C0.19,-0.463 0.24,-0.48 0.303,-0.48L0.358,-0.48Z" style="fill:none;fill-rule:nonzero;stroke:black;stroke-width:0.02px;"/>
        </g>
        <g transform="matrix(16,0,0,16,116.236,18.7872)">
            <path d="M0.216,-0.667L0.216,-0.48L0.298,-0.48L0.298,-0.287L0.216,-0.287C0.216,-0.248 0.222,-0.222 0.234,-0.207C0.246,-0.192 0.269,-0.185 0.301,-0.185L0.301,0.007C0.292,0.007 0.285,0.007 0.28,0.007C0.239,0.007 0.2,-0.002 0.163,-0.021C0.127,-0.041 0.097,-0.067 0.075,-0.1C0.047,-0.142 0.033,-0.197 0.033,-0.267L0.033,-0.667L0.216,-0.667Z" style="fill:none;fill-rule:nonzero;stroke:black;stroke-width:0.02px;"/>
        </g>
        <g transform="matrix(16,0,0,16,121.587,18.7872)">
            <path d="M0.32,-0.492L0.32,-0.296C0.308,-0.304 0.296,-0.307 0.286,-0.307C0.252,-0.307 0.236,-0.282 0.236,-0.231L0.236,0L0.053,0L0.053,-0.266C0.053,-0.336 0.072,-0.392 0.111,-0.434C0.149,-0.476 0.201,-0.497 0.265,-0.497C0.279,-0.497 0.298,-0.495 0.32,-0.492Z" style="fill:none;fill-rule:nonzero;stroke:black;stroke-width:0.02px;"/>
        </g>
        <g transform="matrix(16,0,0,16,126.72,18.7872)">
            <path d="M0.324,-0.183L0.324,0.006C0.309,0.009 0.295,0.01 0.283,0.01C0.209,0.01 0.148,-0.014 0.1,-0.062C0.051,-0.11 0.026,-0.171 0.026,-0.243C0.026,-0.314 0.051,-0.374 0.1,-0.423C0.15,-0.472 0.21,-0.497 0.28,-0.497C0.359,-0.497 0.421,-0.474 0.467,-0.427C0.512,-0.381 0.535,-0.319 0.535,-0.239L0.535,0L0.352,0L0.352,-0.226C0.352,-0.251 0.346,-0.272 0.333,-0.287C0.321,-0.302 0.304,-0.31 0.283,-0.31C0.264,-0.31 0.247,-0.303 0.233,-0.289C0.219,-0.275 0.212,-0.258 0.212,-0.239C0.212,-0.219 0.218,-0.202 0.231,-0.189C0.244,-0.176 0.26,-0.17 0.279,-0.17C0.295,-0.17 0.31,-0.174 0.324,-0.183Z" style="fill:none;fill-rule:nonzero;stroke:black;stroke-width:0.02px;"/>
        </g>
        <g transform="matrix(16,0,0,16,136.127,18.7872)">
            <path d="M0.487,0L0.305,0L0.305,-0.275C0.305,-0.303 0.293,-0.317 0.27,-0.317C0.247,-0.317 0.236,-0.303 0.236,-0.275L0.236,0L0.053,0L0.053,-0.271C0.053,-0.335 0.074,-0.388 0.116,-0.432C0.158,-0.475 0.21,-0.497 0.271,-0.497C0.34,-0.497 0.396,-0.472 0.438,-0.421C0.471,-0.382 0.487,-0.327 0.487,-0.257L0.487,0Z" style="fill:none;fill-rule:nonzero;stroke:black;stroke-width:0.02px;"/>
        </g>
        <g transform="matrix(16,0,0,16,144.775,18.7872)">
            <path d="M0.236,-0.487L0.236,0L0.053,0L0.053,-0.487L0.236,-0.487ZM0.145,-0.704C0.17,-0.704 0.191,-0.695 0.209,-0.678C0.227,-0.661 0.236,-0.64 0.236,-0.616C0.236,-0.591 0.228,-0.57 0.211,-0.554C0.194,-0.537 0.172,-0.529 0.145,-0.529C0.118,-0.529 0.096,-0.537 0.079,-0.554C0.062,-0.57 0.054,-0.591 0.054,-0.616C0.054,-0.64 0.063,-0.661 0.081,-0.678C0.099,-0.695 0.12,-0.704 0.145,-0.704Z" style="fill:none;fill-rule:nonzero;stroke:black;stroke-width:0.02px;"/>
        </g>
        <g transform="matrix(16,0,0,16,149.416,18.7872)">
            <path d="M0.352,-0.224L0.533,-0.231C0.528,-0.161 0.502,-0.103 0.455,-0.058C0.407,-0.012 0.35,0.01 0.282,0.01C0.211,0.01 0.15,-0.015 0.101,-0.064C0.052,-0.114 0.027,-0.175 0.027,-0.248C0.027,-0.316 0.052,-0.375 0.102,-0.424C0.151,-0.473 0.211,-0.497 0.281,-0.497C0.342,-0.497 0.395,-0.478 0.442,-0.439C0.488,-0.401 0.517,-0.352 0.529,-0.292L0.344,-0.286C0.328,-0.306 0.308,-0.317 0.283,-0.317C0.262,-0.317 0.245,-0.31 0.232,-0.296C0.219,-0.283 0.212,-0.265 0.212,-0.245C0.212,-0.223 0.219,-0.206 0.233,-0.191C0.247,-0.177 0.265,-0.17 0.286,-0.17C0.317,-0.17 0.339,-0.188 0.352,-0.224Z" style="fill:none;fill-rule:nonzero;stroke:black;stroke-width:0.02px;"/>
        </g>
        <g transform="matrix(16,0,0,16,158.369,18.7872)">
            <path d="M0.324,-0.183L0.324,0.006C0.309,0.009 0.295,0.01 0.283,0.01C0.209,0.01 0.148,-0.014 0.1,-0.062C0.051,-0.11 0.026,-0.171 0.026,-0.243C0.026,-0.314 0.051,-0.374 0.1,-0.423C0.15,-0.472 0.21,-0.497 0.28,-0.497C0.359,-0.497 0.421,-0.474 0.467,-0.427C0.512,-0.381 0.535,-0.319 0.535,-0.239L0.535,0L0.352,0L0.352,-0.226C0.352,-0.251 0.346,-0.272 0.333,-0.287C0.321,-0.302 0.304,-0.31 0.283,-0.31C0.264,-0.31 0.247,-0.303 0.233,-0.289C0.219,-0.275 0.212,-0.258 0.212,-0.239C0.212,-0.219 0.218,-0.202 0.231,-0.189C0.244,-0.176 0.26,-0.17 0.279,-0.17C0.295,-0.17 0.31,-0.174 0.324,-0.183Z" style="fill:none;fill-rule:nonzero;stroke:black;stroke-width:0.02px;"/>
        </g>
    </g>
</svg>
