<?xml version="1.0" encoding="UTF-8" standalone="no"?>
<!DOCTYPE svg PUBLIC "-//W3C//DTD SVG 1.1//EN" "http://www.w3.org/Graphics/SVG/1.1/DTD/svg11.dtd">
<svg width="100%" height="100%" viewBox="0 0 430 46" version="1.1" xmlns="http://www.w3.org/2000/svg" xmlns:xlink="http://www.w3.org/1999/xlink" xml:space="preserve" xmlns:serif="http://www.serif.com/" style="fill-rule:evenodd;clip-rule:evenodd;stroke-linejoin:round;stroke-miterlimit:2;">
    <g transform="matrix(1.47972,0,0,1.47972,-236.042,-403.997)">
        <g transform="matrix(32,0,0,32,161.017,300)">
            <rect x="0.014" y="-0.64" width="0.22" height="0.64" style="fill:white;fill-rule:nonzero;"/>
        </g>
        <g transform="matrix(32,0,0,32,168.921,300)">
            <path d="M0.675,-0L0.459,-0L0.459,-0.051C0.449,-0.128 0.424,-0.198 0.384,-0.259C0.343,-0.32 0.291,-0.367 0.228,-0.399L0.228,-0L0.012,-0L0.012,-0.639L0.113,-0.64C0.248,-0.641 0.364,-0.6 0.459,-0.517L0.459,-0.64L0.675,-0.64L0.675,-0Z" style="fill:white;fill-rule:nonzero;"/>
        </g>
        <g transform="matrix(32,0,0,32,190.905,300)">
            <path d="M0.395,-0.239L0.263,-0.239L0.263,-0.4L0.395,-0.4L0.395,-0.239ZM0.485,-0.442L0.233,-0.442L0.233,-0L0.012,-0L0.012,-0.64L0.485,-0.64L0.485,-0.442Z" style="fill:white;fill-rule:nonzero;"/>
        </g>
        <g transform="matrix(32,0,0,32,206.777,300)">
            <path d="M0.749,-0.321C0.749,-0.224 0.713,-0.142 0.641,-0.073C0.569,-0.004 0.483,0.03 0.382,0.03C0.281,0.03 0.194,-0.004 0.122,-0.073C0.05,-0.142 0.014,-0.224 0.014,-0.321C0.014,-0.418 0.05,-0.5 0.122,-0.569C0.194,-0.638 0.281,-0.672 0.382,-0.672C0.483,-0.672 0.57,-0.638 0.642,-0.569C0.713,-0.5 0.749,-0.418 0.749,-0.321ZM0.494,-0.308C0.494,-0.338 0.483,-0.364 0.461,-0.385C0.439,-0.406 0.413,-0.417 0.382,-0.417C0.351,-0.417 0.325,-0.406 0.303,-0.385C0.281,-0.364 0.27,-0.338 0.27,-0.308C0.27,-0.278 0.281,-0.252 0.303,-0.231C0.325,-0.21 0.351,-0.199 0.382,-0.199C0.413,-0.199 0.439,-0.21 0.461,-0.231C0.483,-0.252 0.494,-0.278 0.494,-0.308Z" style="fill:white;fill-rule:nonzero;"/>
        </g>
        <g transform="matrix(32,0,0,32,231.193,300)">
            <path d="M0.843,-0.522C0.85,-0.497 0.853,-0.471 0.853,-0.446C0.853,-0.395 0.841,-0.349 0.816,-0.31C0.788,-0.265 0.749,-0.236 0.699,-0.223C0.682,-0.219 0.666,-0.217 0.649,-0.217C0.615,-0.217 0.585,-0.226 0.559,-0.243C0.522,-0.213 0.48,-0.198 0.433,-0.198C0.38,-0.198 0.334,-0.217 0.295,-0.254C0.256,-0.291 0.236,-0.337 0.236,-0.39C0.236,-0.443 0.256,-0.489 0.295,-0.526C0.334,-0.563 0.38,-0.582 0.433,-0.582C0.456,-0.582 0.479,-0.578 0.502,-0.569L0.634,-0.569L0.634,-0.399C0.634,-0.376 0.639,-0.365 0.648,-0.365C0.667,-0.365 0.681,-0.373 0.69,-0.388C0.699,-0.403 0.704,-0.422 0.704,-0.445C0.704,-0.459 0.702,-0.473 0.699,-0.486C0.685,-0.541 0.65,-0.582 0.595,-0.609C0.549,-0.632 0.495,-0.643 0.433,-0.643C0.361,-0.643 0.298,-0.619 0.245,-0.57C0.192,-0.521 0.165,-0.461 0.165,-0.39C0.165,-0.319 0.192,-0.259 0.245,-0.21C0.298,-0.161 0.361,-0.137 0.433,-0.137C0.508,-0.137 0.572,-0.162 0.624,-0.212L0.726,-0.105C0.645,-0.027 0.548,0.012 0.433,0.012C0.32,0.012 0.223,-0.027 0.14,-0.105C0.057,-0.183 0.016,-0.278 0.016,-0.39C0.016,-0.502 0.057,-0.597 0.14,-0.675C0.223,-0.753 0.32,-0.792 0.433,-0.792C0.53,-0.792 0.614,-0.77 0.687,-0.727C0.768,-0.679 0.82,-0.611 0.843,-0.522ZM0.481,-0.39C0.481,-0.403 0.476,-0.413 0.467,-0.421C0.457,-0.429 0.446,-0.433 0.433,-0.433C0.42,-0.433 0.409,-0.429 0.4,-0.421C0.39,-0.413 0.385,-0.403 0.385,-0.39C0.385,-0.377 0.39,-0.367 0.4,-0.359C0.409,-0.351 0.42,-0.347 0.433,-0.347C0.446,-0.347 0.457,-0.351 0.467,-0.359C0.476,-0.367 0.481,-0.377 0.481,-0.39Z" style="fill:white;fill-rule:nonzero;"/>
        </g>
        <g transform="matrix(32,0,0,32,259.001,300)">
            <path d="M0.536,-0.237C0.536,-0.166 0.51,-0.105 0.459,-0.054C0.408,-0.003 0.346,0.023 0.275,0.023C0.203,0.023 0.142,-0.003 0.091,-0.054C0.04,-0.105 0.015,-0.166 0.015,-0.237L0.015,-0.64L0.232,-0.64L0.232,-0.249C0.232,-0.237 0.236,-0.227 0.245,-0.219C0.253,-0.21 0.263,-0.206 0.275,-0.206C0.287,-0.206 0.297,-0.21 0.306,-0.219C0.314,-0.227 0.318,-0.237 0.318,-0.249L0.318,-0.64L0.536,-0.64L0.536,-0.237Z" style="fill:white;fill-rule:nonzero;"/>
        </g>
        <g transform="matrix(32,0,0,32,276.601,300)">
            <path d="M0.734,-0.073L0.573,0.077L0.354,-0.159L0.226,-0.159L0.226,-0L0.008,-0L0.008,-0.64L0.396,-0.64C0.475,-0.64 0.541,-0.619 0.592,-0.578C0.647,-0.534 0.674,-0.474 0.674,-0.399C0.674,-0.325 0.648,-0.266 0.595,-0.222L0.734,-0.073ZM0.436,-0.399C0.436,-0.432 0.417,-0.449 0.378,-0.449L0.226,-0.449L0.226,-0.349L0.378,-0.349C0.417,-0.349 0.436,-0.366 0.436,-0.399Z" style="fill:white;fill-rule:nonzero;"/>
        </g>
        <g transform="matrix(32,0,0,32,300.345,300)">
            <path d="M0.434,-0.239L0.263,-0.239L0.263,-0.4L0.434,-0.4L0.434,-0.239ZM0.523,-0L0.013,-0L0.013,-0.64L0.523,-0.64L0.523,-0.442L0.233,-0.442L0.233,-0.198L0.523,-0.198L0.523,-0Z" style="fill:white;fill-rule:nonzero;"/>
        </g>
        <g transform="matrix(32,0,0,32,317.465,300)">
            <path d="M0.608,-0.32C0.608,-0.232 0.577,-0.157 0.514,-0.094C0.451,-0.031 0.376,0.001 0.288,0.001L0.013,-0L0.013,-0.64L0.288,-0.64C0.376,-0.64 0.451,-0.609 0.514,-0.546C0.577,-0.483 0.608,-0.408 0.608,-0.32ZM0.407,-0.32C0.407,-0.353 0.395,-0.382 0.372,-0.406C0.348,-0.429 0.319,-0.441 0.286,-0.441L0.218,-0.441L0.218,-0.198L0.286,-0.198C0.319,-0.198 0.348,-0.21 0.372,-0.234C0.395,-0.257 0.407,-0.286 0.407,-0.32Z" style="fill:white;fill-rule:nonzero;"/>
        </g>
        <g transform="matrix(32,0,0,32,337.305,300)">
            <path d="M0.712,-0.193C0.712,-0.128 0.676,-0.077 0.603,-0.039C0.538,-0.005 0.458,0.012 0.364,0.012C0.27,0.012 0.19,-0.005 0.125,-0.039C0.052,-0.077 0.016,-0.128 0.016,-0.193C0.016,-0.286 0.055,-0.355 0.133,-0.398C0.068,-0.439 0.035,-0.494 0.035,-0.562C0.035,-0.63 0.069,-0.684 0.138,-0.725C0.2,-0.762 0.275,-0.781 0.364,-0.781C0.452,-0.781 0.527,-0.762 0.59,-0.725C0.659,-0.684 0.693,-0.63 0.693,-0.562C0.693,-0.494 0.66,-0.439 0.595,-0.398C0.673,-0.355 0.712,-0.286 0.712,-0.193ZM0.402,-0.526C0.402,-0.552 0.389,-0.565 0.364,-0.565C0.338,-0.565 0.325,-0.552 0.325,-0.526C0.325,-0.499 0.338,-0.486 0.364,-0.486C0.389,-0.486 0.402,-0.499 0.402,-0.526ZM0.417,-0.232C0.417,-0.245 0.413,-0.257 0.405,-0.266C0.395,-0.277 0.381,-0.283 0.364,-0.283C0.347,-0.283 0.334,-0.278 0.325,-0.268C0.316,-0.257 0.311,-0.245 0.311,-0.232C0.311,-0.219 0.315,-0.208 0.323,-0.199C0.333,-0.188 0.347,-0.182 0.364,-0.182C0.381,-0.182 0.395,-0.188 0.405,-0.199C0.413,-0.208 0.417,-0.219 0.417,-0.232Z" style="fill:white;fill-rule:nonzero;"/>
        </g>
        <g transform="matrix(32,0,0,32,360.601,300)">
            <path d="M0.353,-0L0.087,-0L0.087,-0.532L0.019,-0.532L0.019,-0.771L0.353,-0.771L0.353,-0Z" style="fill:white;fill-rule:nonzero;"/>
        </g>
        <g transform="matrix(32,0,0,32,372.505,300)">
            <path d="M0.302,-0.099C0.302,-0.067 0.288,-0.04 0.26,-0.017C0.231,0.006 0.197,0.017 0.158,0.017C0.119,0.017 0.085,0.006 0.057,-0.017C0.028,-0.04 0.014,-0.067 0.014,-0.099C0.014,-0.131 0.028,-0.158 0.057,-0.181C0.085,-0.204 0.119,-0.215 0.158,-0.215C0.197,-0.215 0.231,-0.204 0.26,-0.181C0.288,-0.158 0.302,-0.131 0.302,-0.099Z" style="fill:white;fill-rule:nonzero;"/>
        </g>
        <g transform="matrix(32,0,0,32,382.617,300)">
            <path d="M0.545,0.001L0.139,-0C0.056,-0.091 0.014,-0.197 0.014,-0.32C0.014,-0.443 0.056,-0.549 0.139,-0.64L0.545,-0.64L0.545,-0.442L0.276,-0.442C0.255,-0.404 0.245,-0.363 0.245,-0.32C0.245,-0.276 0.255,-0.235 0.276,-0.198L0.545,-0.198L0.545,0.001Z" style="fill:white;fill-rule:nonzero;"/>
        </g>
        <g transform="matrix(32,0,0,32,400.505,300)">
            <path d="M0.749,-0.321C0.749,-0.224 0.713,-0.142 0.641,-0.073C0.569,-0.004 0.483,0.03 0.382,0.03C0.281,0.03 0.194,-0.004 0.122,-0.073C0.05,-0.142 0.014,-0.224 0.014,-0.321C0.014,-0.418 0.05,-0.5 0.122,-0.569C0.194,-0.638 0.281,-0.672 0.382,-0.672C0.483,-0.672 0.57,-0.638 0.642,-0.569C0.713,-0.5 0.749,-0.418 0.749,-0.321ZM0.494,-0.308C0.494,-0.338 0.483,-0.364 0.461,-0.385C0.439,-0.406 0.413,-0.417 0.382,-0.417C0.351,-0.417 0.325,-0.406 0.303,-0.385C0.281,-0.364 0.27,-0.338 0.27,-0.308C0.27,-0.278 0.281,-0.252 0.303,-0.231C0.325,-0.21 0.351,-0.199 0.382,-0.199C0.413,-0.199 0.439,-0.21 0.461,-0.231C0.483,-0.252 0.494,-0.278 0.494,-0.308Z" style="fill:white;fill-rule:nonzero;"/>
        </g>
        <g transform="matrix(32,0,0,32,424.921,300)">
            <path d="M0.721,-0L0.499,-0L0.499,-0.217L0.367,0.032L0.236,-0.217L0.236,-0L0.013,-0L0.013,-0.64L0.233,-0.64L0.367,-0.422L0.501,-0.64L0.721,-0.64L0.721,-0Z" style="fill:white;fill-rule:nonzero;"/>
        </g>
    </g>
</svg>
