<svg width="128" height="128" xmlns="http://www.w3.org/2000/svg">

 <title/>
 <g>
  <title>background</title>
  <rect fill="none" id="canvas_background" height="402" width="582" y="-1" x="-1"/>
 </g>
 <g>
  <title>Layer 1</title>
  <path fill="#cccccc" id="svg_1" d="m106.09,20.5a1.41,1.41 0 0 1 1.41,1.41l0,84.19a1.41,1.41 0 0 1 -1.41,1.41l-84.18,0a1.41,1.41 0 0 1 -1.41,-1.41l0,-84.19a1.41,1.41 0 0 1 1.41,-1.41l84.19,0m0,-6.5l-84.19,0a7.91,7.91 0 0 0 -7.91,7.91l0,84.19a7.91,7.91 0 0 0 7.91,7.9l84.19,0a7.91,7.91 0 0 0 7.91,-7.91l0,-84.18a7.91,7.91 0 0 0 -7.92,-7.91l0.01,0z" class="cls-1"/>
  <rect fill="#cccccc" id="svg_2" y="50.4" x="37.27" width="11.73" height="41.73" class="cls-1"/>
  <path fill="#cccccc" id="svg_3" d="m77.23,50.4c-10.05,0 -10.23,5.81 -10.23,6.21l0,-6.21l-12,0l0,41.73l12,0l0,-23.82c0,-1.86 0.55,-5.86 6.23,-5.86s5.63,5.73 5.63,5.73l0,24l11.87,0l0,-26c0,-12.33 -6.73,-15.78 -13.5,-15.78z" class="cls-1"/>
  <circle fill="#cccccc" id="svg_4" r="5.86" cy="41.73" cx="43.13" class="cls-1"/>
 </g>
</svg>