<svg width="512" height="512" xmlns="http://www.w3.org/2000/svg">

 <g>
  <title>background</title>
  <rect fill="none" id="canvas_background" height="402" width="582" y="-1" x="-1"/>
 </g>
 <g>
  <title>Layer 1</title>
  <path fill="#cccccc" id="svg_1" d="m445.11,304.422l-65.654,-41.484l65.188,-48.212c3.203,-2.364 3.878,-6.875 1.51,-10.074c-2.364,-3.199 -6.875,-3.874 -10.074,-1.506l-92.44,68.363l-0.039,-0.031l-0.038,0.031l-92.441,-68.363c-3.194,-2.368 -7.705,-1.693 -10.074,1.506c-2.364,3.199 -1.688,7.71 1.511,10.074l65.188,48.212l-65.65,41.484c-3.365,2.127 -4.368,6.576 -2.24,9.941c1.37,2.167 3.703,3.358 6.095,3.358c1.32,0 2.647,-0.361 3.844,-1.118l70.382,-44.474l19.144,14.162c1.27,0.939 2.775,1.413 4.281,1.413c1.507,0 3.013,-0.474 4.286,-1.413l19.139,-14.162l70.383,44.474c1.195,0.757 2.527,1.118 3.844,1.118c2.392,0 4.728,-1.191 6.095,-3.358c2.123,-3.365 1.122,-7.814 -2.24,-9.941z"/>
  <path fill="#cccccc" id="svg_2" d="m439.447615,160.325l-189.726,0c-27.857,0 -50.521,24.694 -50.521,55.045l0,81.256c0,30.354 22.664,55.049 50.521,55.049l189.727,0c27.862,0 50.525,-24.694 50.525,-55.049l0,-81.256c0,-30.351 -22.664,-55.045 -50.526,-55.045zm33.988,136.301c0,20.448 -15.214,37.028 -33.988,37.028l-189.726,0c-18.77,0 -33.983,-16.58 -33.983,-37.028l0,-81.256c0,-20.447 15.214,-37.023 33.983,-37.023l189.727,0c18.774,0 33.988,16.576 33.988,37.023l0,81.256l-0.001,0z"/>
  <path fill="#cccccc" id="svg_3" d="m161.824,204.391l-130.648,0c-4.507,0 -8.164,3.656 -8.164,8.164c0,4.511 3.657,8.168 8.164,8.168l130.648,0c4.503,0 8.16,-3.657 8.16,-8.168c0.001,-4.507 -3.657,-8.164 -8.16,-8.164z"/>
  <path fill="#cccccc" id="svg_4" d="m163.583,244.813385l-102.468,0c-3.533,0 -6.402,3.653 -6.402,8.164c0,4.507 2.869,8.168 6.402,8.168l102.468,0c3.538,0 6.402,-3.661 6.402,-8.168c0,-4.511 -2.865,-8.164 -6.402,-8.164z"/>
  <path fill="#cccccc" id="svg_5" d="m164.965,287.2l-80.367,0c-2.776,0 -5.02,3.657 -5.02,8.164c0,4.512 2.244,8.168 5.02,8.168l80.367,0c2.771,0 5.02,-3.656 5.02,-8.168c0,-4.507 -2.248,-8.164 -5.02,-8.164z"/>
 </g>
</svg>