<svg width="64" height="64" xmlns="http://www.w3.org/2000/svg">

 <g>
  <title>background</title>
  <rect fill="none" id="canvas_background" height="402" width="582" y="-1" x="-1"/>
 </g>
 <g>
  <title>Layer 1</title>
  <path stroke="#00000e" id="svg_2" fill="#00000e" d="m19.5,29.5c1.277,0 2.442,0.582 3.197,1.597l0.803,1.078l0.803,-1.078c0.392,-0.526 0.897,-0.93 1.468,-1.202c-0.278,-0.222 -0.547,-0.455 -0.802,-0.703c-0.57,0.335 -1.072,0.775 -1.469,1.309c-0.911,-1.225 -2.356,-2 -4,-2c-2.762,0 -5,2.238 -5,5c0,5 9,10 9,10s9,-5 9,-10c0,-0.526 -0.104,-1.023 -0.254,-1.5l-0.746,0c-0.102,0 -0.201,-0.014 -0.303,-0.017c0.193,0.468 0.303,0.979 0.303,1.517c0,3.386 -5.382,7.288 -8,8.846c-2.618,-1.558 -8,-5.46 -8,-8.846c0,-2.207 1.794,-4.001 4,-4.001z"/>
  <path stroke="#00000e" id="svg_3" fill="#00000e" d="m40,39.5c0,4.687 -3.364,8.5 -7.5,8.5l-11.095,0l-0.91,0l-0.086,0.906c-0.418,4.46 -2.444,6.951 -6.45,7.779c1.981,-2.176 2.411,-4.921 2.513,-7.648l0.039,-1.037l-1.038,0l-0.973,0c-4.369,0 -8.5,-4.131 -8.5,-8.5l0,-10c0,-4.136 3.813,-7.5 8.5,-7.5l7.5,0l0,-1l-7.5,0c-4.95,0 -9.5,3.55 -9.5,8.5l0,10c0,4.95 4.55,9.5 9.5,9.5l0.973,0c-0.149,4 -1.025,7.045 -4.973,9c5.837,0 10.248,-2 10.905,-9l11.095,0c4.95,0 8.5,-4.55 8.5,-9.5l0,-7.5l-1,0l0,7.5z"/>
  <path stroke="#00000e" id="svg_4" fill="#00000e" d="m51.5,5l-20,0c-4.4,0 -8.5,3.1 -8.5,7.5l0,10c0,4.4 4.1,8.5 8.5,8.5l13.095,0c0.657,7 5.068,9 10.905,9c-3.947,-1.955 -4.823,-5 -4.973,-9l0.973,0c4.4,0 7.5,-4.1 7.5,-8.5l0,-10c0,-4.4 -3.1,-7.5 -7.5,-7.5zm6.5,17.5c0,3.607 -2.485,7.5 -6.5,7.5l-0.973,0l-1.038,0l0.039,1.037c0.102,2.728 0.531,5.473 2.513,7.648c-4.006,-0.828 -6.032,-3.319 -6.45,-7.779l-0.086,-0.906l-0.91,0l-13.095,0c-3.855,0 -7.5,-3.645 -7.5,-7.5l0,-10c0,-4.015 3.893,-6.5 7.5,-6.5l20,0c3.827,0 6.5,2.673 6.5,6.5l0,10z"/>
  <path id="svg_5" fill="#00000e" d="m49.5,16.5c-1.657,0 -3,1.343 -3,3s1.343,3 3,3s3,-1.343 3,-3s-1.343,-3 -3,-3zm0,5c-1.103,0 -2,-0.897 -2,-2s0.897,-2 2,-2s2,0.897 2,2s-0.897,2 -2,2z"/>
  <path id="svg_6" fill="#00000e" d="m41.5,16.5c-1.657,0 -3,1.343 -3,3s1.343,3 3,3s3,-1.343 3,-3s-1.343,-3 -3,-3zm0,5c-1.103,0 -2,-0.897 -2,-2s0.897,-2 2,-2s2,0.897 2,2s-0.897,2 -2,2z"/>
  <path id="svg_7" fill="#00000e" d="m33.5,16.5c-1.657,0 -3,1.343 -3,3s1.343,3 3,3s3,-1.343 3,-3s-1.343,-3 -3,-3zm0,5c-1.103,0 -2,-0.897 -2,-2s0.897,-2 2,-2s2,0.897 2,2s-0.897,2 -2,2z"/>
 </g>
</svg>