<svg width="32" height="32" xmlns="http://www.w3.org/2000/svg">

 <g>
  <title>background</title>
  <rect fill="none" id="canvas_background" height="402" width="582" y="-1" x="-1"/>
 </g>
 <g>
  <title>Layer 1</title>
  <path id="svg_5" fill="#263238" d="m30.5,6c0.276,0 0.5,-0.224 0.5,-0.5l0,-1c0,-1.379 -1.121,-2.5 -2.5,-2.5l-1,0c-0.276,0 -0.5,0.224 -0.5,0.5s0.224,0.5 0.5,0.5l1,0c0.827,0 1.5,0.673 1.5,1.5l0,1c0,0.276 0.224,0.5 0.5,0.5z"/>
  <path id="svg_8" fill="#263238" d="m1,27.5l0,-1c0,-0.276 0.224,-0.5 0.5,-0.5l21,0c0.276,0 0.5,0.224 0.5,0.5l0,1c0,0.827 0.673,1.5 1.5,1.5c0.276,0 0.5,0.224 0.5,0.5s-0.224,0.5 -0.5,0.5l-21,0c-1.379,0 -2.5,-1.121 -2.5,-2.5zm21,0l0,-0.5l-20,0l0,0.5c0,0.827 0.673,1.5 1.5,1.5l19.001,0c-0.314,-0.418 -0.501,-0.937 -0.501,-1.5z"/>
  <path id="svg_14" fill="#263238" d="m22.011,18.01c-0.195,0.196 -0.195,0.512 0,0.708l1.414,1.414c0.195,0.195 0.512,0.195 0.707,0s0.195,-0.512 0,-0.707l-1.414,-1.415c-0.196,-0.196 -0.512,-0.196 -0.707,0z"/>
  <path id="svg_17" fill="#263238" d="m17,21c-4.411,0 -8,-3.589 -8,-8s3.589,-8 8,-8c1.66,0 3.252,0.504 4.605,1.458c0.226,0.158 0.28,0.471 0.121,0.696c-0.159,0.226 -0.472,0.281 -0.697,0.12c-1.183,-0.834 -2.576,-1.274 -4.029,-1.274c-3.86,0 -7,3.141 -7,7s3.14,7 7,7s7,-3.141 7,-7c0,-0.719 -0.108,-1.427 -0.322,-2.105c-0.083,-0.264 0.063,-0.545 0.327,-0.627c0.264,-0.081 0.544,0.063 0.627,0.326c0.244,0.776 0.368,1.586 0.368,2.406c0,4.411 -3.589,8 -8,8z"/>
  <path id="svg_19" fill="#263238" d="m25,20c0.256,0 0.512,0.098 0.707,0.293l4,4c0.391,0.391 0.391,1.023 0,1.414c-0.195,0.195 -0.451,0.293 -0.707,0.293s-0.512,-0.098 -0.707,-0.293l-4,-4c-0.391,-0.391 -0.391,-1.023 0,-1.414c0.195,-0.195 0.451,-0.293 0.707,-0.293l0,0zm0,-1c-0.534,0 -1.036,0.208 -1.414,0.586s-0.586,0.88 -0.586,1.414s0.208,1.036 0.586,1.414l4,4c0.378,0.378 0.88,0.586 1.414,0.586s1.036,-0.208 1.414,-0.586s0.586,-0.88 0.586,-1.414s-0.208,-1.036 -0.586,-1.414l-4,-4c-0.378,-0.378 -0.88,-0.586 -1.414,-0.586l0,0z"/>
  <path id="svg_24" fill="#2bbd7e" d="m16.5,16c-0.004,0 -0.008,0 -0.012,0c-0.145,-0.004 -0.28,-0.069 -0.373,-0.18l-2.5,-3c-0.176,-0.213 -0.147,-0.528 0.064,-0.705c0.213,-0.176 0.527,-0.147 0.705,0.064l2.133,2.561l7.114,-7.578c0.188,-0.204 0.504,-0.216 0.706,-0.031c0.203,0.187 0.217,0.503 0.03,0.707l-7.499,8c-0.095,0.103 -0.227,0.162 -0.368,0.162z"/>
  <path id="svg_26" fill="#263238" d="m28.5,3c0.276,0 0.5,-0.224 0.5,-0.5s-0.224,-0.5 -0.5,-0.5l-20,0c-1.379,0 -2.5,1.121 -2.5,2.5l0,20c0,0.276 0.224,0.5 0.5,0.5s0.5,-0.224 0.5,-0.5l0,-20c0,-0.827 0.673,-1.5 1.5,-1.5l18.001,0c-0.314,0.418 -0.501,0.938 -0.501,1.5l0,13c0,0.276 0.224,0.5 0.5,0.5l0,0c0.276,0 0.5,-0.224 0.5,-0.5l0,-13c0,-0.827 0.673,-1.5 1.5,-1.5z"/>
  <path id="svg_27" fill="#263238" d="m24.5,29l-1.75,0l0,1l1.75,0c1.379,0 2.5,-1.121 2.5,-2.5l0,0c0,-0.276 -0.224,-0.5 -0.5,-0.5l0,0c-0.276,0 -0.5,0.224 -0.5,0.5l0,0c0,0.827 -0.673,1.5 -1.5,1.5z"/>
 </g>
</svg>