<svg width="1000" height="1000" xmlns="http://www.w3.org/2000/svg">

 <g>
  <title>background</title>
  <rect fill="none" id="canvas_background" height="402" width="582" y="-1" x="-1"/>
 </g>
 <g>
  <title>Layer 1</title>
  <circle id="svg_2" fill="#cccccc" r="35.54" cy="320.371" cx="273.619"/>
  <path id="svg_3" fill="#cccccc" d="m438.356932,535.771c-52.22,-69.47 -38.19,-168.47 31.28,-220.7c27.53,-20.69 60.25,-31.63 94.61,-31.63c23.92,0 47.9,5.54 69.35,16.01c22.19,10.83 41.81,27.05 56.74,46.91c35.35,47.03 41.22,108.84 17.13,160.85c6.61,6.3 10.8,14.8 11.69,24.22c0.39,4.13 0.13,8.19 -0.74,12.09l54.17,0l0,-315.3c0,-16.57 -13.43,-30 -30,-30l-558.32,0c-16.57,0 -30,13.43 -30,30l0,315.3l290.31,0c-2.15,-2.51 -4.23,-5.1 -6.22,-7.75zm242.22,-295.86c2.27,-2.26 5.4,-3.67 8.83,-3.67l28,0c6.88,0 12.5,5.62 12.5,12.5c0,3.43 -1.41,6.56 -3.67,8.83c-2.26,2.26 -5.39,3.67 -8.83,3.67l-28,0c-6.87,0 -12.5,-5.63 -12.5,-12.5c0,-3.44 1.41,-6.57 3.67,-8.83zm-83.5,0c2.27,-2.26 5.4,-3.67 8.83,-3.67l28,0c6.88,0 12.5,5.62 12.5,12.5c0,3.43 -1.41,6.56 -3.67,8.83c-2.26,2.26 -5.39,3.67 -8.83,3.67l-28,0c-6.87,0 -12.5,-5.63 -12.5,-12.5c0,-3.44 1.41,-6.57 3.67,-8.83zm-83.5,0c2.27,-2.26 5.4,-3.67 8.83,-3.67l28,0c6.88,0 12.5,5.62 12.5,12.5c0,3.43 -1.41,6.56 -3.67,8.83c-2.26,2.26 -5.39,3.67 -8.83,3.67l-28,0c-6.87,0 -12.5,-5.63 -12.5,-12.5c0,-3.44 1.41,-6.57 3.67,-8.83zm-248.88,255.58c-2.26,2.26 -5.39,3.67 -8.83,3.67l-45.43,0c-6.88,0 -12.5,-5.62 -12.5,-12.5c0,-3.43 1.4,-6.56 3.67,-8.83c2.27,-2.26 5.39,-3.67 8.83,-3.67l45.43,0c6.88,0 12.5,5.63 12.5,12.5c0,3.44 -1.41,6.57 -3.67,8.83zm85.15,-50c-2.27,2.26 -5.39,3.67 -8.83,3.67l-130.58,0c-6.88,0 -12.5,-5.62 -12.5,-12.5c0,-3.43 1.4,-6.56 3.67,-8.83c2.27,-2.26 5.39,-3.67 8.83,-3.67l130.58,0c6.88,0 12.5,5.63 12.5,12.5c0,3.44 -1.4,6.57 -3.67,8.83zm3.67,-119.17c0,3.34 -1.36,6.37 -3.55,8.56c-2.19,2.19 -5.21,3.54 -8.55,3.54c-0.69,0 -1.35,-0.07 -2.01,-0.18c-1.48,5.45 -3.68,10.74 -6.59,15.72c0.42,0.33 0.82,0.67 1.21,1.05c4.729,4.73 4.72,12.39 0,17.12l-7.42,7.42c-4.73,4.73 -12.39,4.73 -17.12,0c-0.45,-0.45 -0.85,-0.94 -1.22,-1.44c-5.03,2.83 -10.37,4.94 -15.85,6.34c0.07,0.52 0.12,1.06 0.12,1.61c0,6.68 -5.42,12.1 -12.1,12.1l-10.5,0c-3.34,0 -6.36,-1.35 -8.55,-3.55c-2.2,-2.19 -3.55,-5.21 -3.55,-8.55c0,-0.73 0.07,-1.44 0.2,-2.13c-5.01,-1.44 -9.88,-3.49 -14.49,-6.14c-0.44,0.66 -0.95,1.29 -1.54,1.88c-4.72,4.72 -12.39,4.72 -17.11,0l-7.42,-7.43c-4.73,-4.73 -4.73,-12.39 0,-17.11c0.58,-0.59 1.21,-1.1 1.87,-1.54c-2.83,-4.93 -4.98,-10.16 -6.43,-15.53c-0.92,0.23 -1.88,0.36 -2.88,0.36c-6.68,0 -12.1,-5.42 -12.1,-12.1l0,-10.5c0,-6.68 5.42,-12.1 12.1,-12.1c0.97,0 1.92,0.13 2.82,0.35c1.42,-5.35 3.53,-10.54 6.32,-15.46c-0.92,-0.53 -1.8,-1.17 -2.58,-1.95c-4.73,-4.73 -4.73,-12.39 0,-17.12l7.42,-7.42c4.73,-4.73 12.39,-4.73 17.12,0c0.71,0.71 1.31,1.5 1.81,2.34c4.86,-2.88 10.02,-5.06 15.33,-6.56c-0.28,-1.03 -0.44,-2.1 -0.44,-3.22c0,-6.68 5.42,-12.1 12.1,-12.1l10.5,0c6.68,0 12.1,5.42 12.1,12.1c0,0.94 -0.12,1.84 -0.31,2.72c5.75,1.45 11.34,3.68 16.61,6.71c0.43,-0.67 0.95,-1.29 1.53,-1.88c4.73,-4.72 12.39,-4.729 17.12,0l7.42,7.42c2.36,2.36 3.55,5.46 3.55,8.56c-0.01,3.1 -1.18,6.19 -3.55,8.56c-0.58,0.58 -1.22,1.1 -1.88,1.53c2.85,4.95 5,10.2 6.45,15.59c0.63,-0.1 1.28,-0.17 1.94,-0.17c6.68,0 12.1,5.42 12.1,12.1l0,10.5z"/>
  <path id="svg_4" fill="#cccccc" d="m620.209,617.601c-14.71,0 -27.71,-8.24 -34.21,-20.7c-7.8,1.19 -15.71,1.79 -23.67,1.79c-23.92,0 -47.89,-5.54 -69.34,-16.01c-8.22,-4.01 -16.09,-8.76 -23.49,-14.16l-317.34,0l0,30.55c0,16.56 13.43,30 30,30l82.42,0c5.8,0 10.5,4.7 10.5,10.49c0,8.29 3.36,15.79 8.79,21.21c5.42,5.43 12.92,8.79 21.21,8.79l312.48,0c16.57,0 30,-13.43 30,-30c0,-0.21 0.01,-0.43 0.02,-0.64l-17.07,-22.71c-3.33,0.92 -6.78,1.39 -10.3,1.39z"/>
  <path id="svg_5" fill="#cccccc" d="m770.479,599.071l0,-30.55l-49.05,0l39.47,52.51c5.9,-5.47 9.58,-13.29 9.58,-21.96z"/>
  <path id="svg_6" fill="#cccccc" d="m497.246,741.727l-4.157,0l0,-47.166l-113.53,0l0,47.166l-4.162,0c-16.569,0 -30,13.432 -30,30l0,29.554l181.849,0l0,-29.554c0.001,-16.569 -13.431,-30 -30,-30z"/>
  <path id="svg_7" fill="#cccccc" d="m841.818,729.536l-51.055,-67.921c-8.826,-11.743 -24.602,-15.171 -37.29,-8.85l-75.399,-100.308l8.753,-6.58c8.069,-6.065 6.89,-18.512 -2.174,-22.956l-13.255,-6.497c31.547,-45.684 32.039,-108.224 -3.154,-155.042c-44.008,-58.546 -127.145,-70.332 -185.691,-26.323c-58.546,44.008 -70.332,127.145 -26.324,185.691c35.192,46.818 95.405,63.728 148.057,46.122l2.557,14.538c1.749,9.942 13.378,14.533 21.447,8.468l8.753,-6.58l75.4,100.308c-9.592,10.438 -10.689,26.537 -1.862,38.28l51.055,67.921c8.827,11.743 24.596,15.164 37.289,8.851l0.313,0.415l4.405,-3.311l6.114,-4.596l-47.131,-62.701c-4.146,-5.516 -3.034,-13.357 2.481,-17.503c5.524,-4.152 13.357,-3.034 17.502,2.481l47.132,62.701l6.123,-4.602l4.404,-3.311l-0.313,-0.416c9.6,-10.429 10.69,-26.537 1.863,-38.279zm-214.918,-202.445c-47.434,35.655 -115.031,26.072 -150.686,-21.361c-35.655,-47.434 -26.073,-115.032 21.361,-150.687c47.434,-35.655 115.032,-26.072 150.687,21.361c35.655,47.434 26.071,115.032 -21.362,150.687z"/>
  <path id="svg_8" fill="#cccccc" d="m515.004,441.174c-1.392,-1.928 -3.029,-3.697 -4.91,-5.314c-1.891,-1.628 -3.913,-3.086 -6.067,-4.393c-1.317,-0.771 -2.737,-1.524 -4.28,-2.257c-1.543,-0.734 -2.973,-1.543 -4.28,-2.427c-1.307,-0.884 -2.389,-1.929 -3.236,-3.123c-0.846,-1.195 -1.27,-2.671 -1.27,-4.449c0,-1.383 0.479,-2.578 1.448,-3.584c0.96,-0.997 2.408,-1.505 4.327,-1.505c1.232,0 2.502,0.348 3.819,1.044c1.307,0.696 2.041,1.731 2.191,3.123c0.235,2.229 0.969,3.847 2.201,4.853c1.232,0.997 2.737,1.505 4.506,1.505c1.928,0 3.565,-0.715 4.91,-2.145c1.354,-1.42 2.022,-3.132 2.022,-5.145c0,-2.54 -0.574,-4.854 -1.731,-6.933c-1.157,-2.079 -2.662,-3.876 -4.506,-5.371c-1.853,-1.505 -3.951,-2.662 -6.302,-3.471c-2.352,-0.809 -4.685,-1.213 -6.989,-1.213c-2.389,0 -4.759,0.386 -7.111,1.157c-2.352,0.771 -4.468,1.947 -6.359,3.527c-1.891,1.58 -3.424,3.546 -4.619,5.888c-1.204,2.352 -1.796,5.108 -1.796,8.269c0,2.239 0.367,4.336 1.101,6.302c0.733,1.966 1.712,3.81 2.944,5.55c1.232,1.731 2.625,3.311 4.168,4.732c1.533,1.43 3.113,2.681 4.731,3.763c1.618,1.082 3.358,2.06 5.202,2.944c1.853,0.884 3.565,1.872 5.145,2.944c1.581,1.082 2.869,2.333 3.875,3.763c0.997,1.42 1.505,3.254 1.505,5.484c0,2.775 -0.932,4.844 -2.775,6.189c-1.853,1.345 -3.894,2.022 -6.133,2.022c-2.615,0 -4.891,-0.64 -6.819,-1.91c-1.919,-1.27 -3.076,-3.02 -3.462,-5.258c-0.386,-1.928 -1.213,-3.311 -2.483,-4.158c-1.279,-0.846 -2.681,-1.27 -4.223,-1.27c-1.778,0 -3.349,0.593 -4.741,1.787c-1.382,1.195 -2.079,2.907 -2.079,5.146c0,2.314 0.64,4.618 1.91,6.933c1.27,2.313 2.982,4.393 5.145,6.246c2.154,1.844 4.675,3.349 7.563,4.506c2.897,1.157 5.954,1.73 9.19,1.73c2.775,0 5.512,-0.461 8.212,-1.383c2.69,-0.931 5.126,-2.314 7.28,-4.167c2.154,-1.843 3.913,-4.158 5.258,-6.932c1.345,-2.775 2.022,-6.011 2.022,-9.708c0,-2.54 -0.404,-4.91 -1.213,-7.111c-0.808,-2.192 -1.908,-4.252 -3.291,-6.18z"/>
  <path id="svg_9" fill="#cccccc" d="m565.629,415.739c1.929,0 3.566,-0.667 4.91,-2.022c1.345,-1.345 2.023,-2.981 2.023,-4.91c0,-1.928 -0.677,-3.546 -2.023,-4.854c-1.345,-1.308 -2.981,-1.966 -4.91,-1.966l-32.772,0c-1.985,0 -3.603,0.658 -4.863,1.966c-1.261,1.308 -1.891,2.925 -1.891,4.854l0,59.759c0,1.928 0.63,3.546 1.891,4.854c1.26,1.308 2.878,1.966 4.863,1.966l32.659,0c1.844,0 3.424,-0.649 4.741,-1.947c1.308,-1.298 1.956,-2.907 1.956,-4.816c0,-1.985 -0.649,-3.65 -1.956,-4.986c-1.317,-1.335 -2.897,-2.003 -4.741,-2.003l-25.783,0l0,-19.424l24.165,0c1.919,0 3.556,-0.724 4.91,-2.173c1.345,-1.458 2.022,-3.057 2.022,-4.816c0,-1.91 -0.678,-3.518 -2.022,-4.816c-1.354,-1.298 -2.991,-1.947 -4.91,-1.947l-24.165,0l0,-12.718l25.896,0l0,-0.001z"/>
  <path id="svg_10" fill="#cccccc" d="m630.299,403.436c-4.732,-2.042 -9.877,-3.067 -15.427,-3.067c-5.399,0 -10.403,1.044 -15.022,3.123c-4.628,2.079 -8.654,4.891 -12.088,8.438c-3.424,3.546 -6.104,7.648 -8.033,12.313c-1.919,4.656 -2.888,9.576 -2.888,14.73c0,5.324 1.025,10.291 3.066,14.909c2.041,4.628 4.797,8.654 8.259,12.087c3.471,3.424 7.553,6.124 12.256,8.089c4.703,1.966 9.707,2.944 15.022,2.944c5.324,0 10.31,-0.978 14.975,-2.944c4.656,-1.966 8.72,-4.684 12.191,-8.155c3.471,-3.461 6.199,-7.525 8.212,-12.19c1.994,-4.666 3,-9.651 3,-14.966c0,-5.239 -0.978,-10.197 -2.944,-14.853c-1.966,-4.666 -4.703,-8.729 -8.211,-12.2c-3.507,-3.461 -7.628,-6.217 -12.368,-8.258zm7.628,44.906c-1.269,3.001 -3.019,5.625 -5.258,7.854c-2.229,2.239 -4.835,3.988 -7.798,5.258c-2.972,1.27 -6.189,1.91 -9.651,1.91c-3.471,0 -6.669,-0.64 -9.595,-1.91c-2.935,-1.27 -5.493,-3.02 -7.685,-5.258c-2.201,-2.229 -3.913,-4.816 -5.145,-7.741c-1.232,-2.925 -1.853,-6.086 -1.853,-9.482c0,-3.311 0.621,-6.49 1.853,-9.529c1.232,-3.047 2.925,-5.709 5.089,-7.977c2.154,-2.276 4.712,-4.083 7.685,-5.437c2.963,-1.345 6.18,-2.022 9.651,-2.022c3.311,0 6.472,0.658 9.472,1.966c3.01,1.308 5.625,3.085 7.864,5.314c2.239,2.239 4.007,4.854 5.315,7.864c1.307,3.001 1.966,6.199 1.966,9.595c0,3.386 -0.631,6.585 -1.91,9.595z"/>
 </g>
</svg>