<?xml version="1.0" encoding="UTF-8" standalone="no"?>
<!DOCTYPE svg PUBLIC "-//W3C//DTD SVG 1.1//EN" "http://www.w3.org/Graphics/SVG/1.1/DTD/svg11.dtd">
<svg width="100%" height="100%" viewBox="0 0 688 78" version="1.1" xmlns="http://www.w3.org/2000/svg" xmlns:xlink="http://www.w3.org/1999/xlink" xml:space="preserve" xmlns:serif="http://www.serif.com/" style="fill-rule:evenodd;clip-rule:evenodd;stroke-linejoin:round;stroke-miterlimit:2;">
    <g transform="matrix(3.08895,0,0,3.08895,-409.884,-591.628)">
        <path d="M157.304,192.19L154.558,215.906L146.858,215.906C146.153,212.262 145.531,208.117 144.992,203.47C144.746,205.462 144.172,209.608 143.271,215.906L135.616,215.906L132.855,192.19L138.846,192.19L139.498,200.465L140.128,208.465C140.356,204.325 140.924,198.9 141.833,192.19L148.237,192.19C148.322,192.884 148.547,195.491 148.91,200.013L149.591,209.036C149.942,203.295 150.516,197.68 151.312,192.19L157.304,192.19Z" style="fill:none;fill-rule:nonzero;stroke:rgb(255,252,252);stroke-width:0.32px;"/>
        <path d="M158.519,192.19L168.803,192.19L168.803,196.936L164.686,196.936L164.686,201.433L168.539,201.433L168.539,205.945L164.686,205.945L164.686,211.16L169.213,211.16L169.213,215.906L158.519,215.906L158.519,192.19Z" style="fill:none;fill-rule:nonzero;stroke:rgb(255,252,252);stroke-width:0.32px;"/>
        <path d="M170.985,192.19L177.138,192.19C179.081,192.19 180.553,192.342 181.554,192.644C182.555,192.947 183.363,193.559 183.978,194.481C184.594,195.403 184.901,196.889 184.901,198.939C184.901,200.324 184.684,201.291 184.249,201.837C183.815,202.384 182.958,202.803 181.679,203.096C183.104,203.418 184.071,203.953 184.579,204.701C185.087,205.449 185.341,206.594 185.341,208.138L185.341,210.337C185.341,211.939 185.158,213.126 184.791,213.898C184.425,214.67 183.842,215.198 183.041,215.481C182.24,215.764 180.599,215.906 178.119,215.906L170.985,215.906L170.985,192.19ZM177.152,196.248L177.152,201.521C177.416,201.512 177.621,201.507 177.767,201.507C178.373,201.507 178.759,201.358 178.925,201.06C179.091,200.762 179.174,199.91 179.174,198.504C179.174,197.762 179.105,197.242 178.969,196.944C178.832,196.646 178.654,196.458 178.434,196.38C178.214,196.302 177.787,196.258 177.152,196.248ZM177.152,205.213L177.152,211.849C178.021,211.819 178.575,211.682 178.815,211.438C179.054,211.194 179.174,210.594 179.174,209.637L179.174,207.425C179.174,206.409 179.066,205.794 178.851,205.579C178.637,205.364 178.07,205.242 177.152,205.213Z" style="fill:none;fill-rule:nonzero;stroke:rgb(255,252,252);stroke-width:0.32px;"/>
        <path d="M192.841,192.19L197.455,192.19C200.433,192.19 202.448,192.327 203.497,192.6C204.547,192.874 205.346,193.323 205.892,193.948C206.439,194.573 206.781,195.269 206.918,196.036C207.054,196.802 207.123,198.308 207.123,200.555L207.123,208.86C207.123,210.989 207.023,212.412 206.823,213.13C206.622,213.848 206.273,214.41 205.775,214.815C205.277,215.22 204.662,215.503 203.929,215.664C203.197,215.826 202.094,215.906 200.619,215.906L192.841,215.906L192.841,192.19ZM199.008,196.248L199.008,211.849C199.896,211.849 200.443,211.67 200.648,211.314C200.853,210.957 200.956,209.988 200.956,208.406L200.956,199.192C200.956,198.118 200.922,197.43 200.853,197.127C200.785,196.824 200.629,196.602 200.385,196.46C200.14,196.319 199.681,196.248 199.008,196.248Z" style="fill:none;fill-rule:nonzero;stroke:rgb(255,252,252);stroke-width:0.32px;"/>
        <path d="M209.423,192.19L219.706,192.19L219.706,196.936L215.59,196.936L215.59,201.433L219.442,201.433L219.442,205.945L215.59,205.945L215.59,211.16L220.116,211.16L220.116,215.906L209.423,215.906L209.423,192.19Z" style="fill:none;fill-rule:nonzero;stroke:rgb(255,252,252);stroke-width:0.32px;"/>
        <path d="M236.552,192.19L233.413,215.906L224.045,215.906L220.482,192.19L226.986,192.19C227.742,198.723 228.282,204.25 228.605,208.772C228.923,204.202 229.262,200.145 229.619,196.6L230.048,192.19L236.552,192.19Z" style="fill:none;fill-rule:nonzero;stroke:rgb(255,252,252);stroke-width:0.32px;"/>
        <path d="M237.592,192.19L247.875,192.19L247.875,196.936L243.759,196.936L243.759,201.433L247.611,201.433L247.611,205.945L243.759,205.945L243.759,211.16L248.285,211.16L248.285,215.906L237.592,215.906L237.592,192.19Z" style="fill:none;fill-rule:nonzero;stroke:rgb(255,252,252);stroke-width:0.32px;"/>
        <path d="M256.224,192.19L256.224,211.16L259.974,211.16L259.974,215.906L250.057,215.906L250.057,192.19L256.224,192.19Z" style="fill:none;fill-rule:nonzero;stroke:rgb(255,252,252);stroke-width:0.32px;"/>
        <path d="M275.106,206.077C275.106,208.46 275.05,210.147 274.938,211.138C274.825,212.129 274.474,213.035 273.883,213.855C273.292,214.676 272.494,215.306 271.488,215.745C270.482,216.184 269.31,216.404 267.972,216.404C266.703,216.404 265.563,216.197 264.552,215.782C263.541,215.367 262.728,214.744 262.113,213.914C261.498,213.084 261.132,212.181 261.014,211.204C260.897,210.227 260.839,208.518 260.839,206.077L260.839,202.019C260.839,199.637 260.895,197.95 261.007,196.958C261.119,195.967 261.471,195.061 262.062,194.241C262.653,193.421 263.451,192.791 264.457,192.351C265.463,191.912 266.635,191.692 267.972,191.692C269.242,191.692 270.382,191.9 271.393,192.315C272.404,192.73 273.217,193.352 273.832,194.182C274.447,195.013 274.813,195.916 274.93,196.892C275.048,197.869 275.106,199.578 275.106,202.019L275.106,206.077ZM268.939,198.284C268.939,197.181 268.878,196.475 268.756,196.167C268.634,195.86 268.383,195.706 268.002,195.706C267.679,195.706 267.433,195.83 267.262,196.079C267.091,196.328 267.006,197.063 267.006,198.284L267.006,209.358C267.006,210.735 267.062,211.585 267.174,211.907C267.286,212.229 267.548,212.391 267.958,212.391C268.378,212.391 268.646,212.205 268.763,211.834C268.881,211.463 268.939,210.579 268.939,209.182L268.939,198.284Z" style="fill:none;fill-rule:nonzero;stroke:rgb(255,252,252);stroke-width:0.32px;"/>
        <path d="M277.406,192.19L283.617,192.19C285.297,192.19 286.588,192.322 287.492,192.586C288.395,192.849 289.074,193.23 289.528,193.728C289.982,194.226 290.289,194.829 290.45,195.537C290.612,196.245 290.692,197.342 290.692,198.826L290.692,200.891C290.692,202.405 290.536,203.509 290.223,204.202C289.911,204.895 289.337,205.428 288.502,205.799C287.667,206.17 286.576,206.355 285.228,206.355L283.573,206.355L283.573,215.906L277.406,215.906L277.406,192.19ZM283.573,196.248L283.573,202.283C283.749,202.293 283.9,202.298 284.027,202.298C284.594,202.298 284.987,202.159 285.206,201.88C285.426,201.602 285.536,201.023 285.536,200.144L285.536,198.196C285.536,197.386 285.409,196.858 285.155,196.614C284.901,196.37 284.374,196.248 283.573,196.248Z" style="fill:none;fill-rule:nonzero;stroke:rgb(255,252,252);stroke-width:0.32px;"/>
        <path d="M311.493,192.19L311.493,215.906L306.102,215.906L306.095,199.895L303.949,215.906L300.126,215.906L297.863,200.262L297.855,215.906L292.465,215.906L292.465,192.19L300.444,192.19C300.681,193.616 300.925,195.297 301.176,197.232L302.052,203.265L303.469,192.19L311.493,192.19Z" style="fill:none;fill-rule:nonzero;stroke:rgb(255,252,252);stroke-width:0.32px;"/>
        <path d="M313.969,192.19L324.252,192.19L324.252,196.936L320.136,196.936L320.136,201.433L323.988,201.433L323.988,205.945L320.136,205.945L320.136,211.16L324.662,211.16L324.662,215.906L313.969,215.906L313.969,192.19Z" style="fill:none;fill-rule:nonzero;stroke:rgb(255,252,252);stroke-width:0.32px;"/>
        <path d="M340.204,192.19L340.204,215.906L334.799,215.906L331.591,205.125L331.591,215.906L326.434,215.906L326.434,192.19L331.591,192.19L335.048,202.869L335.048,192.19L340.204,192.19Z" style="fill:none;fill-rule:nonzero;stroke:rgb(255,252,252);stroke-width:0.32px;"/>
        <path d="M355.101,192.19L355.101,196.936L351.439,196.936L351.439,215.906L345.272,215.906L345.272,196.936L341.625,196.936L341.625,192.19L355.101,192.19Z" style="fill:none;fill-rule:nonzero;stroke:rgb(255,252,252);stroke-width:0.32px;"/>
    </g>
</svg>
