<?xml version="1.0" encoding="UTF-8" standalone="no"?>
<!DOCTYPE svg PUBLIC "-//W3C//DTD SVG 1.1//EN" "http://www.w3.org/Graphics/SVG/1.1/DTD/svg11.dtd">
<svg width="100%" height="100%" viewBox="0 0 270 50" version="1.1" xmlns="http://www.w3.org/2000/svg" xmlns:xlink="http://www.w3.org/1999/xlink" xml:space="preserve" xmlns:serif="http://www.serif.com/" style="fill-rule:evenodd;clip-rule:evenodd;stroke-linejoin:round;stroke-miterlimit:2;">
    <g transform="matrix(1.01964,0,0,1.01964,-115.857,-338.553)">
        <path d="M141.568,333.487L141.568,379.4L129.628,379.4L129.628,360.116L126.055,360.116L126.055,379.4L114.116,379.4L114.116,333.487L126.055,333.487L126.055,349.907L129.628,349.907L129.628,333.487L141.568,333.487Z" style="fill:none;fill-rule:nonzero;stroke:rgb(255,252,252);stroke-width:0.98px;"/>
        <path d="M171.798,333.487L163.092,362.782L163.092,379.4L152.032,379.4L152.032,362.782L143.638,333.487L154.605,333.487C156.319,342.449 157.286,348.48 157.505,351.58C158.167,346.682 159.275,340.651 160.83,333.487L171.798,333.487Z" style="fill:none;fill-rule:nonzero;stroke:rgb(255,252,252);stroke-width:0.98px;"/>
        <path d="M173.84,333.487L182.773,333.487C188.539,333.487 192.439,333.752 194.471,334.281C196.503,334.811 198.049,335.68 199.108,336.89C200.166,338.1 200.828,339.447 201.093,340.931C201.357,342.416 201.49,345.332 201.49,349.68L201.49,365.76C201.49,369.881 201.296,372.637 200.908,374.026C200.521,375.416 199.845,376.503 198.881,377.288C197.917,378.072 196.725,378.62 195.308,378.932C193.89,379.244 191.753,379.4 188.898,379.4L173.84,379.4L173.84,333.487ZM185.779,341.343L185.779,371.545C187.499,371.545 188.558,371.2 188.955,370.51C189.352,369.82 189.551,367.943 189.551,364.881L189.551,347.043C189.551,344.963 189.485,343.63 189.352,343.044C189.22,342.458 188.917,342.028 188.445,341.754C187.972,341.48 187.083,341.343 185.779,341.343Z" style="fill:none;fill-rule:nonzero;stroke:rgb(255,252,252);stroke-width:0.98px;"/>
        <path d="M205.942,333.487L214.393,333.487C220.027,333.487 223.841,333.705 225.836,334.14C227.83,334.574 229.456,335.685 230.714,337.472C231.971,339.258 232.599,342.108 232.599,346.022C232.599,349.595 232.155,351.996 231.267,353.225C230.378,354.454 228.629,355.191 226.02,355.437C228.383,356.023 229.971,356.808 230.784,357.791C231.597,358.774 232.103,359.677 232.302,360.499C232.5,361.322 232.599,363.585 232.599,367.291L232.599,379.4L221.511,379.4L221.511,364.143C221.511,361.685 221.317,360.164 220.93,359.577C220.542,358.991 219.526,358.698 217.881,358.698L217.881,379.4L205.942,379.4L205.942,333.487ZM217.881,341.343L217.881,351.552C219.223,351.552 220.164,351.368 220.703,350.999C221.242,350.63 221.511,349.434 221.511,347.411L221.511,344.888C221.511,343.432 221.251,342.477 220.731,342.023C220.211,341.57 219.261,341.343 217.881,341.343Z" style="fill:none;fill-rule:nonzero;stroke:rgb(255,252,252);stroke-width:0.98px;"/>
        <path d="M257.86,333.487L264.687,379.4L252.486,379.4L251.845,371.148L247.575,371.148L246.857,379.4L234.514,379.4L240.604,333.487L257.86,333.487ZM251.532,363.009C250.928,357.809 250.322,351.381 249.714,343.725C248.498,352.516 247.734,358.944 247.423,363.009L251.532,363.009Z" style="fill:none;fill-rule:nonzero;stroke:rgb(255,252,252);stroke-width:0.98px;"/>
        <path d="M304.829,353.48L292.89,353.48L292.89,345.5C292.89,343.18 292.763,341.732 292.507,341.157C292.252,340.581 291.69,340.293 290.82,340.293C289.837,340.293 289.213,340.643 288.948,341.343C288.684,342.042 288.551,343.555 288.551,345.88L288.551,367.206C288.551,369.437 288.684,370.893 288.948,371.573C289.213,372.254 289.809,372.594 290.735,372.594C291.624,372.594 292.205,372.253 292.479,371.571C292.753,370.889 292.89,369.287 292.89,366.766L292.89,360.995L304.829,360.995L304.829,362.785C304.829,367.537 304.494,370.907 303.823,372.895C303.151,374.883 301.667,376.625 299.37,378.121C297.073,379.617 294.242,380.364 290.877,380.364C287.379,380.364 284.496,379.731 282.227,378.464C279.959,377.198 278.456,375.444 277.718,373.204C276.981,370.964 276.612,367.594 276.612,363.094L276.612,349.68C276.612,346.372 276.726,343.89 276.953,342.236C277.179,340.582 277.855,338.989 278.98,337.458C280.105,335.926 281.665,334.721 283.659,333.842C285.654,332.963 287.946,332.523 290.536,332.523C294.053,332.523 296.955,333.203 299.243,334.562C301.53,335.922 303.033,337.616 303.752,339.646C304.47,341.675 304.829,344.833 304.829,349.119L304.829,353.48Z" style="fill:none;fill-rule:nonzero;stroke:rgb(255,252,252);stroke-width:0.98px;"/>
        <path d="M345.95,333.487L345.95,379.4L335.514,379.4L335.499,348.404L331.345,379.4L323.943,379.4L319.562,349.113L319.548,379.4L309.112,379.4L309.112,333.487L324.56,333.487C325.018,336.248 325.491,339.501 325.977,343.248L327.672,354.927L330.416,333.487L345.95,333.487Z" style="fill:none;fill-rule:nonzero;stroke:rgb(255,252,252);stroke-width:0.98px;"/>
        <path d="M376.038,347.383L364.95,347.383L364.95,343.98C364.95,342.392 364.808,341.381 364.525,340.946C364.241,340.511 363.768,340.293 363.107,340.293C362.388,340.293 361.845,340.587 361.476,341.173C361.107,341.76 360.923,342.649 360.923,343.841C360.923,345.373 361.13,346.527 361.545,347.303C361.941,348.079 363.065,349.014 364.919,350.11C370.233,353.264 373.581,355.853 374.961,357.876C376.341,359.899 377.031,363.16 377.031,367.66C377.031,370.93 376.648,373.341 375.882,374.891C375.117,376.441 373.637,377.741 371.444,378.791C369.251,379.84 366.699,380.364 363.787,380.364C360.592,380.364 357.865,379.759 355.606,378.549C353.347,377.34 351.867,375.799 351.168,373.927C350.468,372.055 350.118,369.399 350.118,365.958L350.118,362.952L361.207,362.952L361.207,368.539C361.207,370.259 361.363,371.365 361.675,371.857C361.987,372.348 362.54,372.594 363.334,372.594C364.128,372.594 364.718,372.282 365.106,371.658C365.494,371.034 365.687,370.108 365.687,368.879C365.687,366.176 365.319,364.408 364.581,363.576C363.825,362.744 361.963,361.355 358.995,359.407C356.026,357.441 354.06,356.014 353.096,355.125C352.132,354.237 351.333,353.008 350.7,351.438C350.066,349.869 349.75,347.865 349.75,345.426C349.75,341.91 350.199,339.339 351.097,337.713C351.995,336.087 353.446,334.815 355.45,333.899C357.454,332.982 359.874,332.523 362.71,332.523C365.81,332.523 368.452,333.024 370.636,334.026C372.82,335.028 374.266,336.29 374.975,337.812C375.684,339.334 376.038,341.919 376.038,345.568L376.038,347.383Z" style="fill:none;fill-rule:nonzero;stroke:rgb(255,252,252);stroke-width:0.98px;"/>
    </g>
</svg>
