<?xml version="1.0" encoding="UTF-8" standalone="no"?>
<!DOCTYPE svg PUBLIC "-//W3C//DTD SVG 1.1//EN" "http://www.w3.org/Graphics/SVG/1.1/DTD/svg11.dtd">
<svg width="100%" height="100%" viewBox="0 0 750 200" version="1.1" xmlns="http://www.w3.org/2000/svg" xmlns:xlink="http://www.w3.org/1999/xlink" xml:space="preserve" xmlns:serif="http://www.serif.com/" style="fill-rule:evenodd;clip-rule:evenodd;stroke-linejoin:round;stroke-miterlimit:2;">
    <g transform="matrix(3.08895,0,0,3.08895,-378.637,-585.115)">
        <path d="M157.304,192.19L154.558,215.906L146.858,215.906C146.153,212.262 145.531,208.117 144.992,203.47C144.746,205.462 144.172,209.608 143.271,215.906L135.616,215.906L132.855,192.19L138.846,192.19L139.498,200.465L140.128,208.465C140.356,204.325 140.924,198.9 141.833,192.19L148.237,192.19C148.322,192.884 148.547,195.491 148.91,200.013L149.591,209.036C149.942,203.295 150.516,197.68 151.312,192.19L157.304,192.19Z" style="fill:none;fill-rule:nonzero;stroke:rgb(255,252,252);stroke-width:0.32px;"/>
        <path d="M158.519,192.19L168.803,192.19L168.803,196.936L164.686,196.936L164.686,201.433L168.539,201.433L168.539,205.945L164.686,205.945L164.686,211.16L169.213,211.16L169.213,215.906L158.519,215.906L158.519,192.19Z" style="fill:none;fill-rule:nonzero;stroke:rgb(255,252,252);stroke-width:0.32px;"/>
        <path d="M170.985,192.19L177.138,192.19C179.081,192.19 180.553,192.342 181.554,192.644C182.555,192.947 183.363,193.559 183.978,194.481C184.594,195.403 184.901,196.889 184.901,198.939C184.901,200.324 184.684,201.291 184.249,201.837C183.815,202.384 182.958,202.803 181.679,203.096C183.104,203.418 184.071,203.953 184.579,204.701C185.087,205.449 185.341,206.594 185.341,208.138L185.341,210.337C185.341,211.939 185.158,213.126 184.791,213.898C184.425,214.67 183.842,215.198 183.041,215.481C182.24,215.764 180.599,215.906 178.119,215.906L170.985,215.906L170.985,192.19ZM177.152,196.248L177.152,201.521C177.416,201.512 177.621,201.507 177.767,201.507C178.373,201.507 178.759,201.358 178.925,201.06C179.091,200.762 179.174,199.91 179.174,198.504C179.174,197.762 179.105,197.242 178.969,196.944C178.832,196.646 178.654,196.458 178.434,196.38C178.214,196.302 177.787,196.258 177.152,196.248ZM177.152,205.213L177.152,211.849C178.021,211.819 178.575,211.682 178.815,211.438C179.054,211.194 179.174,210.594 179.174,209.637L179.174,207.425C179.174,206.409 179.066,205.794 178.851,205.579C178.637,205.364 178.07,205.242 177.152,205.213Z" style="fill:none;fill-rule:nonzero;stroke:rgb(255,252,252);stroke-width:0.32px;"/>
        <path d="M192.841,192.19L197.455,192.19C200.433,192.19 202.448,192.327 203.497,192.6C204.547,192.874 205.346,193.323 205.892,193.948C206.439,194.573 206.781,195.269 206.918,196.036C207.054,196.802 207.123,198.308 207.123,200.555L207.123,208.86C207.123,210.989 207.023,212.412 206.823,213.13C206.622,213.848 206.273,214.41 205.775,214.815C205.277,215.22 204.662,215.503 203.929,215.664C203.197,215.826 202.094,215.906 200.619,215.906L192.841,215.906L192.841,192.19ZM199.008,196.248L199.008,211.849C199.896,211.849 200.443,211.67 200.648,211.314C200.853,210.957 200.956,209.988 200.956,208.406L200.956,199.192C200.956,198.118 200.922,197.43 200.853,197.127C200.785,196.824 200.629,196.602 200.385,196.46C200.14,196.319 199.681,196.248 199.008,196.248Z" style="fill:none;fill-rule:nonzero;stroke:rgb(255,252,252);stroke-width:0.32px;"/>
        <path d="M209.423,192.19L219.706,192.19L219.706,196.936L215.59,196.936L215.59,201.433L219.442,201.433L219.442,205.945L215.59,205.945L215.59,211.16L220.116,211.16L220.116,215.906L209.423,215.906L209.423,192.19Z" style="fill:none;fill-rule:nonzero;stroke:rgb(255,252,252);stroke-width:0.32px;"/>
        <path d="M236.552,192.19L233.413,215.906L224.045,215.906L220.482,192.19L226.986,192.19C227.742,198.723 228.282,204.25 228.605,208.772C228.923,204.202 229.262,200.145 229.619,196.6L230.048,192.19L236.552,192.19Z" style="fill:none;fill-rule:nonzero;stroke:rgb(255,252,252);stroke-width:0.32px;"/>
        <path d="M237.592,192.19L247.875,192.19L247.875,196.936L243.759,196.936L243.759,201.433L247.611,201.433L247.611,205.945L243.759,205.945L243.759,211.16L248.285,211.16L248.285,215.906L237.592,215.906L237.592,192.19Z" style="fill:none;fill-rule:nonzero;stroke:rgb(255,252,252);stroke-width:0.32px;"/>
        <path d="M256.224,192.19L256.224,211.16L259.974,211.16L259.974,215.906L250.057,215.906L250.057,192.19L256.224,192.19Z" style="fill:none;fill-rule:nonzero;stroke:rgb(255,252,252);stroke-width:0.32px;"/>
        <path d="M275.106,206.077C275.106,208.46 275.05,210.147 274.938,211.138C274.825,212.129 274.474,213.035 273.883,213.855C273.292,214.676 272.494,215.306 271.488,215.745C270.482,216.184 269.31,216.404 267.972,216.404C266.703,216.404 265.563,216.197 264.552,215.782C263.541,215.367 262.728,214.744 262.113,213.914C261.498,213.084 261.132,212.181 261.014,211.204C260.897,210.227 260.839,208.518 260.839,206.077L260.839,202.019C260.839,199.637 260.895,197.95 261.007,196.958C261.119,195.967 261.471,195.061 262.062,194.241C262.653,193.421 263.451,192.791 264.457,192.351C265.463,191.912 266.635,191.692 267.972,191.692C269.242,191.692 270.382,191.9 271.393,192.315C272.404,192.73 273.217,193.352 273.832,194.182C274.447,195.013 274.813,195.916 274.93,196.892C275.048,197.869 275.106,199.578 275.106,202.019L275.106,206.077ZM268.939,198.284C268.939,197.181 268.878,196.475 268.756,196.167C268.634,195.86 268.383,195.706 268.002,195.706C267.679,195.706 267.433,195.83 267.262,196.079C267.091,196.328 267.006,197.063 267.006,198.284L267.006,209.358C267.006,210.735 267.062,211.585 267.174,211.907C267.286,212.229 267.548,212.391 267.958,212.391C268.378,212.391 268.646,212.205 268.763,211.834C268.881,211.463 268.939,210.579 268.939,209.182L268.939,198.284Z" style="fill:none;fill-rule:nonzero;stroke:rgb(255,252,252);stroke-width:0.32px;"/>
        <path d="M277.406,192.19L283.617,192.19C285.297,192.19 286.588,192.322 287.492,192.586C288.395,192.849 289.074,193.23 289.528,193.728C289.982,194.226 290.289,194.829 290.45,195.537C290.612,196.245 290.692,197.342 290.692,198.826L290.692,200.891C290.692,202.405 290.536,203.509 290.223,204.202C289.911,204.895 289.337,205.428 288.502,205.799C287.667,206.17 286.576,206.355 285.228,206.355L283.573,206.355L283.573,215.906L277.406,215.906L277.406,192.19ZM283.573,196.248L283.573,202.283C283.749,202.293 283.9,202.298 284.027,202.298C284.594,202.298 284.987,202.159 285.206,201.88C285.426,201.602 285.536,201.023 285.536,200.144L285.536,198.196C285.536,197.386 285.409,196.858 285.155,196.614C284.901,196.37 284.374,196.248 283.573,196.248Z" style="fill:none;fill-rule:nonzero;stroke:rgb(255,252,252);stroke-width:0.32px;"/>
        <path d="M311.493,192.19L311.493,215.906L306.102,215.906L306.095,199.895L303.949,215.906L300.126,215.906L297.863,200.262L297.855,215.906L292.465,215.906L292.465,192.19L300.444,192.19C300.681,193.616 300.925,195.297 301.176,197.232L302.052,203.265L303.469,192.19L311.493,192.19Z" style="fill:none;fill-rule:nonzero;stroke:rgb(255,252,252);stroke-width:0.32px;"/>
        <path d="M313.969,192.19L324.252,192.19L324.252,196.936L320.136,196.936L320.136,201.433L323.988,201.433L323.988,205.945L320.136,205.945L320.136,211.16L324.662,211.16L324.662,215.906L313.969,215.906L313.969,192.19Z" style="fill:none;fill-rule:nonzero;stroke:rgb(255,252,252);stroke-width:0.32px;"/>
        <path d="M340.204,192.19L340.204,215.906L334.799,215.906L331.591,205.125L331.591,215.906L326.434,215.906L326.434,192.19L331.591,192.19L335.048,202.869L335.048,192.19L340.204,192.19Z" style="fill:none;fill-rule:nonzero;stroke:rgb(255,252,252);stroke-width:0.32px;"/>
        <path d="M355.101,192.19L355.101,196.936L351.439,196.936L351.439,215.906L345.272,215.906L345.272,196.936L341.625,196.936L341.625,192.19L355.101,192.19Z" style="fill:none;fill-rule:nonzero;stroke:rgb(255,252,252);stroke-width:0.32px;"/>
    </g>
    <g transform="matrix(1.01964,0,0,1.01964,-84.6108,-194.847)">
        <path d="M141.568,333.487L141.568,379.4L129.628,379.4L129.628,360.116L126.055,360.116L126.055,379.4L114.116,379.4L114.116,333.487L126.055,333.487L126.055,349.907L129.628,349.907L129.628,333.487L141.568,333.487Z" style="fill:none;fill-rule:nonzero;stroke:rgb(255,252,252);stroke-width:0.98px;"/>
        <path d="M171.798,333.487L163.092,362.782L163.092,379.4L152.032,379.4L152.032,362.782L143.638,333.487L154.605,333.487C156.319,342.449 157.286,348.48 157.505,351.58C158.167,346.682 159.275,340.651 160.83,333.487L171.798,333.487Z" style="fill:none;fill-rule:nonzero;stroke:rgb(255,252,252);stroke-width:0.98px;"/>
        <path d="M173.84,333.487L182.773,333.487C188.539,333.487 192.439,333.752 194.471,334.281C196.503,334.811 198.049,335.68 199.108,336.89C200.166,338.1 200.828,339.447 201.093,340.931C201.357,342.416 201.49,345.332 201.49,349.68L201.49,365.76C201.49,369.881 201.296,372.637 200.908,374.026C200.521,375.416 199.845,376.503 198.881,377.288C197.917,378.072 196.725,378.62 195.308,378.932C193.89,379.244 191.753,379.4 188.898,379.4L173.84,379.4L173.84,333.487ZM185.779,341.343L185.779,371.545C187.499,371.545 188.558,371.2 188.955,370.51C189.352,369.82 189.551,367.943 189.551,364.881L189.551,347.043C189.551,344.963 189.485,343.63 189.352,343.044C189.22,342.458 188.917,342.028 188.445,341.754C187.972,341.48 187.083,341.343 185.779,341.343Z" style="fill:none;fill-rule:nonzero;stroke:rgb(255,252,252);stroke-width:0.98px;"/>
        <path d="M205.942,333.487L214.393,333.487C220.027,333.487 223.841,333.705 225.836,334.14C227.83,334.574 229.456,335.685 230.714,337.472C231.971,339.258 232.599,342.108 232.599,346.022C232.599,349.595 232.155,351.996 231.267,353.225C230.378,354.454 228.629,355.191 226.02,355.437C228.383,356.023 229.971,356.808 230.784,357.791C231.597,358.774 232.103,359.677 232.302,360.499C232.5,361.322 232.599,363.585 232.599,367.291L232.599,379.4L221.511,379.4L221.511,364.143C221.511,361.685 221.317,360.164 220.93,359.577C220.542,358.991 219.526,358.698 217.881,358.698L217.881,379.4L205.942,379.4L205.942,333.487ZM217.881,341.343L217.881,351.552C219.223,351.552 220.164,351.368 220.703,350.999C221.242,350.63 221.511,349.434 221.511,347.411L221.511,344.888C221.511,343.432 221.251,342.477 220.731,342.023C220.211,341.57 219.261,341.343 217.881,341.343Z" style="fill:none;fill-rule:nonzero;stroke:rgb(255,252,252);stroke-width:0.98px;"/>
        <path d="M257.86,333.487L264.687,379.4L252.486,379.4L251.845,371.148L247.575,371.148L246.857,379.4L234.514,379.4L240.604,333.487L257.86,333.487ZM251.532,363.009C250.928,357.809 250.322,351.381 249.714,343.725C248.498,352.516 247.734,358.944 247.423,363.009L251.532,363.009Z" style="fill:none;fill-rule:nonzero;stroke:rgb(255,252,252);stroke-width:0.98px;"/>
        <path d="M304.829,353.48L292.89,353.48L292.89,345.5C292.89,343.18 292.763,341.732 292.507,341.157C292.252,340.581 291.69,340.293 290.82,340.293C289.837,340.293 289.213,340.643 288.948,341.343C288.684,342.042 288.551,343.555 288.551,345.88L288.551,367.206C288.551,369.437 288.684,370.893 288.948,371.573C289.213,372.254 289.809,372.594 290.735,372.594C291.624,372.594 292.205,372.253 292.479,371.571C292.753,370.889 292.89,369.287 292.89,366.766L292.89,360.995L304.829,360.995L304.829,362.785C304.829,367.537 304.494,370.907 303.823,372.895C303.151,374.883 301.667,376.625 299.37,378.121C297.073,379.617 294.242,380.364 290.877,380.364C287.379,380.364 284.496,379.731 282.227,378.464C279.959,377.198 278.456,375.444 277.718,373.204C276.981,370.964 276.612,367.594 276.612,363.094L276.612,349.68C276.612,346.372 276.726,343.89 276.953,342.236C277.179,340.582 277.855,338.989 278.98,337.458C280.105,335.926 281.665,334.721 283.659,333.842C285.654,332.963 287.946,332.523 290.536,332.523C294.053,332.523 296.955,333.203 299.243,334.562C301.53,335.922 303.033,337.616 303.752,339.646C304.47,341.675 304.829,344.833 304.829,349.119L304.829,353.48Z" style="fill:none;fill-rule:nonzero;stroke:rgb(255,252,252);stroke-width:0.98px;"/>
        <path d="M345.95,333.487L345.95,379.4L335.514,379.4L335.499,348.404L331.345,379.4L323.943,379.4L319.562,349.113L319.548,379.4L309.112,379.4L309.112,333.487L324.56,333.487C325.018,336.248 325.491,339.501 325.977,343.248L327.672,354.927L330.416,333.487L345.95,333.487Z" style="fill:none;fill-rule:nonzero;stroke:rgb(255,252,252);stroke-width:0.98px;"/>
        <path d="M376.038,347.383L364.95,347.383L364.95,343.98C364.95,342.392 364.808,341.381 364.525,340.946C364.241,340.511 363.768,340.293 363.107,340.293C362.388,340.293 361.845,340.587 361.476,341.173C361.107,341.76 360.923,342.649 360.923,343.841C360.923,345.373 361.13,346.527 361.545,347.303C361.941,348.079 363.065,349.014 364.919,350.11C370.233,353.264 373.581,355.853 374.961,357.876C376.341,359.899 377.031,363.16 377.031,367.66C377.031,370.93 376.648,373.341 375.882,374.891C375.117,376.441 373.637,377.741 371.444,378.791C369.251,379.84 366.699,380.364 363.787,380.364C360.592,380.364 357.865,379.759 355.606,378.549C353.347,377.34 351.867,375.799 351.168,373.927C350.468,372.055 350.118,369.399 350.118,365.958L350.118,362.952L361.207,362.952L361.207,368.539C361.207,370.259 361.363,371.365 361.675,371.857C361.987,372.348 362.54,372.594 363.334,372.594C364.128,372.594 364.718,372.282 365.106,371.658C365.494,371.034 365.687,370.108 365.687,368.879C365.687,366.176 365.319,364.408 364.581,363.576C363.825,362.744 361.963,361.355 358.995,359.407C356.026,357.441 354.06,356.014 353.096,355.125C352.132,354.237 351.333,353.008 350.7,351.438C350.066,349.869 349.75,347.865 349.75,345.426C349.75,341.91 350.199,339.339 351.097,337.713C351.995,336.087 353.446,334.815 355.45,333.899C357.454,332.982 359.874,332.523 362.71,332.523C365.81,332.523 368.452,333.024 370.636,334.026C372.82,335.028 374.266,336.29 374.975,337.812C375.684,339.334 376.038,341.919 376.038,345.568L376.038,347.383Z" style="fill:none;fill-rule:nonzero;stroke:rgb(255,252,252);stroke-width:0.98px;"/>
    </g>
    <g transform="matrix(0.618408,0,0,0.618408,-37.351,-106.855)">
        <path d="M159.065,333.487L153.749,379.4L138.843,379.4C137.478,372.346 136.274,364.321 135.229,355.324C134.753,359.181 133.643,367.207 131.899,379.4L117.078,379.4L111.734,333.487L123.333,333.487L124.594,349.507L125.814,364.994C126.255,356.979 127.355,346.477 129.115,333.487L141.513,333.487C141.678,334.83 142.112,339.878 142.815,348.631L144.134,366.1C144.813,354.986 145.924,344.115 147.466,333.487L159.065,333.487Z" style="fill:none;fill-rule:nonzero;stroke:rgb(255,252,252);stroke-width:1.62px;"/>
        <path d="M161.419,333.487L181.327,333.487L181.327,342.676L173.358,342.676L173.358,351.382L180.816,351.382L180.816,360.116L173.358,360.116L173.358,370.212L182.121,370.212L182.121,379.4L161.419,379.4L161.419,333.487Z" style="fill:none;fill-rule:nonzero;stroke:rgb(255,252,252);stroke-width:1.62px;"/>
        <path d="M185.552,333.487L197.463,333.487C201.225,333.487 204.075,333.78 206.013,334.366C207.951,334.951 209.515,336.137 210.706,337.922C211.897,339.708 212.493,342.584 212.493,346.552C212.493,349.235 212.072,351.105 211.231,352.163C210.39,353.221 208.731,354.034 206.254,354.6C209.014,355.225 210.886,356.26 211.869,357.708C212.852,359.155 213.344,361.373 213.344,364.362L213.344,368.618C213.344,371.72 212.989,374.018 212.28,375.513C211.571,377.007 210.442,378.029 208.891,378.577C207.341,379.126 204.165,379.4 199.363,379.4L185.552,379.4L185.552,333.487ZM197.491,341.343L197.491,351.552C198.002,351.533 198.399,351.524 198.682,351.524C199.854,351.524 200.601,351.235 200.923,350.659C201.244,350.082 201.405,348.432 201.405,345.71C201.405,344.273 201.272,343.266 201.008,342.69C200.743,342.113 200.398,341.749 199.973,341.598C199.547,341.447 198.72,341.362 197.491,341.343ZM197.491,358.698L197.491,371.545C199.174,371.488 200.247,371.223 200.71,370.751C201.173,370.278 201.405,369.115 201.405,367.263L201.405,362.98C201.405,361.014 201.197,359.823 200.781,359.407C200.365,358.991 199.268,358.755 197.491,358.698Z" style="fill:none;fill-rule:nonzero;stroke:rgb(255,252,252);stroke-width:1.62px;"/>
        <path d="M251.912,333.487L251.912,342.676L244.822,342.676L244.822,379.4L232.883,379.4L232.883,342.676L225.822,342.676L225.822,333.487L251.912,333.487Z" style="fill:none;fill-rule:nonzero;stroke:rgb(255,252,252);stroke-width:1.62px;"/>
        <path d="M254.634,333.487L263.085,333.487C268.719,333.487 272.533,333.705 274.528,334.14C276.522,334.574 278.148,335.685 279.406,337.472C280.663,339.258 281.292,342.108 281.292,346.022C281.292,349.595 280.847,351.996 279.959,353.225C279.07,354.454 277.321,355.191 274.712,355.437C277.075,356.023 278.664,356.808 279.477,357.791C280.289,358.774 280.795,359.677 280.994,360.499C281.192,361.322 281.292,363.585 281.292,367.291L281.292,379.4L270.203,379.4L270.203,364.143C270.203,361.685 270.009,360.164 269.622,359.577C269.234,358.991 268.218,358.698 266.573,358.698L266.573,379.4L254.634,379.4L254.634,333.487ZM266.573,341.343L266.573,351.552C267.916,351.552 268.856,351.368 269.395,350.999C269.934,350.63 270.203,349.434 270.203,347.411L270.203,344.888C270.203,343.432 269.943,342.477 269.423,342.023C268.903,341.57 267.953,341.343 266.573,341.343Z" style="fill:none;fill-rule:nonzero;stroke:rgb(255,252,252);stroke-width:1.62px;"/>
        <path d="M313.309,350.389L301.37,350.389L301.37,346.22C301.37,343.593 301.256,341.948 301.029,341.286C300.802,340.624 300.264,340.293 299.413,340.293C298.675,340.293 298.174,340.577 297.91,341.144C297.645,341.711 297.513,343.167 297.513,345.511L297.513,367.546C297.513,369.607 297.645,370.964 297.91,371.616C298.174,372.268 298.704,372.594 299.498,372.594C300.368,372.594 300.958,372.225 301.27,371.488C301.582,370.751 301.738,369.314 301.738,367.178L301.738,361.733L299.328,361.733L299.328,354.756L313.309,354.756L313.309,379.4L305.806,379.4L304.702,376.111C303.888,377.529 302.862,378.592 301.623,379.301C300.383,380.01 298.922,380.364 297.238,380.364C295.232,380.364 293.354,379.878 291.604,378.904C289.854,377.93 288.525,376.725 287.617,375.288C286.709,373.851 286.141,372.344 285.914,370.765C285.687,369.186 285.574,366.818 285.574,363.661L285.574,350.021C285.574,345.634 285.81,342.449 286.283,340.464C286.755,338.478 288.112,336.659 290.352,335.005C292.593,333.35 295.49,332.523 299.044,332.523C302.542,332.523 305.444,333.242 307.75,334.678C310.057,336.115 311.56,337.821 312.259,339.797C312.959,341.773 313.309,344.642 313.309,348.404L313.309,350.389Z" style="fill:none;fill-rule:nonzero;stroke:rgb(255,252,252);stroke-width:1.62px;"/>
        <path d="M345.212,360.371C345.212,364.985 345.104,368.251 344.886,370.169C344.669,372.088 343.988,373.842 342.844,375.43C341.701,377.018 340.155,378.238 338.208,379.088C336.26,379.939 333.992,380.364 331.402,380.364C328.944,380.364 326.737,379.963 324.78,379.159C322.823,378.356 321.249,377.15 320.058,375.543C318.867,373.936 318.158,372.188 317.931,370.297C317.704,368.406 317.591,365.098 317.591,360.371L317.591,352.516C317.591,347.903 317.7,344.637 317.917,342.718C318.134,340.799 318.815,339.046 319.959,337.458C321.103,335.869 322.648,334.65 324.595,333.799C326.543,332.948 328.811,332.523 331.402,332.523C333.859,332.523 336.067,332.925 338.023,333.728C339.98,334.532 341.554,335.737 342.745,337.344C343.936,338.951 344.645,340.7 344.872,342.59C345.099,344.481 345.212,347.79 345.212,352.516L345.212,360.371ZM333.273,345.285C333.273,343.148 333.155,341.782 332.919,341.187C332.682,340.591 332.196,340.293 331.458,340.293C330.834,340.293 330.357,340.534 330.026,341.017C329.695,341.499 329.53,342.921 329.53,345.285L329.53,366.724C329.53,369.39 329.639,371.034 329.856,371.658C330.073,372.282 330.579,372.594 331.373,372.594C332.186,372.594 332.706,372.235 332.933,371.517C333.16,370.798 333.273,369.087 333.273,366.384L333.273,345.285Z" style="fill:none;fill-rule:nonzero;stroke:rgb(255,252,252);stroke-width:1.62px;"/>
        <path d="M378.052,333.487L371.976,379.4L353.841,379.4L346.942,333.487L359.534,333.487C360.997,346.134 362.042,356.835 362.667,365.59C363.284,356.742 363.939,348.887 364.631,342.025L365.461,333.487L378.052,333.487Z" style="fill:none;fill-rule:nonzero;stroke:rgb(255,252,252);stroke-width:1.62px;"/>
        <rect x="380.065" y="333.487" width="11.939" height="45.913" style="fill:none;fill-rule:nonzero;stroke:rgb(255,252,252);stroke-width:1.62px;"/>
        <path d="M423.454,333.487L423.454,379.4L412.99,379.4L406.779,358.528L406.779,379.4L396.797,379.4L396.797,333.487L406.779,333.487L413.472,354.161L413.472,333.487L423.454,333.487Z" style="fill:none;fill-rule:nonzero;stroke:rgb(255,252,252);stroke-width:1.62px;"/>
        <path d="M428.247,333.487L448.155,333.487L448.155,342.676L440.186,342.676L440.186,351.382L447.644,351.382L447.644,360.116L440.186,360.116L440.186,370.212L448.949,370.212L448.949,379.4L428.247,379.4L428.247,333.487Z" style="fill:none;fill-rule:nonzero;stroke:rgb(255,252,252);stroke-width:1.62px;"/>
        <path d="M482.848,332.608L469.267,380.279L460.59,380.279L474.259,332.608L482.848,332.608Z" style="fill:none;fill-rule:nonzero;stroke:rgb(255,252,252);stroke-width:1.62px;"/>
        <path d="M523.107,360.371C523.107,364.985 522.999,368.251 522.781,370.169C522.564,372.088 521.883,373.842 520.739,375.43C519.596,377.018 518.05,378.238 516.103,379.088C514.155,379.939 511.887,380.364 509.297,380.364C506.839,380.364 504.632,379.963 502.675,379.159C500.718,378.356 499.144,377.15 497.953,375.543C496.762,373.936 496.053,372.188 495.826,370.297C495.599,368.406 495.486,365.098 495.486,360.371L495.486,352.516C495.486,347.903 495.595,344.637 495.812,342.718C496.029,340.799 496.71,339.046 497.854,337.458C498.998,335.869 500.543,334.65 502.49,333.799C504.438,332.948 506.706,332.523 509.297,332.523C511.754,332.523 513.962,332.925 515.918,333.728C517.875,334.532 519.449,335.737 520.64,337.344C521.831,338.951 522.54,340.7 522.767,342.59C522.994,344.481 523.107,347.79 523.107,352.516L523.107,360.371ZM511.168,345.285C511.168,343.148 511.05,341.782 510.814,341.187C510.577,340.591 510.091,340.293 509.353,340.293C508.729,340.293 508.252,340.534 507.921,341.017C507.59,341.499 507.425,342.921 507.425,345.285L507.425,366.724C507.425,369.39 507.534,371.034 507.751,371.658C507.968,372.282 508.474,372.594 509.268,372.594C510.081,372.594 510.601,372.235 510.828,371.517C511.055,370.798 511.168,369.087 511.168,366.384L511.168,345.285Z" style="fill:none;fill-rule:nonzero;stroke:rgb(255,252,252);stroke-width:1.62px;"/>
        <path d="M527.56,333.487L536.493,333.487C542.259,333.487 546.158,333.752 548.191,334.281C550.223,334.811 551.769,335.68 552.827,336.89C553.886,338.1 554.548,339.447 554.812,340.931C555.077,342.416 555.21,345.332 555.21,349.68L555.21,365.76C555.21,369.881 555.016,372.637 554.628,374.026C554.241,375.416 553.565,376.503 552.6,377.288C551.636,378.072 550.445,378.62 549.027,378.932C547.609,379.244 545.473,379.4 542.618,379.4L527.56,379.4L527.56,333.487ZM539.499,341.343L539.499,371.545C541.219,371.545 542.278,371.2 542.675,370.51C543.072,369.82 543.27,367.943 543.27,364.881L543.27,347.043C543.27,344.963 543.204,343.63 543.072,343.044C542.94,342.458 542.637,342.028 542.164,341.754C541.692,341.48 540.803,341.343 539.499,341.343Z" style="fill:none;fill-rule:nonzero;stroke:rgb(255,252,252);stroke-width:1.62px;"/>
        <path d="M559.662,333.487L568.113,333.487C573.747,333.487 577.561,333.705 579.556,334.14C581.55,334.574 583.176,335.685 584.433,337.472C585.691,339.258 586.319,342.108 586.319,346.022C586.319,349.595 585.875,351.996 584.986,353.225C584.098,354.454 582.349,355.191 579.74,355.437C582.103,356.023 583.691,356.808 584.504,357.791C585.317,358.774 585.823,359.677 586.021,360.499C586.22,361.322 586.319,363.585 586.319,367.291L586.319,379.4L575.231,379.4L575.231,364.143C575.231,361.685 575.037,360.164 574.649,359.577C574.262,358.991 573.246,358.698 571.601,358.698L571.601,379.4L559.662,379.4L559.662,333.487ZM571.601,341.343L571.601,351.552C572.943,351.552 573.884,351.368 574.423,350.999C574.961,350.63 575.231,349.434 575.231,347.411L575.231,344.888C575.231,343.432 574.971,342.477 574.451,342.023C573.931,341.57 572.981,341.343 571.601,341.343Z" style="fill:none;fill-rule:nonzero;stroke:rgb(255,252,252);stroke-width:1.62px;"/>
        <path d="M610.906,333.487L610.906,342.676L602.015,370.212L610.906,370.212L610.906,379.4L588.9,379.4L588.9,372.736L598.088,342.676L589.977,342.676L589.977,333.487L610.906,333.487ZM600.343,327.759L603.505,324.044L611.19,324.044L604.355,332.041L596.33,332.041L589.042,324.044L596.982,324.044L600.343,327.759Z" style="fill:none;fill-rule:nonzero;stroke:rgb(255,252,252);stroke-width:1.62px;"/>
        <path d="M634.636,333.487L641.463,379.4L629.262,379.4L628.621,371.148L624.35,371.148L623.632,379.4L611.289,379.4L617.379,333.487L634.636,333.487ZM628.308,363.009C627.704,357.809 627.098,351.381 626.489,343.725C625.273,352.516 624.509,358.944 624.198,363.009L628.308,363.009Z" style="fill:none;fill-rule:nonzero;stroke:rgb(255,252,252);stroke-width:1.62px;"/>
        <path d="M670.602,333.487L664.526,379.4L646.39,379.4L639.492,333.487L652.083,333.487C653.547,346.134 654.591,356.835 655.217,365.59C655.834,356.742 656.489,348.887 657.181,342.025L658.01,333.487L670.602,333.487Z" style="fill:none;fill-rule:nonzero;stroke:rgb(255,252,252);stroke-width:1.62px;"/>
        <path d="M692.488,333.487L699.315,379.4L687.114,379.4L686.473,371.148L682.202,371.148L681.484,379.4L669.141,379.4L675.231,333.487L692.488,333.487ZM686.16,363.009C685.556,357.809 684.95,351.381 684.341,343.725C683.125,352.516 682.362,358.944 682.05,363.009L686.16,363.009Z" style="fill:none;fill-rule:nonzero;stroke:rgb(255,252,252);stroke-width:1.62px;"/>
        <path d="M728,333.487L728,379.4L717.535,379.4L711.325,358.528L711.325,379.4L701.343,379.4L701.343,333.487L711.325,333.487L718.018,354.161L718.018,333.487L728,333.487Z" style="fill:none;fill-rule:nonzero;stroke:rgb(255,252,252);stroke-width:1.62px;"/>
        <path d="M747.397,333.487L747.397,364.172C747.397,368.766 747.35,371.72 747.255,373.034C747.16,374.348 746.729,375.534 745.96,376.593C745.191,377.651 744.15,378.384 742.837,378.791C741.524,379.197 739.545,379.4 736.901,379.4L730.921,379.4L730.921,371.375C731.639,371.431 732.159,371.46 732.481,371.46C733.331,371.46 734.003,371.252 734.494,370.836C734.986,370.42 735.269,369.91 735.345,369.305C735.42,368.7 735.458,367.527 735.458,365.788L735.458,333.487L747.397,333.487Z" style="fill:none;fill-rule:nonzero;stroke:rgb(255,252,252);stroke-width:1.62px;"/>
        <path d="M752.02,333.487L771.928,333.487L771.928,342.676L763.959,342.676L763.959,351.382L771.417,351.382L771.417,360.116L763.959,360.116L763.959,370.212L772.722,370.212L772.722,379.4L752.02,379.4L752.02,333.487Z" style="fill:none;fill-rule:nonzero;stroke:rgb(255,252,252);stroke-width:1.62px;"/>
        <path d="M806.621,332.608L793.04,380.279L784.363,380.279L798.032,332.608L806.621,332.608Z" style="fill:none;fill-rule:nonzero;stroke:rgb(255,252,252);stroke-width:1.62px;"/>
        <path d="M819.599,333.487L828.05,333.487C833.684,333.487 837.498,333.705 839.493,334.14C841.487,334.574 843.113,335.685 844.37,337.472C845.628,339.258 846.256,342.108 846.256,346.022C846.256,349.595 845.812,351.996 844.923,353.225C844.035,354.454 842.286,355.191 839.677,355.437C842.04,356.023 843.628,356.808 844.441,357.791C845.254,358.774 845.76,359.677 845.958,360.499C846.157,361.322 846.256,363.585 846.256,367.291L846.256,379.4L835.168,379.4L835.168,364.143C835.168,361.685 834.974,360.164 834.587,359.577C834.199,358.991 833.183,358.698 831.538,358.698L831.538,379.4L819.599,379.4L819.599,333.487ZM831.538,341.343L831.538,351.552C832.88,351.552 833.821,351.368 834.36,350.999C834.899,350.63 835.168,349.434 835.168,347.411L835.168,344.888C835.168,343.432 834.908,342.477 834.388,342.023C833.868,341.57 832.918,341.343 831.538,341.343Z" style="fill:none;fill-rule:nonzero;stroke:rgb(255,252,252);stroke-width:1.62px;"/>
        <path d="M871.517,333.487L878.344,379.4L866.143,379.4L865.502,371.148L861.231,371.148L860.514,379.4L848.17,379.4L854.261,333.487L871.517,333.487ZM865.189,363.009C864.585,357.809 863.979,351.381 863.371,343.725C862.155,352.516 861.391,358.944 861.079,363.009L865.189,363.009Z" style="fill:none;fill-rule:nonzero;stroke:rgb(255,252,252);stroke-width:1.62px;"/>
        <path d="M901.783,333.487L901.783,342.676L892.891,370.212L901.783,370.212L901.783,379.4L879.776,379.4L879.776,372.736L888.965,342.676L880.854,342.676L880.854,333.487L901.783,333.487Z" style="fill:none;fill-rule:nonzero;stroke:rgb(255,252,252);stroke-width:1.62px;"/>
        <path d="M933.261,333.487L927.185,379.4L909.05,379.4L902.152,333.487L914.743,333.487C916.206,346.134 917.251,356.835 917.876,365.59C918.493,356.742 919.148,348.887 919.841,342.025L920.67,333.487L933.261,333.487Z" style="fill:none;fill-rule:nonzero;stroke:rgb(255,252,252);stroke-width:1.62px;"/>
        <path d="M962.556,360.371C962.556,364.985 962.447,368.251 962.23,370.169C962.012,372.088 961.332,373.842 960.188,375.43C959.044,377.018 957.499,378.238 955.551,379.088C953.604,379.939 951.335,380.364 948.745,380.364C946.287,380.364 944.08,379.963 942.123,379.159C940.167,378.356 938.593,377.15 937.402,375.543C936.21,373.936 935.501,372.188 935.275,370.297C935.048,368.406 934.934,365.098 934.934,360.371L934.934,352.516C934.934,347.903 935.043,344.637 935.26,342.718C935.478,340.799 936.158,339.046 937.302,337.458C938.446,335.869 939.992,334.65 941.939,333.799C943.886,332.948 946.155,332.523 948.745,332.523C951.203,332.523 953.41,332.925 955.367,333.728C957.324,334.532 958.898,335.737 960.089,337.344C961.28,338.951 961.989,340.7 962.216,342.59C962.442,344.481 962.556,347.79 962.556,352.516L962.556,360.371ZM950.617,345.285C950.617,343.148 950.499,341.782 950.262,341.187C950.026,340.591 949.539,340.293 948.802,340.293C948.178,340.293 947.701,340.534 947.37,341.017C947.039,341.499 946.873,342.921 946.873,345.285L946.873,366.724C946.873,369.39 946.982,371.034 947.2,371.658C947.417,372.282 947.923,372.594 948.717,372.594C949.53,372.594 950.05,372.235 950.276,371.517C950.503,370.798 950.617,369.087 950.617,366.384L950.617,345.285Z" style="fill:none;fill-rule:nonzero;stroke:rgb(255,252,252);stroke-width:1.62px;"/>
        <path d="M981.613,333.487L981.613,364.172C981.613,368.766 981.566,371.72 981.471,373.034C981.376,374.348 980.944,375.534 980.176,376.593C979.407,377.651 978.366,378.384 977.053,378.791C975.74,379.197 973.761,379.4 971.116,379.4L965.136,379.4L965.136,371.375C965.855,371.431 966.375,371.46 966.696,371.46C967.547,371.46 968.218,371.252 968.71,370.836C969.201,370.42 969.485,369.91 969.56,369.305C969.636,368.7 969.674,367.527 969.674,365.788L969.674,333.487L981.613,333.487Z" style="fill:none;fill-rule:nonzero;stroke:rgb(255,252,252);stroke-width:1.62px;"/>
        <path d="M1021.77,347.383L1010.68,347.383L1010.68,343.98C1010.68,342.392 1010.54,341.381 1010.25,340.946C1009.97,340.511 1009.5,340.293 1008.84,340.293C1008.12,340.293 1007.58,340.587 1007.21,341.173C1006.84,341.76 1006.65,342.649 1006.65,343.841C1006.65,345.373 1006.86,346.527 1007.27,347.303C1007.67,348.079 1008.8,349.014 1010.65,350.11C1015.96,353.264 1019.31,355.853 1020.69,357.876C1022.07,359.899 1022.76,363.16 1022.76,367.66C1022.76,370.93 1022.38,373.341 1021.61,374.891C1020.85,376.441 1019.37,377.741 1017.18,378.791C1014.98,379.84 1012.43,380.364 1009.52,380.364C1006.32,380.364 1003.6,379.759 1001.34,378.549C999.077,377.34 997.598,375.799 996.898,373.927C996.199,372.055 995.849,369.399 995.849,365.958L995.849,362.952L1006.94,362.952L1006.94,368.539C1006.94,370.259 1007.09,371.365 1007.4,371.857C1007.72,372.348 1008.27,372.594 1009.06,372.594C1009.86,372.594 1010.45,372.282 1010.84,371.658C1011.22,371.034 1011.42,370.108 1011.42,368.879C1011.42,366.176 1011.05,364.408 1010.31,363.576C1009.56,362.744 1007.69,361.355 1004.73,359.407C1001.76,357.441 999.791,356.014 998.827,355.125C997.863,354.237 997.064,353.008 996.43,351.438C995.797,349.869 995.48,347.865 995.48,345.426C995.48,341.91 995.929,339.339 996.827,337.713C997.726,336.087 999.177,334.815 1001.18,333.899C1003.19,332.982 1005.61,332.523 1008.44,332.523C1011.54,332.523 1014.18,333.024 1016.37,334.026C1018.55,335.028 1020,336.29 1020.71,337.812C1021.42,339.334 1021.77,341.919 1021.77,345.568L1021.77,347.383Z" style="fill:none;fill-rule:nonzero;stroke:rgb(255,252,252);stroke-width:1.62px;"/>
        <path d="M1050.55,333.487L1050.55,342.676L1043.46,342.676L1043.46,379.4L1031.53,379.4L1031.53,342.676L1024.46,342.676L1024.46,333.487L1050.55,333.487Z" style="fill:none;fill-rule:nonzero;stroke:rgb(255,252,252);stroke-width:1.62px;"/>
        <path d="M1053.28,333.487L1061.73,333.487C1067.36,333.487 1071.17,333.705 1073.17,334.14C1075.16,334.574 1076.79,335.685 1078.05,337.472C1079.3,339.258 1079.93,342.108 1079.93,346.022C1079.93,349.595 1079.49,351.996 1078.6,353.225C1077.71,354.454 1075.96,355.191 1073.35,355.437C1075.72,356.023 1077.31,356.808 1078.12,357.791C1078.93,358.774 1079.44,359.677 1079.63,360.499C1079.83,361.322 1079.93,363.585 1079.93,367.291L1079.93,379.4L1068.85,379.4L1068.85,364.143C1068.85,361.685 1068.65,360.164 1068.26,359.577C1067.88,358.991 1066.86,358.698 1065.21,358.698L1065.21,379.4L1053.28,379.4L1053.28,333.487ZM1065.21,341.343L1065.21,351.552C1066.56,351.552 1067.5,351.368 1068.04,350.999C1068.58,350.63 1068.85,349.434 1068.85,347.411L1068.85,344.888C1068.85,343.432 1068.59,342.477 1068.07,342.023C1067.55,341.57 1066.6,341.343 1065.21,341.343Z" style="fill:none;fill-rule:nonzero;stroke:rgb(255,252,252);stroke-width:1.62px;"/>
        <path d="M1105.19,333.487L1112.02,379.4L1099.82,379.4L1099.18,371.148L1094.91,371.148L1094.19,379.4L1081.85,379.4L1087.94,333.487L1105.19,333.487ZM1098.87,363.009C1098.26,357.809 1097.66,351.381 1097.05,343.725C1095.83,352.516 1095.07,358.944 1094.76,363.009L1098.87,363.009Z" style="fill:none;fill-rule:nonzero;stroke:rgb(255,252,252);stroke-width:1.62px;"/>
        <path d="M1140.71,333.487L1140.71,379.4L1130.24,379.4L1124.03,358.528L1124.03,379.4L1114.05,379.4L1114.05,333.487L1124.03,333.487L1130.72,354.161L1130.72,333.487L1140.71,333.487Z" style="fill:none;fill-rule:nonzero;stroke:rgb(255,252,252);stroke-width:1.62px;"/>
        <rect x="1145.5" y="333.487" width="11.939" height="45.913" style="fill:none;fill-rule:nonzero;stroke:rgb(255,252,252);stroke-width:1.62px;"/>
        <path d="M1190.11,353.48L1178.17,353.48L1178.17,345.5C1178.17,343.18 1178.04,341.732 1177.79,341.157C1177.53,340.581 1176.97,340.293 1176.1,340.293C1175.12,340.293 1174.49,340.643 1174.23,341.343C1173.96,342.042 1173.83,343.555 1173.83,345.88L1173.83,367.206C1173.83,369.437 1173.96,370.893 1174.23,371.573C1174.49,372.254 1175.09,372.594 1176.01,372.594C1176.9,372.594 1177.48,372.253 1177.76,371.571C1178.03,370.889 1178.17,369.287 1178.17,366.766L1178.17,360.995L1190.11,360.995L1190.11,362.785C1190.11,367.537 1189.77,370.907 1189.1,372.895C1188.43,374.883 1186.94,376.625 1184.65,378.121C1182.35,379.617 1179.52,380.364 1176.15,380.364C1172.66,380.364 1169.77,379.731 1167.51,378.464C1165.24,377.198 1163.73,375.444 1163,373.204C1162.26,370.964 1161.89,367.594 1161.89,363.094L1161.89,349.68C1161.89,346.372 1162,343.89 1162.23,342.236C1162.46,340.582 1163.13,338.989 1164.26,337.458C1165.38,335.926 1166.94,334.721 1168.94,333.842C1170.93,332.963 1173.22,332.523 1175.81,332.523C1179.33,332.523 1182.23,333.203 1184.52,334.562C1186.81,335.922 1188.31,337.616 1189.03,339.646C1189.75,341.675 1190.11,344.833 1190.11,349.119L1190.11,353.48Z" style="fill:none;fill-rule:nonzero;stroke:rgb(255,252,252);stroke-width:1.62px;"/>
        <path d="M1215.03,333.487L1221.86,379.4L1209.65,379.4L1209.01,371.148L1204.74,371.148L1204.02,379.4L1191.68,379.4L1197.77,333.487L1215.03,333.487ZM1208.7,363.009C1208.1,357.809 1207.49,351.381 1206.88,343.725C1205.66,352.516 1204.9,358.944 1204.59,363.009L1208.7,363.009Z" style="fill:none;fill-rule:nonzero;stroke:rgb(255,252,252);stroke-width:1.62px;"/>
    </g>
</svg>
