<svg width="32" height="32" xmlns="http://www.w3.org/2000/svg">

 <g>
  <title>background</title>
  <rect fill="none" id="canvas_background" height="402" width="582" y="-1" x="-1"/>
 </g>
 <g>
  <title>Layer 1</title>
  <circle id="svg_4" r="0.5" fill="#263238" cy="4.5" cx="7.5"/>
  <circle id="svg_5" r="0.5" fill="#263238" cy="4.5" cx="5.5"/>
  <circle id="svg_6" r="0.5" fill="#263238" cy="4.5" cx="3.5"/>
  <path id="svg_7" fill="#263238" d="m30.5,7l-29,0c-0.276,0 -0.5,-0.224 -0.5,-0.5s0.224,-0.5 0.5,-0.5l29,0c0.276,0 0.5,0.224 0.5,0.5s-0.224,0.5 -0.5,0.5z"/>
  <path id="svg_8" fill="#263238" d="m1.5,22c-0.276,0 -0.5,-0.224 -0.5,-0.5l0,-18c0,-0.827 0.673,-1.5 1.5,-1.5l27,0c0.827,0 1.5,0.673 1.5,1.5l0,9c0,0.276 -0.224,0.5 -0.5,0.5s-0.5,-0.224 -0.5,-0.5l0,-9c0,-0.275 -0.224,-0.5 -0.5,-0.5l-27,0c-0.276,0 -0.5,0.225 -0.5,0.5l0,18c0,0.276 -0.224,0.5 -0.5,0.5z"/>
  <path id="svg_9" fill="#263238" d="m22,31l-11.5,0c-0.276,0 -0.5,-0.224 -0.5,-0.5s0.224,-0.5 0.5,-0.5l1,0c0.827,0 1.5,-0.673 1.5,-1.5l0,-1c0,-0.276 0.224,-0.5 0.5,-0.5s0.5,0.224 0.5,0.5l0,1c0,0.563 -0.187,1.082 -0.501,1.5l5.002,0c-0.314,-0.418 -0.501,-0.937 -0.501,-1.5l0,-3c0,-0.276 0.224,-0.5 0.5,-0.5s0.5,0.224 0.5,0.5l0,3c0,0.827 0.673,1.5 1.5,1.5l1.5,0c0.276,0 0.5,0.224 0.5,0.5s-0.224,0.5 -0.5,0.5z"/>
  <path id="svg_10" fill="#263238" d="m18.5,26l-16,0c-0.827,0 -1.5,-0.673 -1.5,-1.5l0,-3c0,-0.276 0.224,-0.5 0.5,-0.5l14,0c0.276,0 0.5,0.224 0.5,0.5s-0.224,0.5 -0.5,0.5l-13.5,0l0,2.5c0,0.275 0.224,0.5 0.5,0.5l16,0c0.276,0 0.5,0.224 0.5,0.5s-0.224,0.5 -0.5,0.5z"/>
  <path id="svg_13" fill="#263238" d="m18.5,14l-1,0c-0.276,0 -0.5,-0.224 -0.5,-0.5s0.224,-0.5 0.5,-0.5l1,0c0.276,0 0.5,0.224 0.5,0.5s-0.224,0.5 -0.5,0.5z"/>
  <path id="svg_15" fill="#263238" d="m27.5,10l-10,0c-0.276,0 -0.5,-0.224 -0.5,-0.5s0.224,-0.5 0.5,-0.5l10,0c0.276,0 0.5,0.224 0.5,0.5s-0.224,0.5 -0.5,0.5z"/>
  <path id="svg_17" fill="#263238" d="m27.5,12l-10,0c-0.276,0 -0.5,-0.224 -0.5,-0.5s0.224,-0.5 0.5,-0.5l10,0c0.276,0 0.5,0.224 0.5,0.5s-0.224,0.5 -0.5,0.5z"/>
  <path id="svg_20" fill="#263238" d="m7.5,14l-3,0c-0.276,0 -0.5,-0.224 -0.5,-0.5s0.224,-0.5 0.5,-0.5l3,0c0.276,0 0.5,0.224 0.5,0.5s-0.224,0.5 -0.5,0.5z"/>
  <path id="svg_22" fill="#263238" d="m14.5,10l-10,0c-0.276,0 -0.5,-0.224 -0.5,-0.5s0.224,-0.5 0.5,-0.5l10,0c0.276,0 0.5,0.224 0.5,0.5s-0.224,0.5 -0.5,0.5z"/>
  <path id="svg_24" fill="#263238" d="m14.5,12l-10,0c-0.276,0 -0.5,-0.224 -0.5,-0.5s0.224,-0.5 0.5,-0.5l10,0c0.276,0 0.5,0.224 0.5,0.5s-0.224,0.5 -0.5,0.5z"/>
  <path id="svg_29" fill="#263238" d="m24.061538,27c-3.86,0 -7,-3.141 -7,-7s3.14,-7 7,-7c1.352,0 2.663,0.386 3.792,1.115c0.232,0.15 0.298,0.459 0.148,0.691c-0.15,0.23 -0.458,0.3 -0.691,0.148c-0.966,-0.624 -2.09,-0.954 -3.249,-0.954c-3.309,0 -6,2.691 -6,6s2.691,6 6,6s6,-2.691 6,-6c0,-0.642 -0.101,-1.273 -0.299,-1.877c-0.086,-0.263 0.057,-0.545 0.319,-0.631c0.262,-0.088 0.545,0.057 0.631,0.318c0.231,0.706 0.349,1.442 0.349,2.19c0,3.859 -3.14,7 -7,7z"/>
  <path id="svg_33" fill="#2bbd7e" d="m23.561538,22.760538c-0.004,0 -0.008,0 -0.012,0c-0.145,-0.004 -0.28,-0.069 -0.373,-0.18l-2.5,-3c-0.176,-0.213 -0.147,-0.528 0.064,-0.705c0.213,-0.176 0.527,-0.147 0.705,0.064l2.133,2.561l6.215,-6.865c0.188,-0.204 0.504,-0.216 0.706,-0.031c0.203,0.187 0.217,0.503 0.03,0.707l-6.6,7.287c-0.095,0.104 -0.227,0.162 -0.368,0.162z"/>
 </g>
</svg>