<svg width="56.693" height="56.693" xmlns="http://www.w3.org/2000/svg">

 <g>
  <title>background</title>
  <rect fill="none" id="canvas_background" height="402" width="582" y="-1" x="-1"/>
 </g>
 <g>
  <title>Layer 1</title>
  <path fill="#cccccc" id="svg_2" d="m43.911,28.21l-31.129,0c-4.948,0 -8.959,4.015 -8.959,8.962l0,7.201c0,4.947 4.011,8.961 8.959,8.961l31.129,0c4.947,0 8.959,-4.014 8.959,-8.961l0,-7.201c0,-4.947 -4.012,-8.962 -8.959,-8.962zm-24.589,5.606l-2.894,0l0,14.38l-2.796,0l0,-14.38l-2.892,0l0,-2.446l8.582,0l0,2.446zm8.175,14.38l-2.48,0l0,-1.36c-0.461,0.503 -0.936,0.887 -1.432,1.146c-0.496,0.27 -0.975,0.396 -1.441,0.396c-0.576,0 -1.004,-0.183 -1.297,-0.555c-0.288,-0.371 -0.435,-0.921 -0.435,-1.664l0,-10.377l2.48,0l0,9.523c0,0.294 0.055,0.505 0.154,0.636c0.107,0.135 0.277,0.197 0.51,0.197c0.18,0 0.412,-0.086 0.691,-0.26c0.281,-0.176 0.537,-0.396 0.77,-0.668l0,-9.429l2.48,0l0,12.415zm9.004,-2.563c0,0.877 -0.195,1.551 -0.584,2.021c-0.387,0.47 -0.953,0.701 -1.686,0.701c-0.488,0 -0.922,-0.088 -1.299,-0.27c-0.379,-0.18 -0.736,-0.457 -1.061,-0.841l0,0.951l-2.51,0l0,-16.825l2.51,0l0,5.419c0.336,-0.375 0.691,-0.666 1.062,-0.861c0.379,-0.199 0.76,-0.295 1.146,-0.295c0.785,0 1.383,0.262 1.797,0.791c0.416,0.529 0.623,1.304 0.623,2.32l0,6.889l0.002,0zm8.603,-3.345l-4.746,0l0,2.339c0,0.652 0.08,1.106 0.242,1.359c0.166,0.254 0.445,0.378 0.842,0.378c0.412,0 0.697,-0.107 0.863,-0.321c0.16,-0.216 0.246,-0.686 0.246,-1.416l0,-0.565l2.553,0l0,0.637c0,1.272 -0.309,2.231 -0.936,2.878c-0.617,0.641 -1.547,0.959 -2.783,0.959c-1.113,0 -1.99,-0.339 -2.627,-1.021c-0.635,-0.678 -0.959,-1.619 -0.959,-2.815l0,-5.576c0,-1.073 0.354,-1.956 1.057,-2.633c0.701,-0.677 1.604,-1.015 2.715,-1.015c1.137,0 2.01,0.313 2.619,0.941c0.609,0.629 0.914,1.529 0.914,2.706l0,3.165z"/>
  <path fill="#cccccc" id="svg_3" d="m41.466,37.646c-0.396,0 -0.678,0.111 -0.85,0.343c-0.176,0.218 -0.258,0.591 -0.258,1.112l0,1.255l2.193,0l0,-1.255c0,-0.521 -0.088,-0.895 -0.262,-1.112c-0.167,-0.231 -0.446,-0.343 -0.823,-0.343z"/>
  <path fill="#cccccc" id="svg_4" d="m32.909,37.604c-0.176,0 -0.354,0.039 -0.525,0.12c-0.174,0.079 -0.344,0.21 -0.512,0.38l0,7.733c0.199,0.2 0.396,0.354 0.588,0.442c0.191,0.085 0.389,0.133 0.6,0.133c0.305,0 0.527,-0.088 0.67,-0.266c0.141,-0.176 0.213,-0.457 0.213,-0.854l0,-6.411c0,-0.422 -0.084,-0.738 -0.26,-0.955c-0.182,-0.214 -0.44,-0.322 -0.774,-0.322z"/>
  <polygon fill="#cccccc" id="svg_5" points="16.858,23.898 20.002,23.898 20.002,16.208 23.663,5.36 20.467,5.36 18.521,12.77 18.323,12.77 16.28,5.36    13.113,5.36 16.858,16.554  "/>
  <path fill="#cccccc" id="svg_6" d="m27.923,24.243c1.27,0 2.266,-0.333 2.992,-0.999c0.721,-0.669 1.082,-1.582 1.082,-2.752l0,-7.064c0,-1.041 -0.369,-1.898 -1.104,-2.559c-0.74,-0.659 -1.688,-0.991 -2.844,-0.991c-1.27,0 -2.281,0.314 -3.033,0.941c-0.75,0.627 -1.127,1.468 -1.127,2.531l0,7.088c0,1.163 0.367,2.083 1.1,2.773c0.733,0.687 1.713,1.032 2.934,1.032zm-1.158,-10.997c0,-0.297 0.107,-0.537 0.316,-0.725c0.217,-0.184 0.492,-0.273 0.834,-0.273c0.369,0 0.668,0.089 0.896,0.273c0.227,0.188 0.34,0.428 0.34,0.725l0,7.451c0,0.365 -0.111,0.655 -0.336,0.864c-0.223,0.21 -0.523,0.313 -0.9,0.313c-0.369,0 -0.654,-0.1 -0.854,-0.31c-0.197,-0.205 -0.297,-0.493 -0.297,-0.868l0,-7.45l0.001,0z"/>
  <path fill="#cccccc" id="svg_7" d="m36.214,24.098c0.525,0 1.064,-0.15 1.619,-0.438c0.561,-0.292 1.098,-0.719 1.609,-1.276l0,1.515l2.793,0l0,-13.675l-2.793,0l0,10.38c-0.26,0.297 -0.549,0.541 -0.859,0.735c-0.316,0.192 -0.576,0.288 -0.781,0.288c-0.262,0 -0.455,-0.072 -0.568,-0.221c-0.115,-0.143 -0.18,-0.377 -0.18,-0.698l0,-10.484l-2.789,0l0,11.429c0,0.815 0.164,1.424 0.488,1.828c0.33,0.41 0.812,0.617 1.461,0.617z"/>
 </g>
</svg>