<svg width="512" height="512" xmlns="http://www.w3.org/2000/svg">

 <g>
  <title>background</title>
  <rect fill="none" id="canvas_background" height="402" width="582" y="-1" x="-1"/>
 </g>
 <g>
  <title>Layer 1</title>
  <path id="svg_3" fill="#cccccc" d="m219.7,313.3c-3.1,0 -6.1,-1.6 -7.8,-4.5c-2.5,-4.3 -1,-9.8 3.3,-12.3l78.6,-45.5l-65.1,-38.7l0,49.4c0,5 -4,9 -9,9s-9,-4 -9,-9l0,-65.2c0,-3.2 1.7,-6.2 4.6,-7.8s6.3,-1.6 9.1,0.1l91.9,54.7c2.7,1.6 4.4,4.6 4.4,7.8c0,3.2 -1.7,6.1 -4.5,7.7l-91.9,53.2c-1.5,0.7 -3,1.1 -4.6,1.1z"/>
  <path id="svg_4" fill="#cccccc" d="m385.6,384l-263.2,0c-5,0 -9,-4 -9,-9s4,-9 9,-9l263.2,0c18,0 32.6,-14.8 32.6,-32.9l0,-154.2c0,-18.2 -14.6,-32.9 -32.6,-32.9l-258.8,0c-17.8,0 -32.9,15.1 -32.9,32.9l0,150.2c0,5 -4,9 -9,9s-9,-4 -9,-9l0,-150.2c0,-28.1 22.8,-50.9 50.9,-50.9l258.8,0c27.9,0 50.6,22.8 50.6,50.9l0,154.2c-0.1,28.1 -22.7,50.9 -50.6,50.9z"/>
 </g>
</svg>