<svg width="512" height="512" xmlns="http://www.w3.org/2000/svg" clip-rule="evenodd">

 <g>
  <title>background</title>
  <rect fill="none" id="canvas_background" height="402" width="582" y="-1" x="-1"/>
 </g>
 <g>
  <title>Layer 1</title>
  <path id="svg_2" fill="#ed1f24" fill-rule="nonzero" d="m501.299,132.766c-5.888,-22.03 -23.234,-39.377 -45.264,-45.264c-39.932,-10.701 -200.037,-10.701 -200.037,-10.701c0,0 -160.105,0 -200.038,10.701c-22.025,5.887 -39.376,23.234 -45.264,45.264c-10.696,39.928 -10.696,123.236 -10.696,123.236c0,0 0,83.308 10.696,123.232c5.888,22.03 23.239,39.381 45.264,45.268c39.933,10.697 200.038,10.697 200.038,10.697c0,0 160.105,0 200.037,-10.697c22.03,-5.887 39.376,-23.238 45.264,-45.268c10.701,-39.924 10.701,-123.232 10.701,-123.232c0,0 0,-83.308 -10.701,-123.236z"/>
  <path id="svg_3" fill="#fff" fill-rule="nonzero" d="m204.796,332.803l133.018,-76.801l-133.018,-76.801l0,153.602z"/>
 </g>
</svg>